<?xml version="1.0" encoding="UTF-8" standalone="no"?>
<!DOCTYPE svg PUBLIC "-//W3C//DTD SVG 1.1//EN" "http://www.w3.org/Graphics/SVG/1.1/DTD/svg11.dtd">
<svg width="100%" height="100%" viewBox="0 0 2021 325" version="1.1" xmlns="http://www.w3.org/2000/svg" xmlns:xlink="http://www.w3.org/1999/xlink" xml:space="preserve" xmlns:serif="http://www.serif.com/" style="fill-rule:evenodd;clip-rule:evenodd;stroke-linejoin:round;stroke-miterlimit:2;">
    <g transform="matrix(4.16667,0,0,4.16667,0,0)">
        <path d="M112.268,78C114.614,78 116.533,76.081 116.533,73.628C116.533,71.282 114.614,69.363 112.268,69.363C109.922,69.363 107.896,71.282 107.896,73.628C107.896,75.974 109.815,78 112.268,78ZM112.268,77.146C110.349,77.146 108.75,75.547 108.75,73.628C108.75,71.709 110.349,70.11 112.268,70.11C114.187,70.11 115.786,71.709 115.786,73.628C115.786,75.547 114.187,77.146 112.268,77.146ZM113.227,74.055C114.081,73.948 114.508,73.628 114.508,72.776C114.508,72.243 114.401,71.816 113.974,71.602C113.654,71.389 113.122,71.389 112.695,71.389L110.456,71.389L110.456,76.081L111.416,76.081L111.416,74.055L112.375,74.055L113.442,76.081L114.508,76.081L113.227,74.055ZM111.416,73.415L111.416,72.029L112.588,72.029C113.015,72.029 113.654,72.029 113.654,72.67C113.654,73.201 113.333,73.415 112.802,73.415L111.416,73.415Z" style="fill:white;fill-rule:nonzero;"/>
        <path d="M479.844,78C482.191,78 484.11,76.081 484.11,73.628C484.11,71.282 482.191,69.363 479.844,69.363C477.498,69.363 475.472,71.282 475.472,73.628C475.472,75.974 477.392,78 479.844,78ZM479.844,77.146C477.925,77.146 476.326,75.547 476.326,73.628C476.326,71.709 477.925,70.11 479.844,70.11C481.764,70.11 483.363,71.709 483.363,73.628C483.363,75.547 481.764,77.146 479.844,77.146ZM480.803,74.055C481.657,73.948 482.084,73.628 482.084,72.776C482.084,72.243 481.977,71.816 481.55,71.602C481.23,71.389 480.698,71.389 480.271,71.389L478.032,71.389L478.032,76.081L478.993,76.081L478.993,74.055L479.951,74.055L481.019,76.081L482.084,76.081L480.803,74.055ZM478.993,73.415L478.993,72.029L480.165,72.029C480.592,72.029 481.23,72.029 481.23,72.67C481.23,73.201 480.91,73.415 480.378,73.415L478.993,73.415Z" style="fill:white;fill-rule:nonzero;"/>
        <path d="M169.667,38.429L169.667,55.168L138.053,55.168L138.053,38.429L133.445,38.429L133.445,76.847L138.053,76.847L138.053,59.559L169.667,59.559L169.667,76.847L174.277,76.847L174.277,38.429L169.667,38.429Z" style="fill:white;fill-rule:nonzero;"/>
        <path d="M183.823,61.92C183.823,52.04 190.575,45.784 201.989,45.784C213.404,45.784 220.156,52.04 220.156,61.92C220.156,71.797 213.404,78 201.989,78C190.575,78 183.823,71.797 183.823,61.92ZM215.6,61.92C215.6,53.798 209.783,49.792 201.989,49.792C194.198,49.792 188.379,53.798 188.379,61.92C188.379,69.988 194.198,73.992 201.989,73.992C209.783,73.992 215.6,69.988 215.6,61.92Z" style="fill:white;fill-rule:nonzero;"/>
        <path d="M285.683,59.834L285.683,76.847L281.238,76.847L281.238,60.163C281.238,53.853 278.329,49.845 271.634,49.845C265.926,49.845 261.81,52.865 259.394,58.135C259.449,58.681 259.449,59.286 259.449,59.834L259.449,73.17L259.505,76.847L255.003,76.847L255.003,60.163C255.003,53.853 252.094,49.845 245.399,49.845C239.748,49.845 235.684,52.754 233.271,57.969L233.271,76.847L228.771,76.847L228.771,46.938L233.271,46.938L233.271,53.139C235.684,48.748 240.571,45.839 246.552,45.839C253.467,45.839 257.31,49.353 258.737,54.457C261.042,49.187 266.418,45.839 272.787,45.839C281.95,45.839 285.683,52.04 285.683,59.834Z" style="fill:white;fill-rule:nonzero;"/>
        <path d="M312.626,74.158C318.553,74.158 322.12,72.676 325.577,69.438L328.541,72.567C324.48,76.245 319.487,78 312.406,78C300.828,78 294.186,71.745 294.186,61.921C294.186,52.04 300.828,45.784 312.132,45.784C322.781,45.784 329.585,51.548 329.585,61.864C329.585,62.36 329.528,62.634 329.476,62.852L298.742,62.852C299.181,70.426 304.669,74.158 312.626,74.158ZM298.959,59.12L325.029,59.12C323.712,52.48 318.608,49.627 312.187,49.627C305.272,49.627 300.113,52.81 298.959,59.12Z" style="fill:white;fill-rule:nonzero;"/>
        <path d="M338.802,38.429L338.802,76.847L372.828,76.847L372.828,72.567L343.413,72.567L343.413,38.429L338.802,38.429Z" style="fill:white;fill-rule:nonzero;"/>
        <path d="M378.754,39.418C378.754,37.771 380.127,36.509 381.939,36.509C383.748,36.509 385.121,37.771 385.121,39.418C385.121,41.009 383.748,42.327 381.939,42.327C380.127,42.327 378.754,41.009 378.754,39.418ZM384.187,76.848L379.688,76.848L379.688,46.936L384.187,46.936L384.187,76.848Z" style="fill:white;fill-rule:nonzero;"/>
        <path d="M395.22,76.848L395.22,46.936L399.72,46.936L399.72,53.139C402.518,48.637 407.566,45.839 413.987,45.839C423.263,45.839 427.708,51.766 427.708,59.943L427.708,76.848L423.208,76.848L423.208,60.274C423.208,53.522 419.86,49.845 413.11,49.845C407.292,49.845 402.463,52.534 399.72,58.079L399.72,76.848L395.22,76.848Z" style="fill:white;fill-rule:nonzero;"/>
        <path d="M438.464,36.235L438.464,76.848L442.961,76.848L442.961,68.34L451.963,61.316L465.19,76.848L470.68,76.848L455.477,58.736L469.744,46.938L463.819,46.938L442.961,63.784L442.961,36.235L438.464,36.235Z" style="fill:white;fill-rule:nonzero;"/>
        <path d="M57.802,0.858C55.935,0.885 54.076,1.53 52.59,2.794L1.289,46.366C-0.28,47.697 -0.439,50.01 0.935,51.529C2.31,53.051 4.696,53.199 6.262,51.87L15.586,43.953L15.634,74.344C15.638,76.366 17.327,78 19.411,78L19.416,78C21.5,77.998 23.189,76.355 23.185,74.336L23.128,37.549L57.565,8.3C57.766,8.129 58.069,8.129 58.27,8.298L93.048,37.68L93.1,70.591L61.864,70.591L61.864,57.498L67.624,57.498C68.639,57.498 69.285,56.443 68.8,55.579L59.267,38.518C58.76,37.611 57.416,37.611 56.91,38.518L47.375,55.579C46.891,56.443 47.536,57.498 48.551,57.498L54.313,57.498L54.313,72.563C54.313,75.512 56.789,77.912 59.832,77.912L95.133,77.912C98.178,77.912 100.654,75.51 100.654,72.555L100.612,44.066L110.035,52.029C110.75,52.632 111.634,52.929 112.515,52.929C113.57,52.929 114.616,52.504 115.361,51.674C116.732,50.15 116.569,47.837 114.997,46.51L63.235,2.781C61.749,1.526 59.897,0.885 58.038,0.858L57.802,0.858Z" style="fill:white;fill-rule:nonzero;"/>
    </g>
</svg>