<svg width="192" height="96" viewBox="0 0 192 96" fill="none" xmlns="http://www.w3.org/2000/svg">
<path d="M73.0301 41.5837C75.7128 42.8506 78.0229 45.5333 77.9112 49.9673C77.6876 58.2391 64.1621 65.6911 64.1621 65.6911C64.1621 65.6911 71.1671 59.0588 71.1671 50.8243C71.1671 46.7629 69.6394 44.5273 66.8449 43.484C64.0503 42.5525 61.2186 42.2917 55.7413 43.5958C55.8158 43.5585 66.6213 38.5657 73.0301 41.5837Z" fill="url(#paint0_linear_21996_14668)"/>
<path d="M64.1993 65.6904C64.1993 65.6904 78.2837 55.7792 75.1539 46.4641C72.1358 37.3726 55.8158 43.595 55.8158 43.595C55.8158 43.595 66.6585 38.6022 73.03 41.6203C75.7128 42.8871 78.0229 45.5698 77.9111 50.0038C77.6875 58.2383 64.1993 65.6904 64.1993 65.6904Z" fill="url(#paint1_linear_21996_14668)"/>
<path d="M64.1993 65.6904C64.1993 65.6904 78.2837 55.7792 75.1539 46.4641C72.1358 37.3726 55.8158 43.595 55.8158 43.595C55.8158 43.595 70.0119 39.0872 72.8437 46.8373C76.1971 56.1151 64.1993 65.6904 64.1993 65.6904Z" fill="url(#paint2_linear_21996_14668)"/>
<path d="M73.03 41.585C75.7128 42.8518 70.4963 46.1307 69.1922 44.8639C68.5588 44.2677 67.7763 43.7833 66.8821 43.448C66.2114 43.2244 65.5035 43.0381 64.7955 42.8891C62.5599 42.4792 60.4361 41.3987 65.4289 40.7652C67.5155 40.5044 69.6394 40.5044 71.5396 41.0261C72.0613 41.1751 72.5457 41.3614 73.03 41.585Z" fill="url(#paint3_linear_21996_14668)" style="mix-blend-mode:multiply"/>
<path d="M58.1634 73.9629C58.0516 71.69 57.9771 54.9601 59.6165 45.3097C61.256 35.6593 66.1371 30.9273 73.9244 31.039C81.4883 31.1508 90.6171 35.1749 90.6171 35.1749C90.6171 35.1749 86.6675 34.1316 82.2335 33.9081C70.3102 33.2374 68.4099 37.336 65.8017 45.7941C65.0938 48.1042 58.536 72.8078 58.1634 73.9629Z" fill="url(#paint4_linear_21996_14668)"/>
<path d="M58.1632 73.9617C61.3676 53.9902 62.5227 41.21 67.9254 35.6582C74.2224 29.2122 90.5797 35.2111 90.5797 35.2111C90.5797 35.2111 86.6301 34.1678 82.1961 33.9442C70.2728 33.2735 68.3725 37.3722 65.7643 45.8302C65.0936 48.1031 58.5358 72.8067 58.1632 73.9617Z" fill="url(#paint5_linear_21996_14668)"/>
<path d="M58.1634 73.9629C61.3677 53.9914 62.5227 41.2112 67.9254 35.6594C74.2224 29.2134 90.5797 35.2123 90.5797 35.2123C90.5797 35.2123 71.3161 27.2759 64.9446 36.1811C58.6476 44.9372 58.1634 73.9629 58.1634 73.9629Z" fill="url(#paint6_linear_21996_14668)"/>
<path d="M74.6323 36.1433C73.8126 36.9631 73.8126 38.2672 74.6323 39.1242C75.5265 40.0184 76.8679 40.0184 77.6876 39.1987C78.5819 38.3044 78.5819 36.9631 77.6876 36.0688C76.8679 35.2118 75.5638 35.2118 74.6323 36.1433Z" fill="url(#paint7_radial_21996_14668)"/>
<path d="M74.8185 36.1818C74.2224 36.778 74.1479 37.5977 74.595 38.0821C75.0421 38.5292 75.8991 38.4547 76.4952 37.8585C77.0914 37.2624 77.1659 36.4426 76.7188 35.9582C76.2344 35.5111 75.4147 35.5856 74.8185 36.1818Z" fill="url(#paint8_radial_21996_14668)"/>
<path d="M19.7105 39.8321C18.481 39.8321 17.624 38.9379 17.624 37.7456C17.624 36.516 18.5182 35.659 19.7105 35.659C20.9401 35.659 21.7971 36.5532 21.7971 37.7456C21.7971 38.9379 20.9401 39.8321 19.7105 39.8321Z" fill="#333333"/>
<path d="M86.4437 58.2022C83.7982 58.2022 81.0782 57.308 81.0782 57.308L81.7489 54.2154C81.7489 54.2154 84.0218 55.1096 86.3319 55.1096C88.2695 55.1096 90.2443 54.8861 90.2443 53.0976C90.2443 52.1661 89.5363 51.7562 87.487 51.4209L86.1084 51.1973C83.053 50.6757 81.041 49.7069 81.041 46.6516C81.041 43.4099 83.7237 41.4724 88.2322 41.4724C90.2442 41.4724 92.4799 42.2548 92.4799 42.2548L91.8092 45.1984C91.8092 45.1984 90.1697 44.5277 88.1577 44.5277C84.3571 44.5277 84.3571 46.0554 84.3571 46.5398C84.3571 47.5831 85.0278 47.8811 87.0771 48.2165L88.4558 48.44C90.6541 48.8126 93.5604 49.6696 93.5604 52.9858C93.5604 56.5255 91.213 58.2022 86.4437 58.2022Z" fill="#333333"/>
<path d="M120.127 58.2015C113.979 58.2015 110.887 55.3698 110.887 49.818C110.887 44.7878 113.905 41.4344 118.45 41.4344C120.649 41.4344 122.4 42.0679 123.592 43.2974C125.008 44.7506 125.642 47.0235 125.567 50.0043L125.53 51.1966H114.464C114.873 53.9166 116.662 55.1462 120.276 55.1462C121.767 55.1462 123.182 54.7736 123.741 54.55L123.816 54.5128L124.524 57.4563L124.263 57.5309C123.331 57.8662 121.729 58.2015 120.127 58.2015ZM122.139 48.1785C122.102 45.6448 120.835 44.3407 118.45 44.3407C116.252 44.3407 114.762 45.7566 114.464 48.1785H122.139Z" fill="#333333"/>
<path d="M0 57.9772H3.76329V48.9975L11.1781 57.9772H16.171L7.07945 47.3953L16.5063 35.621H12.1096L3.76329 46.1657V35.621H0V57.9772Z" fill="#333333"/>
<path d="M21.3872 41.7323H17.9966V57.9778H21.3872V41.7323Z" fill="#333333"/>
<path d="M31.2243 41.3984C27.7591 41.3984 24.8155 42.5907 24.8155 42.5907V57.9792H28.2435V44.9381C29.324 44.7145 30.2183 44.5655 30.8889 44.5655C33.4972 44.5655 35.0248 45.2734 35.0248 48.8132V57.9419H38.4528V48.4778C38.4528 43.7085 36.1054 41.3984 31.2243 41.3984Z" fill="#333333"/>
<path d="M102.503 41.3964C101.273 41.3964 100.118 41.5827 98.926 42.0298V35.621H95.4981V57.9772H98.926V45.1597C100.007 44.7498 101.013 44.5635 101.907 44.5635C104.18 44.5635 105.707 45.2714 105.707 48.8112V57.9399H109.135V48.4386C109.135 42.626 105.521 41.3964 102.503 41.3964Z" fill="#333333"/>
<path d="M48.9228 41.3984C43.5573 41.3984 40.3529 44.4165 40.3529 49.5211C40.3529 54.5885 43.5573 57.6438 48.9228 57.6438C49.6307 57.6438 50.3759 57.5693 51.0839 57.4203V57.7184C51.0839 60.2893 49.4817 61.7425 46.6872 61.7425C44.8242 61.7425 43.0357 61.1836 43.0357 61.1836L42.3277 64.0526C42.3277 64.0526 44.3025 64.8351 46.6872 64.8351C51.382 64.8351 54.5118 61.9288 54.5118 57.6438V42.5534C54.5118 42.4789 52.3135 41.3984 48.9228 41.3984ZM51.0839 54.4022C50.525 54.5513 49.7798 54.663 49.0346 54.663C45.6066 54.663 43.8554 52.9491 43.8554 49.5211C43.8554 46.1304 45.5694 44.491 49.0718 44.491C49.7425 44.491 50.4132 44.5655 51.0839 44.7518V54.4022Z" fill="#333333"/>
<path d="M133.764 41.6223C130.001 41.6223 127.691 42.591 127.691 42.591V57.9795H131.119V45.0502C131.901 44.9384 132.796 44.8639 133.541 44.8639C134.994 44.8639 136 44.9757 136 44.9757V41.8086C136 41.7713 134.808 41.6223 133.764 41.6223Z" fill="#333333"/>
<defs>
<linearGradient id="paint0_linear_21996_14668" x1="79.6648" y1="51.2115" x2="78.7922" y2="40.3079" gradientUnits="userSpaceOnUse">
<stop stop-color="#DA1A35"/>
<stop offset="0.5" stop-color="#E67A6C"/>
<stop offset="1" stop-color="#DA1A35"/>
</linearGradient>
<linearGradient id="paint1_linear_21996_14668" x1="79.9199" y1="51.5756" x2="78.8253" y2="37.8716" gradientUnits="userSpaceOnUse">
<stop stop-color="#F36C21"/>
<stop offset="0.5" stop-color="#FFD200"/>
<stop offset="1" stop-color="#F36C21"/>
</linearGradient>
<linearGradient id="paint2_linear_21996_14668" x1="83.9744" y1="53.1172" x2="82.8058" y2="37.348" gradientUnits="userSpaceOnUse">
<stop stop-color="#F05133"/>
<stop offset="0.5" stop-color="#F58463"/>
<stop offset="1" stop-color="#F05133"/>
</linearGradient>
<linearGradient id="paint3_linear_21996_14668" x1="107.842" y1="69.4978" x2="55.8048" y2="17.9966" gradientUnits="userSpaceOnUse">
<stop stop-color="white"/>
<stop offset="0.0231607" stop-color="#EDEEEE"/>
<stop offset="0.1111" stop-color="#B9BBBE"/>
<stop offset="0.1982" stop-color="#8F9194"/>
<stop offset="0.2824" stop-color="#6E7072"/>
<stop offset="0.3632" stop-color="#525355"/>
<stop offset="0.4396" stop-color="#373738"/>
<stop offset="0.5099" stop-color="#141414"/>
<stop offset="0.5682"/>
<stop offset="1"/>
</linearGradient>
<linearGradient id="paint4_linear_21996_14668" x1="48.131" y1="44.5509" x2="50.7326" y2="31.109" gradientUnits="userSpaceOnUse">
<stop stop-color="#15BEF0"/>
<stop offset="0.2303" stop-color="#79CEF4"/>
<stop offset="0.5" stop-color="#C1E5F9"/>
<stop offset="0.5564" stop-color="#ADDEF7"/>
<stop offset="0.6932" stop-color="#7DCFF4"/>
<stop offset="0.8174" stop-color="#54C5F2"/>
<stop offset="0.9239" stop-color="#2FC0F0"/>
<stop offset="1" stop-color="#15BEF0"/>
</linearGradient>
<linearGradient id="paint5_linear_21996_14668" x1="34.0261" y1="50.5404" x2="40.7067" y2="17.25" gradientUnits="userSpaceOnUse">
<stop stop-color="#0054A6"/>
<stop offset="0.0562237" stop-color="#0057A8"/>
<stop offset="0.1396" stop-color="#2860AD"/>
<stop offset="0.2399" stop-color="#4B6FB6"/>
<stop offset="0.3534" stop-color="#7287C3"/>
<stop offset="0.4763" stop-color="#A2AED8"/>
<stop offset="0.5" stop-color="#ACB7DD"/>
<stop offset="0.8461" stop-color="#426AB3"/>
<stop offset="1" stop-color="#0054A6"/>
</linearGradient>
<linearGradient id="paint6_linear_21996_14668" x1="50.6251" y1="44.3379" x2="53.3352" y2="30.5976" gradientUnits="userSpaceOnUse">
<stop stop-color="#009ADA"/>
<stop offset="0.1292" stop-color="#2BA7DF"/>
<stop offset="0.4158" stop-color="#A4CEEE"/>
<stop offset="0.5" stop-color="#C2DDF4"/>
<stop offset="1" stop-color="#009ADA"/>
</linearGradient>
<radialGradient id="paint7_radial_21996_14668" cx="0" cy="0" r="1" gradientUnits="userSpaceOnUse" gradientTransform="translate(68.7252 52.3939) rotate(162.59) scale(49.9398 28.5154)">
<stop stop-color="#939598"/>
<stop offset="0.0332357" stop-color="#8B8D90"/>
<stop offset="0.1616" stop-color="#707274"/>
<stop offset="0.2974" stop-color="#58595C"/>
<stop offset="0.4407" stop-color="#444445"/>
<stop offset="0.5952" stop-color="#282829"/>
<stop offset="0.7685" stop-color="#0D0C0D"/>
<stop offset="1"/>
</radialGradient>
<radialGradient id="paint8_radial_21996_14668" cx="0" cy="0" r="1" gradientUnits="userSpaceOnUse" gradientTransform="translate(311.593 124.481) rotate(15.8165) scale(300.891 69.3306)">
<stop offset="0.865" stop-color="white" stop-opacity="0"/>
<stop offset="1" stop-color="white"/>
</radialGradient>
</defs>
</svg>