<svg xmlns="http://www.w3.org/2000/svg" viewBox="0 0 656 150.6212" style="position: absolute; top: 0px; left: 0px; width: 100%;" preserveAspectRatio="xMidYMin slice"><path class="fill" d="M238.6961,48.401h-13.614s-21.2709,50.897-26.005,62.2317C194.3361,99.298,172.976,48.401,172.976,48.401H156.184v82.8446h14.1506V76.9374c7.3589,17.4413,22.9165,54.3082,22.9165,54.3082h11.6666S220.3847,94.45,227.729,76.9773v54.2683h14.1489V48.401Z"></path><path class="fill" d="M299.4233,69.72H289.03v32.1635c0,8.8929-3.8042,19.2841-14.5554,19.2841-9.0132,0-12.3116-3.2385-12.6273-12.3775V69.72h-13.572v39.0453c0,19.9145,13.0047,24.1028,23.9048,24.1028,7.1005,0,12.7877-3.0419,17.4279-7.2368v5.6144H302.6V69.72Z"></path><polygon class="fill" points="319.361 48.401 308.968 48.401 308.968 131.246 322.543 131.246 322.543 48.401 319.361 48.401"></polygon><path class="fill" d="M347.3079,53.0331H336.9038V69.72H326.6161V81.4h10.2877v35.4949c0,5.4568,1.1571,9.0083,3.7167,11.4469,2.5755,2.4536,6.3754,3.5515,12.3,3.5515l9.465-.3217.122-2.8919v-8.9685l-9.3614.5c-2.1752-.1436-2.6632-.175-2.6632-4.3375V81.4h12.0246V69.72H350.4826V53.0331Z"></path><polygon class="fill" points="378.384 48.401 367.994 48.401 367.994 65.253 381.558 65.253 381.558 48.401 378.384 48.401"></polygon><polygon class="fill" points="378.384 69.72 367.994 69.72 367.994 131.246 381.558 131.246 381.558 69.72 378.384 69.72"></polygon><path class="fill" d="M435.7184,77.3811A19.59,19.59,0,0,0,418.5642,68.11c-6.7933,0-12.0645,2.7722-16.513,6.7717V69.72H389.0573v61.5257h13.57V97.2567c.1133-11.5894,4.9764-17.4684,14.4468-17.4684,2.8435,0,4.9485.69,6.4371,2.1234,2.3436,2.228,2.7883,5.9264,2.7613,8.6262v40.7077h13.5617V96.8184c0-17.03,9.669-17.03,12.8449-17.03,7.8674,0,10.7841,3.014,10.7841,11.1166v40.3407H477.04V90.58c0-14.7059-7.8631-22.47-22.7568-22.47a23.1344,23.1344,0,0,0-18.5652,9.2708"></path><path class="fill" d="M522.1956,106.9128a12.737,12.737,0,0,1-4.0114,9.4617c-3.2093,3.0506-8.107,4.7984-13.4052,4.7984-4.8469,0-9.9917-2.79-9.9917-7.9818,0-6.0647,7.0112-7.4226,18.55-8.9684l6.2945-.9068c.718-.1144,1.6733-.4027,2.5639-.6088Zm20.1034,20.9163v-9.3863l-5.472,1.1141a1.41,1.41,0,0,1-1.0644-1.1011V88.9532c0-9.4985-4.3179-20.8429-24.9244-20.8429-16.5033,0-26.3893,7.8177-27.1006,21.4647l-.1685,3.1262h13.6556l.0821-2.9027c.1586-6.6443,4.4-10.01,12.6127-10.01,10.7917,0,12.2761,4.0438,12.2761,8.42,0,3.39-.3919,3.9131-6.4565,4.57,0,.0054-3.2017.3357-3.2017.3357-14.6833,1.55-31.3313,3.2913-31.3313,20.5007,0,11.6887,9.0332,19.2537,23.0072,19.2537,9.5,0,15.2122-2.717,19.7861-7.3113,1.3148,3.0269,4.0675,5.6889,10.4333,5.6889l8.2235-.761Z"></path><path class="fill" d="M558.4557,53.0331H548.0742V69.72H537.7673V81.4h10.3069v35.4949c0,5.4568,1.1476,9.0083,3.6973,11.4469,2.5929,2.4536,6.3766,3.5515,12.2933,3.5515l9.48-.3217.1166-2.8919v-8.9685l-9.3646.5c-2.1644-.1436-2.6534-.175-2.6534-4.3375V81.4h12.018V69.72h-12.018V53.0331Z"></path><polygon class="fill" points="589.549 69.72 579.151 69.72 579.151 131.246 592.724 131.246 592.724 69.72 589.549 69.72"></polygon><polygon class="fill" points="589.549 48.401 579.151 48.401 579.151 65.253 592.724 65.253 592.724 48.401 589.549 48.401"></polygon><path class="fill" d="M596.8492,100.4811c0,19.0693,12.8028,32.3869,31.111,32.3869,14.8095,0,25.3713-9.2512,27.5313-24.1179l.5085-3.394H642.2386l-.2677,2.7149c-.7438,7.5942-6.6443,13.1019-14.0107,13.1019-12.045,0-17.5288-10.728-17.5288-20.6918,0-9.97,5.4838-20.69,17.5288-20.69,7.4182,0,11.8755,3.6055,13.6134,11.0044l.5495,2.3436h13.35l-.4329-3.341c-1.6775-13.38-12.0568-21.6882-27.08-21.6882-18.3082,0-31.111,13.3026-31.111,32.3708"></path><path class="fill" d="M85.6737,38.348c.729.2549,1.26-.5655,1.26-.5655a13.8308,13.8308,0,0,1-1.8683-.1756,12.759,12.759,0,0,1-2.398-.9649,1.664,1.664,0,0,0-1.202.0065,3.3681,3.3681,0,0,1,1.3242.8095C83.5124,38.164,84.3648,37.8954,85.6737,38.348Z"></path><path class="fill" d="M76.8332,33.8232a2.8172,2.8172,0,0,0,.311-.9114.93.93,0,0,1,.5843-.6594s-.55-.5041-.9007-.1324a1.19,1.19,0,0,0-.2356,1.113c.0487.3481-.1869.6712-.3767.6712C76.0334,33.9042,76.6237,34.1425,76.8332,33.8232Z"></path><path class="fill" d="M75.7178,38.3755a3.7412,3.7412,0,0,1-.4609-1.0816,8.4883,8.4883,0,0,1,.0377-2.0929,1.2788,1.2788,0,0,0-.402-1.12,5.8791,5.8791,0,0,1-.1993,1.1348,3.6914,3.6914,0,0,0-.3477,1.92C74.48,38.0964,75.7178,38.3755,75.7178,38.3755Z"></path><path class="fill" d="M102.625,13.0562c-.2109.2232-.3779.4131-.3887.4248L101.332,14.7l-.6933-.3066c.0478-.1968.1025-.43.1406-.62.0654-.3227.1269-.63.1572-.8681.07-.5332.1719-1.6157.2041-2.1865.0313-.5479.042-2.1075.042-2.1749a15.1156,15.1156,0,0,0-.1406-2.4,2.4785,2.4785,0,0,0-.3955-.8955,2.55,2.55,0,0,0-.7363-.5888A18.1255,18.1255,0,0,0,97.3936,3.77a2.4228,2.4228,0,0,0-.9532.0078,2.5221,2.5221,0,0,0-.86.4492,11.0382,11.0382,0,0,0-1.4033,1.5205l-.1895.2315c-.3877.4634-1.0522,1.3276-1.3442,1.7339-.3306.459-.9444,1.3628-1.2349,1.8628-.103.1743-.2207.4028-.3433.6411-.1.1938-.2216.4541-.3183.6684l-.7359-.1865c.0157-.208.0313-.46.0372-.6772.0087-.3076.017-.5938.0053-.8223-.0249-.5386-.1142-1.6225-.1806-2.189-.0635-.5449-.3189-2.0844-.3306-2.15a16.4692,16.4692,0,0,0-.5571-2.3212,2.5294,2.5294,0,0,0-.5328-.814,2.4375,2.4375,0,0,0-.8334-.4663A18.233,18.233,0,0,0,85.0015.82a2.3542,2.3542,0,0,0-.9551.1626,2.3934,2.3934,0,0,0-.7769.6016,11.8569,11.8569,0,0,0-1.124,1.7539l-.1387.2441c-.2724.4741-.7807,1.4385-1.0258,1.9463-.2437.5049-.6885,1.4985-.8892,2.0542-.0659.1856-.144.4292-.2251.686-.0654.2085-.1455.49-.209.7178L78.9116,8.93c-.0288-.2427-.0659-.5449-.1-.7705l-.0273-.1748c-.03-.1885-.0572-.3643-.0855-.5142-.1186-.6-.4165-1.689-.5693-2.1733-.1387-.4444-.4165-1.2393-.6055-1.7808l-.0757-.2168a12.15,12.15,0,0,0-.9829-2.2661,2.4487,2.4487,0,0,0-.6616-.6856,2.4176,2.4176,0,0,0-.9-.3095,17.5045,17.5045,0,0,0-2.6445.0263,2.4756,2.4756,0,0,0-.9029.3194,2.3922,2.3922,0,0,0-.67.7344A13.0912,13.0912,0,0,0,69.78,3.3331l-.0435.1313c-.1948.5894-.4819,1.459-.6137,1.9322-.147.518-.4029,1.5747-.5171,2.1357-.0484.2412-.0909.5484-.1343.8779-.0239.19-.042.418-.0542.6133l-.7544.0747c-.0674-.23-.1519-.5151-.2222-.7275l-.0425-.127c-.0673-.2006-.13-.3867-.1894-.5415-.207-.5307-.6719-1.5175-.9282-2.0273-.2613-.5156-.7886-1.4722-1.0625-1.9277l-.14-.2359a11.4285,11.4285,0,0,0-1.165-1.7348,2.4562,2.4562,0,0,0-.7876-.584,2.4135,2.4135,0,0,0-.9512-.1441,18.2643,18.2643,0,0,0-2.5986.48,2.4727,2.4727,0,0,0-.84.4878,2.5807,2.5807,0,0,0-.517.813,12.0788,12.0788,0,0,0-.51,2.3584l.0078.001a2.4056,2.4056,0,0,0-.043.2431l-.0244.1665c-.082.5586-.1909,1.3013-.2319,1.73-.0527.5254-.12,1.6128-.1348,2.1968-.0044.2031.0059.4521.0176.7212l.0064.1435c.0092.1939.0307.4263.0522.6241l-.7349.2041c-.0815-.1763-.18-.3809-.27-.5479l-.0581-.106c-.1372-.2509-.2656-.4843-.3794-.6591-.3022-.4766-.918-1.3623-1.2495-1.8111-.37-.4892-1.0425-1.3213-1.3818-1.71L53.14,6.2144A12.1465,12.1465,0,0,0,51.6665,4.671a2.4279,2.4279,0,0,0-.8818-.4473,2.3224,2.3224,0,0,0-.9595.0249l-.1729.0474a22.5157,22.5157,0,0,0-2.31.8828,2.45,2.45,0,0,0-.7422.6245,2.5286,2.5286,0,0,0-.3662.8985,12.4529,12.4529,0,0,0-.0967,2.1743l.0025.1884c0,.5279.0424,1.6158.0859,2.1963.043.5611.1719,1.6524.2505,2.1822.0356.2382.1011.5376.1719.8564.0429.1909.1045.42.1587.6133l-.6827.333c-.247-.3169-.6245-.8008-.874-1.1231l-1.5674-1.5991c-.0136-.0136-.0561-.0556-1.6557-1.4507a15.8235,15.8235,0,0,0-1.9351-1.4335,2.0463,2.0463,0,0,0-1.875-.0987,18.88,18.88,0,0,0-2.2773,1.3472,2.5049,2.5049,0,0,0-.6245.728,2.57,2.57,0,0,0-.21.9771,16.9407,16.9407,0,0,0,.3393,2.4506c.0723.3506.3243,1.5748.4434,2.0381.145.57.4609,1.6167.6245,2.1006.0747.2256.19.5029.3145.8018.0757.1845.1772.4106.2646.6l-.6089.4263c-.1391-.1387-.3051-.3-.4482-.4283-.2456-.2177-.4805-.4218-.6753-.5713-.459-.3515-1.3486-.9814-1.7939-1.2705-.461-.3027-1.3956-.8667-1.8868-1.1391l-.2314-.1294a11.6513,11.6513,0,0,0-1.8735-.9258,2.4229,2.4229,0,0,0-.9732-.1133,2.4776,2.4776,0,0,0-.9018.3462,18.4254,18.4254,0,0,0-2.002,1.7163,1.9922,1.9922,0,0,0-.5249,1.8233,12.0753,12.0753,0,0,0,.6211,1.999l.0918.25c.21.5644.6133,1.5586.8374,2.0439.2441.5318.71,1.5.9927,1.9844.1.1758.2373.3936.3828.62.1167.1841.2817.4209.4189.6128l-.5283.5449c-.2109-.1377-.4814-.3125-.7061-.4521-.2006-.1221-.3872-.2359-.5449-.3242-.5127-.2823-1.5068-.7383-2.0161-.9571-.5161-.2231-1.5342-.6171-2.0532-.7944l-.27-.0937a11.5341,11.5341,0,0,0-2.0015-.5767,2.0212,2.0212,0,0,0-1.7925.5537,17.8685,17.8685,0,0,0-1.6884,2.05,2.3678,2.3678,0,0,0-.3272.8989,2.4516,2.4516,0,0,0,.1436.999,14.0637,14.0637,0,0,0,1.1025,2.0875c.0371.061.852,1.3847,1.1587,1.833.3076.4541.9536,1.3335,1.3066,1.7773.1314.1631.3081.3594.4991.57l.0913.1011c.1264.1382.2871.2939.4277.4253l-.4219.6255c-.2173-.0957-.4839-.2115-.6865-.291-.252-.1006-.4888-.1934-.6821-.26-.5415-.1831-1.604-.4585-2.1514-.5869-.5527-.1294-1.6216-.3394-2.1543-.4234l-.2734-.0449a11.5161,11.5161,0,0,0-2.0747-.2261,2.4561,2.4561,0,0,0-.9449.2237,2.3913,2.3913,0,0,0-.73.6333,18.6556,18.6556,0,0,0-1.2925,2.2846,2.3958,2.3958,0,0,0-.18.9756,2.494,2.494,0,0,0,.3057.9395,12.2085,12.2085,0,0,0,1.2939,1.6865l.15.1738c.3838.4566,1.124,1.2637,1.4658,1.62.3824.3965,1.1592,1.1294,1.6016,1.5225.1816.1587.4233.3433.6777.5347.1568.1191.3526.2578.52.373l-.3145.6905c-.2314-.0591-.5195-.1294-.7495-.1763-.2539-.0518-.4932-.1-.686-.13-.668-.103-1.8575-.186-2.2232-.207-.5547-.0308-1.6416-.0508-2.1953-.0425L9.293,46.37a11.5153,11.5153,0,0,0-2.0826.14,2.4419,2.4419,0,0,0-.9042.39,2.4632,2.4632,0,0,0-.6031.7559,18.54,18.54,0,0,0-.8764,2.4853,2.4781,2.4781,0,0,0-.0049.9527,2.4451,2.4451,0,0,0,.457.8789A11.3921,11.3921,0,0,0,6.833,53.401l.1958.1621c.2687.2251.6895.5564,1.0782.8534-.0538.0266-.103.0518-.1629.0805a.9012.9012,0,0,1-.4556.045c-.7309-.0544-1.8208-.4538-2.32-.4021-1.23.1231-2.2617,1.84-2.4875,2.0877-.7508.818.03,1.0415-.1691,1.6369-.1892.5556-.532.65-.8551,1.4013a2.5157,2.5157,0,0,0,.2734,2.4282c.4892.89-.8782,1.3983-.0688,2.1194.1185.102.4032.712.615.9008.6988.619.4153.9958.9472,1.7252.3994.5482,2.01.4862,2.3633.1608l.3071-.2766.4826.2458c.5162.2486,1.524.6817,2.0142.8745.2031.08.4614.1621.8276.2779.1875.0581.4224.1235.6207.1767l-.0645.7442c-.2046.018-.4512.0434-.666.0757-.3086.0459-.5967.0888-.8252.1391-.5318.1187-1.5864.3955-2.1309.56-.5259.16-1.5493.5049-2.08.709l-.3208.123v.002a11.4311,11.4311,0,0,0-1.836.8149,2.4363,2.4363,0,0,0-.7192.6777,2.3745,2.3745,0,0,0-.312.9136A25.6966,25.6966,0,0,0,1.11,75.295a2.4612,2.4612,0,0,0,.3247.9033,2.542,2.542,0,0,0,.73.6641,11.8159,11.8159,0,0,0,1.9174.7988l.274.0962c.5258.187,1.56.5191,2.0922.6714.5508.1519,1.6084.4077,2.1446.5186.2348.0434.5351.0854.8506.1264.1938.0254.4311.0469.6323.0625l.0649.7427c-.2344.0659-.5234.15-.7368.2231-.2461.0811-.479.16-.66.229-.59.2251-1.626.7286-2.0318.9356-.4941.2476-1.4487.7734-1.9267,1.0605l-.2237.1333A11.9277,11.9277,0,0,0,2.8423,83.607a2.4623,2.4623,0,0,0-.604.79,2.4815,2.4815,0,0,0-.16.9692,18.2738,18.2738,0,0,0,.4878,2.59,2.3243,2.3243,0,0,0,.48.8466,2.37,2.37,0,0,0,.8174.5171,11.9465,11.9465,0,0,0,2.0957.4732l.226.0366c.5469.0947,1.6275.24,2.1822.2939.5263.05,1.6216.1231,2.1914.1387.2378.0059.54-.0073.8716-.0234.1943-.0093.4331-.0283.6352-.0459l.19.7309c-.1812.0806-.3921.18-.564.273l-.105.0576c-.2436.1343-.47.2588-.644.3711-.4834.3081-1.38.9282-1.8081,1.25-.4214.3125-1.271.9971-1.7154,1.3818l.0005.0005c-.0547.0425-.1191.0991-.2036.1724A12.5783,12.5783,0,0,0,5.707,95.877a2.4135,2.4135,0,0,0-.4428.8775,2.4423,2.4423,0,0,0,.0249.979,18.9617,18.9617,0,0,0,.92,2.4492,2.3993,2.3993,0,0,0,.6074.7427,2.4327,2.4327,0,0,0,.9141.3764,11.3422,11.3422,0,0,0,2.1259.1021l.2447-.0049c.5693,0,1.667-.0464,2.1963-.0849.5815-.0425,1.666-.1636,2.1865-.2442.2392-.0366.5444-.105.8652-.1777.1865-.0415.4111-.1021.6021-.1558l.3193.6817c-.1626.1128-.3516.2475-.5034.3676l-.08.064c-.2246.1807-.4351.35-.5938.4956-.4087.3735-1.185,1.1426-1.5673,1.5523-.3863.413-1.1006,1.2314-1.4415,1.6528l-.1406.17a12.1185,12.1185,0,0,0-1.2685,1.728,2.4084,2.4084,0,0,0-.2808.9346,2.3346,2.3346,0,0,0,.1983.9726,18.7068,18.7068,0,0,0,1.333,2.2476,2.3762,2.3762,0,0,0,.7348.6245,2.4784,2.4784,0,0,0,.958.2066,11.1658,11.1658,0,0,0,2.0772-.2666l.2671-.0494c.5473-.0976,1.6108-.3276,2.1489-.4643.4448-.1152,1.5537-.42,2.145-.6328.187-.0694.4214-.1656.6636-.2691.2041-.0854.4746-.2085.6929-.3095l.4365.6142c-.1441.148-.314.3257-.4463.4741-.21.2354-.4063.4634-.5518.6485-.3564.46-.9907,1.3584-1.28,1.7973-.3276.5015-.8876,1.44-1.1308,1.8794l-.1416.251a11.67,11.67,0,0,0-.92,1.8648,2.0515,2.0515,0,0,0,.2378,1.8784c.1128.1777.7048.8955.7048.8955a37.3052,37.3052,0,0,1-2.5832,3.0773c-.72.703-.7648,1.63-1.1453,2.5415a15.0753,15.0753,0,0,1-1.2911,2.32,22.7843,22.7843,0,0,1-3.0557,4.1376c-.6705.6682-1.3432,1.3341-2.0125,2.0054a4.0188,4.0188,0,0,0-1.016,2.5376c-.3234,1.5856-.4525,1.4957,1.013,2.2221.1891.1,2.1945.7905,2.7166,1.0517.3673.182.726.3571,1.08.5225H0v9.4591H653.7982v-9.4591l-552.4239.0723a2.2977,2.2977,0,0,0,.6091-.54,2.426,2.426,0,0,0,.3691-.9165,11.7634,11.7634,0,0,0,.0987-2.09l-.0039-.26c-.002-.5786-.044-1.666-.084-2.1933-.042-.5615-.168-1.6353-.249-2.189-.0381-.2392-.1036-.5342-.1729-.8437-.043-.1934-.1045-.4346-.1582-.6358l.68-.3232c.2461.3174.624.8042.876,1.1308l1.581,1.6114c.0469.0424,1.6358,1.4267,1.6426,1.4326a15.9609,15.9609,0,0,0,1.9355,1.4365,2.5332,2.5332,0,0,0,.9346.2769,2.1989,2.1989,0,0,0,.9434-.1827,18.5379,18.5379,0,0,0,2.2734-1.3466,2.4261,2.4261,0,0,0,.6231-.7266,2.476,2.476,0,0,0,.2089-.9746,17.1568,17.1568,0,0,0-.3271-2.4028c-.0547-.2627-.3291-1.5992-.4541-2.087-.1484-.5766-.4639-1.622-.626-2.1044-.0752-.2232-.19-.5-.3144-.7984-.0762-.1836-.1787-.4-.2676-.5815l.6016-.4434c.1494.1416.3271.3086.4746.4395.24.2119.4658.4091.6562.5556.4463.34,1.335.97,1.793,1.27.4463.2964,1.3652.8511,1.8847,1.1387l.3331.188a11.7587,11.7587,0,0,0,1.791.8789,2.0551,2.0551,0,0,0,1.8613-.2407,18.8266,18.8266,0,0,0,2.0059-1.7154,2.0222,2.0222,0,0,0,.5224-1.8393,12.539,12.539,0,0,0-.6338-2.0186l-.0791-.2129c-.1777-.4882-.5908-1.5092-.8369-2.0458-.0644-.1387-.64-1.375-.9941-1.9854-.1-.1758-.2393-.3965-.3858-.6284-.1162-.1821-.2783-.4185-.4131-.61l.542-.541c.1914.1323.4268.2915.6114.4053.2314.1431.45.2773.6279.3755.5059.2793,1.501.7344,2.0117.9565.5156.2222,1.5342.6153,2.0518.7925l.249.0874a11.5969,11.5969,0,0,0,2.03.5845,2.4861,2.4861,0,0,0,.9629-.06,2.3518,2.3518,0,0,0,.8252-.4941,19.0589,19.0589,0,0,0,1.6708-2.0259,2.0221,2.0221,0,0,0,.2051-1.9146,16.6855,16.6855,0,0,0-1.1074-2.0981c-.0576-.0947-.8574-1.3926-1.1582-1.83-.3086-.4541-.9541-1.332-1.3037-1.7739-.1533-.1919-.3652-.4243-.5908-.67-.13-.1412-.2979-.3116-.4405-.4546l.418-.6026c.2354.1006.542.23.7988.3321.2149.0839.4161.1621.5782.2168.5586.1919,1.6142.4609,2.1552.5908.5459.126,1.6133.3354,2.16.4233l.2744.0459a11.1292,11.1292,0,0,0,2.0664.2241,2.438,2.438,0,0,0,.9551-.228,2.4034,2.4034,0,0,0,.7129-.6172,18.3555,18.3555,0,0,0,1.3115-2.313,2.5055,2.5055,0,0,0,.1738-.9345,2.4363,2.4363,0,0,0-.3144-.9717,11.81,11.81,0,0,0-1.26-1.6455l-.1758-.2071c-.3545-.4218-1.081-1.2177-1.47-1.622-.3984-.4121-1.1885-1.1548-1.5976-1.5147-.168-.15-.3936-.3232-.6827-.5424-.1543-.1182-.3466-.2515-.5107-.3624l.3066-.6967c.2315.0576.5147.1255.7285.1694.2627.0542.5079.1025.7042.1338.5917.0918,1.6816.1787,2.2314.208s1.6367.0532,2.1807.0425l.3-.0039a11.4672,11.4672,0,0,0,2.07-.1407,2.4136,2.4136,0,0,0,.9013-.3872,2.454,2.454,0,0,0,.6065-.7558,19.1051,19.1051,0,0,0,.8769-2.49,2.4682,2.4682,0,0,0,.0039-.9609,2.5312,2.5312,0,0,0-.4638-.876,11.1306,11.1306,0,0,0-1.5362-1.416l-.206-.1685c-.4209-.35-1.2861-1.018-1.7647-1.36-.4648-.3276-1.3193-.9219-1.8339-1.2212-.1387-.0791-.3077-.1675-.4893-.2617l-.1543-.0806c-.1953-.1-.46-.2275-.6768-.33l.1924-.7265c.2354.0161.5264.0337.7451.04l.1534.0034c.2138.0049.415.0108.58.0064.5762-.0132,1.68-.1162,2.2217-.1821.5664-.0679,1.6446-.2364,2.1748-.34l.27-.0493a11.2829,11.2829,0,0,0,2.0362-.5064,2.3663,2.3663,0,0,0,.8017-.5263,2.5084,2.5084,0,0,0,.4737-.8638,18.88,18.88,0,0,0,.43-2.584,2.51,2.51,0,0,0-.1641-.95,2.4139,2.4139,0,0,0-.6065-.789,12.8776,12.8776,0,0,0-2.0224-1.271l-.1651-.0909c-.5224-.2841-1.3056-.7089-1.7548-.9248-.5176-.2456-1.5157-.6777-2.0127-.8711-.2256-.09-.52-.1836-.8291-.2773-.1846-.0581-.4112-.1172-.6045-.1646l.0537-.7543c.206-.02.4521-.0455.667-.0772.3095-.0459.5986-.09.8232-.1411.53-.1182,1.584-.3955,2.125-.56.5537-.1655,1.5879-.5166,2.0918-.71l.3018-.1182a11.7143,11.7143,0,0,0,1.85-.82,2.03,2.03,0,0,0,1.0293-1.5679,25.3472,25.3472,0,0,0-.0244-2.6562,2.41,2.41,0,0,0-.3311-.9209,2.3838,2.3838,0,0,0-.7441-.6617,11.8247,11.8247,0,0,0-1.9141-.7954l-.2529-.0888c-.5225-.187-1.5576-.52-2.0928-.6709-.5234-.1465-1.5811-.4019-2.1377-.5161-.2393-.0479-.5459-.0894-.876-.1333-.1875-.024-.414-.0416-.6084-.0542L138.45,66.61c.2373-.0664.5322-.1514.75-.2246.2363-.08.459-.1543.6436-.2227.5371-.209,1.53-.6821,2.0322-.936.5068-.2559,1.4609-.7823,1.9238-1.0606l.2471-.1455a11.8111,11.8111,0,0,0,1.7265-1.1582,2.4489,2.4489,0,0,0,.5752-.7671,2.2669,2.2669,0,0,0,.1582-.9746,17.9637,17.9637,0,0,0-.4863-2.5928,2.5522,2.5522,0,0,0-.4717-.8315,2.475,2.475,0,0,0-.8418-.5293,11.8912,11.8912,0,0,0-2.0508-.4624l-.25-.042c-.57-.1-1.6425-.2407-2.1855-.2959-.582-.0571-1.67-.124-2.1875-.1348-.2041-.0078-.459.0025-.7305.0147l-.1582.0068c-.1924.0093-.4228.0313-.6181.0528l-.209-.712c.1924-.0971.4267-.2182.623-.3261.2666-.1451.5147-.2818.7041-.4024.458-.2915,1.3545-.91,1.81-1.249s1.2939-1.0181,1.7158-1.3809l.1641-.144a12.45,12.45,0,0,0,1.5478-1.48,2.0054,2.0054,0,0,0,.4161-1.8525,19.1387,19.1387,0,0,0-.92-2.4517,2.3452,2.3452,0,0,0-.6211-.7505,2.3177,2.3177,0,0,0-.9-.3691,11.3765,11.3765,0,0,0-2.0781-.1l-.292.0019c-.5693.0044-1.6582.0479-2.1982.0879-.5664.043-1.6485.1646-2.1817.2452-.2392.0346-.541.102-.8652.1752-.1875.0425-.4121.1041-.6025.1583l-.3233-.6792c.1631-.1153.3535-.253.5059-.3736.2539-.2012.4922-.3931.67-.5561.4121-.3794,1.1885-1.146,1.5654-1.5474.3663-.3882,1.0684-1.1934,1.4424-1.6543l.1719-.208a11.7287,11.7287,0,0,0,1.2334-1.6856,2.4553,2.4553,0,0,0,.2881-.94,2.4028,2.4028,0,0,0-.1865-.9482,18.4571,18.4571,0,0,0-1.3428-2.2715,2.4022,2.4022,0,0,0-.7354-.6274,2.4664,2.4664,0,0,0-.9531-.2076,12.3632,12.3632,0,0,0-2.0879.2666l-.2627.0489c-.5527.0981-1.6172.3291-2.1455.4653-.53.1333-1.5781.4268-2.1465.6328-.1826.0669-.4091.1607-.6777.272-.1992.0835-.458.2041-.67.3047l-.4424-.626c.1445-.1436.3135-.3159.4453-.4663l.1094-.125c.167-.1909.3222-.3692.4345-.5171.3467-.4429.9854-1.3452,1.2823-1.7979.3144-.48.8672-1.4052,1.1308-1.8769l.167-.293a11.418,11.418,0,0,0,.8955-1.83,2.5,2.5,0,0,0,.11-.9692,2.4527,2.4527,0,0,0-.3467-.9,18.7022,18.7022,0,0,0-1.72-2.0078,2.4648,2.4648,0,0,0-.8389-.4849,2.5283,2.5283,0,0,0-.9648-.0385,10.7565,10.7565,0,0,0-1.93.5976l-.3281.1211c-.5215.19-1.5235.6035-2.04.8345-.5244.2383-1.5.7226-1.9726.9785-.212.1157-.4737.2827-.751.4614-.1611.1035-.3526.2373-.5137.3531l-.5312-.5191c.12-.1777.2656-.3984.3886-.5986.1543-.2539.3-.4927.3975-.6856.2578-.4941.7256-1.4819.9434-1.9926.205-.4756.5429-1.38.7441-1.92l.0352-.0962a12.8077,12.8077,0,0,0,.68-2.2768,2.3264,2.3264,0,0,0-.0605-1.0171,2.41,2.41,0,0,0-.49-.8081,18.6135,18.6135,0,0,0-2.0469-1.6812,2.5031,2.5031,0,0,0-.8985-.3252,2.3328,2.3328,0,0,0-.9658.1329,11.1185,11.1185,0,0,0-1.8574.9521l-.2441.1411c-.502.2949-1.4229.8765-1.8594,1.1748-.4736.3247-1.3428.9522-1.794,1.3286-.0941.0791-.202.1758-.3145.2781a6.0985,6.0985,0,0,1,.1512-1.1952c.4621-1.5542,1.39-2.9122,1.3564-3.9038-.0223-.6321.0264-1.2.0034-1.7718-.02-.5172.1057-1.6972-.9268-1.5036-1.1832.225-.4991-1.6781-1.945-1.1828-1.307.4492-.7263-1.1012-1.7366-1.4035-.8252-.2489-1.5708.9082-1.9219.39-.6739-.9913-1.1291-.7188-1.5485-.4534a3.461,3.461,0,0,0-1.3822,2.7748l-.0147.0408c-.7078-.2084-1.9706-.4579-1.7082.4934.2193.7928.2607.8858.5125,1.1621Zm9.4949,1.392c.3312-.0325.3312.9916-.0321,1.3571-.34.3383-.342,2.09-1.379,1.985.1533-.5308.3051-1.1885.3945-1.5788.04-.1714.09-.4009.1412-.6523C111.2445,15.5592,111.8837,14.473,112.12,14.4482Zm-1.2356,5.7551c-.0056.0722-.0528.2194-.112.4576l-.9567-.6651s.3024-.6112.456-1.0054c.0514-.1279.1008-.2526.1458-.37A3.2106,3.2106,0,0,1,110.8843,20.2033ZM104.2208,13.44c.2031-.7842.6275-.7294,1.1771-1.9424.3186-.7055.03-1.3786.7449-1.43.2963-.02.4.1914.6372.2677.1978.0615.3685-.1582.67-.2677.6116-.2215.9419.1428,1.0571.6583a.655.655,0,0,0,.7652.418c.515-.16,1.1669-.3827,1.2979.7116.05.4089.4882.5837.6131.6864.2861.2306-.5259,1.3723-.8,1.5912-.493.3956-1.102,1.0548-1.5621,1.1257a.4228.4228,0,0,1-.4478-.2.5376.5376,0,0,0-.2869-.2661.5236.5236,0,0,0-.4421-.0048c-.3061.1638-.5269.1935-.7319-.06-.0612-.0781-.1008-.2224-.2651-.2733-.3427-.1046-.4734.0067-.88.09a.3724.3724,0,0,1-.4726-.3714c-.0192-.2885-.2669-.3769-.5142-.264C104.3114,14.1265,104.1317,13.78,104.2208,13.44ZM6.8444,62.2052a2.2658,2.2658,0,0,1-.4443.8833,11.5862,11.5862,0,0,1-1.028,1.1251c-.0533.0475-.0861.0815-.1341.1261-.6923.684-.6863.5458-1.1355.1879a9.5652,9.5652,0,0,1-.8-.8434c-.3084-.3925-.3348-.6485-.2714-.79a1.4372,1.4372,0,0,0,.2442-.9763c.011-.6055-.3329-.8871-.5142-1.467a2.4941,2.4941,0,0,1,.4376-1.84c.3039-.3783.3216-.2564.396-1.051a1.5812,1.5812,0,0,1,.7559-1.2673c.4038-.3138.8372-.6392,2.2031-.2564a3.2614,3.2614,0,0,0,1.5625-.3405l6.2366-3.2229a29.5183,29.5183,0,0,0,4.8983-2.4848,18.4357,18.4357,0,0,1,5.2977-2.3281c1.5521-.238-1.3519,3.1934.5417,2.0789a8.6786,8.6786,0,0,0,2.329-1.681,8.14,8.14,0,0,1,2.0133-1.0945c.8033-.4,3.2292-1.9748,4.0507-2.3851.6769-.34,2.8684-1.2915,3.5872-1.5384,1.1986-.4107,7.9482-2.7053,7.8546-1.8366-.0707.6618-.8589,1.8676.5138.9786,1.0268-.6679,1.416-1.0489,1.5924-1.6861.633-1.1906,2.2179-2.0982,4.0023-2.91,2.1863-.9928,5.8078-.8468,6.4964-1.1291.5486-.2206.5727-.4247,1.15-.5708a4.0938,4.0938,0,0,1,1.9956.2548A1.714,1.714,0,0,1,61.41,37.18a30.6931,30.6931,0,0,0,3.3874,1.6082c1.1235.4477,6.5865,3.67,8.45,2.61L68.5507,38.758c-1.4553-1.4659-1.7124-1.472-2.5875-2.281.3088-.2031.1736-.6791,2.754-1.7747a14.4271,14.4271,0,0,0,3.1953-1.9008l.0128.0121s2.5906-1.5006,2.5675-.8551a1.6284,1.6284,0,0,0,.7211,1.4776c-.0359-.037-.0759-2.35,1.2507-3.1836.4818-.3036.8528-.36,1.4769.188.7489.6591.4568,2.6933.3069,3.2606a1.8694,1.8694,0,0,0,.4616,1.395c.322-.66.6981-.9982.7117-.7509.0294.4835.2122.7388.4767.7614s.2025-.1461.9654-.3054c1.2508-.262,1.0208.1521,1.743-.19.72-.3417.9083-.0375,2.31,0,1.4044.0381.9812-1.7736,1.4044-1.4576.4791.3548.1139,1.0714,2.3825,1.6659a1.7691,1.7691,0,0,1,.234.0782,9.87,9.87,0,0,1-.8951,2.0647c-.23.41-.35.2027-.8191.7882-.4629.5844-.1461.8778-.4055,1.3742-.2627.4953-.5591,1.8242-1.054,2.0846-.4984.2643-.9026-.4477-1.5192-.3888a.39.39,0,0,0-.3245.1431.2284.2284,0,0,1-.1609-.0876c-.3813-.3813-.33-.5757-.0412-.7015.3119-.1389.4119-.0282.19-.3046-.2771-.3353-.7523-.0285-.8345.12-.1806.3257-.143.9006.6272,1.3063a.4274.4274,0,0,1-.3616.2837c-.5255.0876-.5606.7762-1.3421.6716-.5274-.07-.6588.6512-1.96.0755a8.04,8.04,0,0,1-2.754-2.3894,4.77,4.77,0,0,0-1.6286-1.2215,9.2647,9.2647,0,0,0,2.0628,3.0106c1.1823,1.1609,2.7985,2.141,3.9748,1.574a8.7054,8.7054,0,0,0,.826-.3761c.5565-.2914.1978-.4632.55-.55.3492-.0857.9721-.4681.9985-.6727.0287-.2073.2288-.3281.5248-.3281.2937,0,.3134.3764.775.4376a1.3182,1.3182,0,0,0,1.0416-.3553c.4092-.3537.327-.53.9419-.7569a9.5761,9.5761,0,0,1,4.2784-.857c2.854.1567,3.381.7445,4.2871,1.3776.9071.63,1.0457,1.9917,1.3228,2.61.0646.137.342.0487.342.0487a3.89,3.89,0,0,0,.56-1.8594c-.0849-1.0279,1.3965-1.8214,2.2388-1.9434,1.3541-.1982,2.5708-.8346,5.1315,1.4187.0552.0574.3262-.0551.3779-.0785a12.1125,12.1125,0,0,0-.6105-1.6037,7.4737,7.4737,0,0,1-.5847-3.6857,17.9145,17.9145,0,0,1,.5795-3.3285c.2416-1.2625.6437-2.0492.738-2.6019.1847-1.1069.276-1.8638.3379-2.5527q1.9588,1.3511,3.796,2.8638a6.699,6.699,0,0,1,.3367,1.6286c.0868,1.5085.1937,2.6279.2975,3.7869.3639,4.076.1658,6.5827.2216,7.2253.0906,1.0563.0422,1.6444-.6482,2.1039a17.5389,17.5389,0,0,1-3.7921,1.3205c-.9457.3239-3.6178,2.2836-7.4338,2.2519a26.44,26.44,0,0,0-5.0515.518c-1.1257.2155-1.3564-.5927-1.1533-1.0345a11.3548,11.3548,0,0,0,.3126-1.1272,6.5727,6.5727,0,0,0,.3918-2.44c-.0683-.0241-.1777-.1-.2918.0314a23.6552,23.6552,0,0,0-2.5958,4.0734,15.2615,15.2615,0,0,1-2.5883,2.9412c-.8785.8234-1.2568,1.84-2.2164,2.5229-.8249.5913-2.3341,1.25-3.1847,1.7955-.46.2952-2.6218.7773-2.8624,1.2115-.3525.6331.2727,3.1961.395,3.9458l.1055.97c.3413,1.1989-1.3767,2.7548-1.5091,2.83-.51.2868-.5441-.8435-.4573-1.6566L78.2982,59.27c-.1374-.93.7633-1.8162.621-2.6535-.2-1.1937.1695-2.0466-.0936-3.603-.0879-.5459,1.2371-2.9632.8072-3.3426-1.0307-.9019-1.9069,2.5777-2.038,5.2577-.0407.823-.644.7629-1.2049,1.3387-.4469.4588-.4791,2.04-.95,2.4009A14.7622,14.7622,0,0,1,71.8246,60.7c-.4.136-2.5755.4062-2.9466.8812-.3473.4447-1.5742,3.0056-.7867,2.737,1.8823-.87,7.4589-3.9292,8.211-3.2421.8984.8094.97,3.5079.97,3.5079a2.9151,2.9151,0,0,0-.71,1.0087c-.4784,1.0253-.06.626.0262,1.7663.0521.6863-2.9769,1.7326-4.5964,2.5533-.34.7315.9267.647,2.0869.351,1-.2522,2.1086-.8482,2.32-.5689s.559.7716.3173,1.0326c-.4075.44-.7637.3911-1.1884.8146-.0972.5073,1.6306.1655,1.3564.706a16.1763,16.1763,0,0,1-3.6887,1.2941c-1.1477.2929-2.63-.33-3.7756-.5595a13.9251,13.9251,0,0,1-1.6939-.5527c-.7131-.2453-1.2624.2544-1.95.5981-.8712.434-1.5848-1.95-1.8521-2.4819-.4768-.9544-1.37-2.3391-.5655-3.1477a4.0118,4.0118,0,0,0,1.0371-2.6c.1623-1.7494.1459-2.7085.3071-4.4647.1247-1.327-1.348-3.2341-.3929-3.6813a11.4657,11.4657,0,0,1,2.8009-.4051,10.1341,10.1341,0,0,1,2.9982.02c1.5682.7833,3.9368,1.7767,3.9979,1.0884.0365-.41-3.5222-2.3067-4.8265-2.4811-1.4146-.188-1.6.0938-2.8906-.55-1.1732-.5855-1.3686-1.129-2.31-2.0758-.8513-.8509-1.6807-1.729-2.5308-2.5777-.486-.4843-2.44-2.43-1.9318-2.94,1.1182-1.1208.9981-.46,1.5025-1.9747.128-.3768-.6225-1.0469-.69-1.45-.1117-.69-.2284-1.3813-.3424-2.0714-.05-.2835.0966-.7185-.1242-.7407-.088-.0089-.45.1351-.4785.2223a17.51,17.51,0,0,1-2.7289,4.5892c-.72.7354-2.5917,1.1374-3.5351,1.6071-2.4708,1.2333-4.9991.9-7.7172,1.2469a9.6253,9.6253,0,0,1-3.8605-.82c-.58-.2391-.4635.419-.4264.483.7583,1.31,1.525.386,3.078,1.8244a23.5744,23.5744,0,0,1-7.6922,2.4048c-1.2983.1868-2.503.0362-3.7982.25-.3745.0656-1.6984.53-1.8363.111-.2117-.6331.7018-1.9816.0412-2.0356-.4863-.0453-1.8472,1.3564-2.7623,2.1043-1.3194,1.0786-.9068.7044-1.6871,1.0461a33.8938,33.8938,0,0,1-5.2521,2.06,40.9154,40.9154,0,0,1-5.6245,1.0585c-1.1582.1314-2.3142.2632-3.4747.39-.3417.037-1.0533.0151-1.6936.0563a2.2614,2.2614,0,0,0-1.0876.2563,1.07,1.07,0,0,0-.2986.4851,4.525,4.525,0,0,1-.356.9174,6.0163,6.0163,0,0,1-.7788.7784,3.19,3.19,0,0,0-.66.9514,6.438,6.438,0,0,0-.35,1.1492C6.9384,61.8148,6.8969,62.002,6.8444,62.2052Zm96-23.7632c-.2137.1464-.7279-.0944-2.6917.0812a7.966,7.966,0,0,0-2.21.5658c-.25.1442-1.17.5452-1.17.5452a7.7076,7.7076,0,0,0-4.3569-1.5969,9.3728,9.3728,0,0,0-2.5717.1378,3.2175,3.2175,0,0,1-2.2216.311c.029-.069.0589-.1415.0988-.22.1885-.3775.8185-.5911.9642-.9879a3.1013,3.1013,0,0,1,.7528-1.4293,2.8429,2.8429,0,0,0,.2594-.327,8.9014,8.9014,0,0,1,.5651,1.5494c.2061.2428.9061-2.1058.9415-3.2168.0838-.2745.7834,1.1129.8121,1.1129.2087,0,.46-1.6535.46-3.14,0-.79-.4078-2.2442-.467-3.2066a5.8048,5.8048,0,0,0-1.4429-3.1069A27.3141,27.3141,0,0,0,87.1193,21.72c-1.4425-1.4014-4.7383-1.2016-6.03-.8623a7.4549,7.4549,0,0,0-2.4505.9035c-2.4614,1.8637-3.6567,2.1333-4.0032,2.9827-.0423.1114,1.0416-.1782,1.0337.1057-.0046.1955-1.7529.9581-1.9057,1.68-.0375.1745,1.3994-.2877,1.2008.1944-.2351.4206-1.1.5546-1.3971,1.09-.1247.219.713-.02.6029.53a1.801,1.801,0,0,1-.4339.6857A7.8168,7.8168,0,0,1,72.4,30.2861a31.5011,31.5011,0,0,1-3.57,2.6347,31.0713,31.0713,0,0,1-4.0836,1.78c-.2843.0747-1.2114.3258-1.2114.3258A16.2476,16.2476,0,0,0,56.19,33.9522c-8.2038.6372-10.91,4.68-11.3493,4.8541a25.6647,25.6647,0,0,0-6.8052,1.817c-1.3039.59-2.9072,1.28-4.1957,1.8792-1.601.7411-3.3849,2.013-5.1309,2.3036a11.59,11.59,0,0,0-2.77.5331A56.4315,56.4315,0,0,1,67.1467,18.1938a57.108,57.108,0,0,1,7.2642-.4768,56.0156,56.0156,0,0,1,30.3165,8.8494,18.0276,18.0276,0,0,1-1.0389,5.9482C102.9663,34.224,102.4147,36.8851,102.844,38.442Zm9.7667,1.2141a26.8987,26.8987,0,0,0-.0936-3.9307c-.1986-1.4527-.4587-2.6374-.6769-3.7624a55.22,55.22,0,0,1,18.4659,41.1479,55.81,55.81,0,0,1-43.9532,54.33,21.2662,21.2662,0,0,1,1.191-2.1911c1.0843-1.4927,1.04-1.5327,2.201-2.9854,1.2458-1.5546,2.9084-2.0023,3.9967-3.6566a23.0291,23.0291,0,0,1,1.7359-2.7892c.6459-.6478,2.2356-3.3009,2.8854-3.9435,1.4292-1.4331,1.8714-3.871,3.1794-5.4a5.6,5.6,0,0,0,1.6188-3.0005,3.2586,3.2586,0,0,0-.1827-3.1469c-.6339-.7778-.6942-1.412-1.3587-2.1286a10.7908,10.7908,0,0,1-1.4557-2.6184,7.8948,7.8948,0,0,0-1.72-1.9382c-1.53-1.5252-3.05-3.0647-4.5652-4.6-.7125-.7234-1.4332-1.4315-2.1622-2.1345-.6078-.5874-1.4549-.7422-2.0551-1.3636-1.5453-1.6021-5.2645-3.8605-6.8482-5.4256-.5591-.5558-1.0827-.8714-1.2118-1.6506q-.2989-1.7679-.59-3.5419c-.33-1.9819.225-2.73.0921-4.7348-.0792-1.17.5806-1.6807.5-2.8525a7.1318,7.1318,0,0,1,.6723-3.0171c1.1933-1.6906.89-3.5653,1.1737-5.5318.0782-.5391-.114-1.398.3363-1.65a19.9546,19.9546,0,0,1,2.058-1.3235c1.6832-.7437,2.7754-3.27,3.7238-3.6739,1.413,0,6.7613-1.7513,9.846-1.5679a15.6649,15.6649,0,0,0,7.6137-2.1594,26.5623,26.5623,0,0,1,4.46-1.9317,1.6713,1.6713,0,0,0,1.3614-1.9367C112.8255,44.2912,112.6727,41.8872,112.6107,39.6561ZM56.8062,74.9539c-.5165,1.5109-.8661,3.7563-2.2417,4.7537-1.1164.8132-1.3724.6441-2.0281,1.9216a15.3755,15.3755,0,0,1-1.4878,2.2463,6.4892,6.4892,0,0,0-.9524,2.6275c-.119.5949-.11,1.9426-.5826,2.3639-3.122,2.7672-6.3584,5.3381-8.8716,8.6852a11.0737,11.0737,0,0,0-1.1152,1.763c-.3945.76.2065,1.0088-.5916,1.4225a12.217,12.217,0,0,0-3.8978,3.375c-.5067.6856-.6463,1.6792-1.4866,2.099q-1.311.6557-2.6118,1.3312a4.5725,4.5725,0,0,0-.5285.3163,54.87,54.87,0,0,1-11.6664-27.401A56.3142,56.3142,0,0,1,18.28,73.385a54.7935,54.7935,0,0,1,2.0189-14.8161c.0148-.0536.1273-.4553.2009-.724.5436-.0812,1.1314-.1805,2.0873-.3742l3.6449-1.37c1.2583-.6417,3.3255-2.4089,4.2482-2.2782a16.8169,16.8169,0,0,0,4.5967.177,25.26,25.26,0,0,0,5.6948-1.267,18.608,18.608,0,0,0,2.5924-.9528c.8094-.4108,1.3746-.9718,2.11-1.4025,1.5422-.9193,4.4675-.9653,6.197-1.2356,1.2125-.1907,1.18.6553,1.7256,1.729.3948.769.7818,1.5422,1.1677,2.3153a11.7315,11.7315,0,0,0,.7033,1.4082c.1831.265.6074.4749.6731.7965q.3233,1.5934.647,3.1927c.4146,2.0337.8076,4.0565,1.15,6.1063.1771,1.0518,1.4025,4.8156.8184,5.4038-.1717.1706-2.0041,1.7811-1.8936,2.0062C57.3222,73.4137,57.2856,73.5534,56.8062,74.9539Zm3.5546-2.7883a6.87,6.87,0,0,0,1.7835.51c.7059.18,1.3877.4086,2.0838.635.4459.1517,1.13.897,1.4455.9536.6037.11,1.4029-.9159,2.1421-.7293.7719.2,1.7177.5587,2.4954.7392a49.6024,49.6024,0,0,0,6.5612.9716,2.776,2.776,0,0,1-2.7464,1.33c-.7015-.2454-2.5762-.5716-3.2787-.8079-.63-.2046-1.72-.0438-2.2093-.4916-.8147-.758-1.7573-.0158-2.2152.0159-1.1655.0823-1.4346-.4583-2.899-1.1861a23.15,23.15,0,0,0-5.3823-1.3387C58.9542,71.95,59.3208,71.6446,60.3608,72.1656ZM80.2786,90.8844a5.3537,5.3537,0,0,1-2-1.1341c-.562-.5632-1.5574-.5935-2.2219-1.0872,1.42-1.3538,1.13-2.3633,2.3627-3.1424.56-.355.85.2045,1.6958.9928,1.13,1.05,4.6673,2.3233,5.9082,3.22A29.789,29.789,0,0,0,93.03,92.8506c.2086-.85-1.8641-1.7518-2.9294-2.5619a34.7657,34.7657,0,0,1-3.0893-2.0839c-1.2432-1.1937-2.9231-1.1824-5.34-2.6282-.9562-.5694-2.1776-2.3819-2.0646-3.3607A9.4783,9.4783,0,0,1,82.181,84.12a18.4239,18.4239,0,0,0,5.0258,2.6086c.3512.1125,1.5184.2937,1.69.6244.2578.4968.4319,1.16.9351,1.4187a35.1351,35.1351,0,0,1,3.149,1.9359,9.1226,9.1226,0,0,1,2.1849,1.4829c.6667.8948,1.3357,1.7834,2.0013,2.6857.6191.8229,3.58,2.8178,2.4791,3.9179-.1635.1615-.9569,1.1249-1.1129.9649a3.4854,3.4854,0,0,0-.9113-.7633c-.8106-.4063-4.64-1.4475-5.4838-1.7744-1.9159-.7415-2.2708-1.12-3.0961-.8282-1.989,0-5.84-1.25-7.7235-1.8967a14.0959,14.0959,0,0,1-3.12-1.205,43.378,43.378,0,0,1-3.9095-2.358,15.9111,15.9111,0,0,1,4.3751,1.0676c.8724.2915,2.8245.7332,3.4788,1.387a2.4181,2.4181,0,0,0,2.1518.68C84.1884,93.3413,82.1236,91.5005,80.2786,90.8844ZM79.0464,78.877c-.4092.0884-1.0231-.0784-1.35,1.2127-.208.8033-.8781,3.4044-1.4394,4.0115-1.4334,1.541-1.8808,3.6007-3.4211,5.3592-.7535-1.5124-1.7362-1.4013-2.1647-1.86A19.4557,19.4557,0,0,1,72.3383,85.11a10.0457,10.0457,0,0,0,1.7023-2.5293,22.2859,22.2859,0,0,1,1.8634-3.6287,7.879,7.879,0,0,1,.8834-.9143c.9275-.931,2.8083-.5482,3.392-1.7139a18.03,18.03,0,0,0,.5451,3.242A3.5528,3.5528,0,0,0,79.0464,78.877Zm-5.8292-1.4035a4.5618,4.5618,0,0,0,1.8967.3238c.3627.8767-.91,1.8076-1.3663,2.5385-.4424.7075-.8449,2.4018-1.37,3.0889a21.6165,21.6165,0,0,0-2.6812,3.6491c-.8966-.8971-.5035-1.66.0415-2.7891.3194-.6683,1.002-.8895,1.4516-1.4807a9.6153,9.6153,0,0,0,1.3194-2.7468C72.7411,79.1391,72.9843,78.3924,73.2172,77.4735ZM69.2605,93.5844c.3012-.1412,1.18-.7505,1.4368-.5157.3548.3323.7074.6637,1.0476,1.0065a7.1249,7.1249,0,0,0,2.08,1.5146c.393.1962.9559.7052,1.3409.835.5746.1971.8128.4259,1.3909.623a2.73,2.73,0,0,1,1.0294.635c.2359.24,1.1114.3133,1.4232.39a5.311,5.311,0,0,1,1.4222.6447c.3647.2251.4247.4674.8354.6562a15.7118,15.7118,0,0,1,2.532,1.2307c.655.4771,2.14,1.245,2.8193,1.7071a6.5666,6.5666,0,0,1,2.1133,2.2545c.2126.3557-1.9781,2.1919-3.0295,2.89-1.6223,1.0827-2.6174,3.0632-3.5173,4.8012a15.3536,15.3536,0,0,0-1.4123,2.5023,13.9528,13.9528,0,0,1-1.1684,2.65c-.8664,1.7426-1.7159,3.4815-2.5823,5.2173-.43.8539-1.111,1.4655-1.4957,2.3927-.1982.4666-1.1767,2.2643-2,3.7533A54.9982,54.9982,0,0,1,40.35,117.4806a7.8464,7.8464,0,0,0,2.0257-1.2232q1.3732-1.3954,2.7476-2.7847c2.6279-2.67,4.0161-4.5468,7.5787-5.7374.9276-.3089.7319-1.4211,1.6943-1.729a4.9526,4.9526,0,0,0,2.5682-1.5237c1.2284-1.2323,2.7755-2.07,4.0327-3.3267a29.6823,29.6823,0,0,0,3.9831-4.676c.5739-.8554,1.47-.9959,2.39-1.3016C68.2166,94.8952,68.496,93.9416,69.2605,93.5844Zm10.7528,28.5644c.3363,1.01,1.1608.746.8977,1.7774-.4161,1.6339-.9461,2.4989-.1416,2.5659.9207-.92,1-1.78,1.5784-2.9389a9.125,9.125,0,0,0,.6939-3.0511c.16-1.01.7381-1.467,1.2054-2.367.646-1.2458,1.4489-1.2534.9895-2.6132-.9242-2.7793-.1151-4.0145,1.4508-5.5781a20.7839,20.7839,0,0,1,3.1538-2.2123c.4587-.1518.7184.3729,1.0351.6923.4213.4191.0993,1.1567.6535,1.37.7834.2982,1.7427.33,2.0525-.3969-.5485-1.3007-1.1608-1.875-1.7453-3.0422-.2407-.48-.1615-1.0125-.4276-1.4829a16.1243,16.1243,0,0,0-1.4018-2.284,7.9456,7.9456,0,0,0-3.3542-2.5528c-1.4432-.7467-4.164-2.6834-4.5087-3.3289,1.3833.3254,5.2,1.3975,6.3574,1.1642a11.5363,11.5363,0,0,1,2.8337.4425c1.7675.7361,5.9522,1.4119,5.9225,2.3882a6.7166,6.7166,0,0,0-2.1205,1.15c-.1288,1.5129,6.6159-.298,6.4864.72a8.5537,8.5537,0,0,1-1.1144,2.896c-.6161,1.1922-1.1933,2.2213-1.8009,3.4745-.2089-.7595-.0134-1.9938-.2464-2.4665-.779-.7044-.9253,2.7982-1.0313,3.22-.2337.9023-1.5841,1.9669-1.8525,2.8586a9.7625,9.7625,0,0,1-.84,1.99c-.6859,1.0208-3.4992.5315-4.3694,1.4036-2.0684,2.0642-3.92,2.558-4.3863,4.5211-.3481,1.4595-.7762,4.44-1.193,5.881a13.0109,13.0109,0,0,1-.72,1.5441q-1.3035.23-2.6294.4031-2.377.3091-4.728.4168A12.2143,12.2143,0,0,1,80.0133,122.1488Zm-59.624-4.9749.148-.2605c.2375-.4242.7683-1.3137,1.051-1.7464.27-.4062.8668-1.2533,1.182-1.6572.1057-.1375.2768-.3338.4584-.5384a9.0608,9.0608,0,0,0,.9351-1.1725,1.4061,1.4061,0,0,0,.2058-.589,1.34,1.34,0,0,0-.144-.6433,17.4166,17.4166,0,0,0-1.4307-2.0038,1.4787,1.4787,0,0,0-.5218-.3474,1.4,1.4,0,0,0-.6931-.006,9.67,9.67,0,0,0-1.4961.5406c-.2212.0922-.4281.18-.5734.2318-.4368.1593-1.4081.4335-1.9379.5693-.4794.1239-1.4824.3413-1.991.43l-.2812.0536c-.4783.0862-1.6335.23-1.6335.23l-.0638-.04-1.0053-1.7.0019-.071s.7248-.9929,1.0219-1.3545l.148-.18c.3174-.39.9943-1.1657,1.342-1.5372.3379-.3624,1.0711-1.088,1.4539-1.4391.1261-.1185.336-.2831.556-.4583a8.7761,8.7761,0,0,0,1.1054-.977,1.3111,1.3111,0,0,0,.3085-.5436,1.4227,1.4227,0,0,0-.0318-.6546,17.4822,17.4822,0,0,0-1.0623-2.2237,1.3362,1.3362,0,0,0-.4722-.4431,1.3113,1.3113,0,0,0-.649-.1155,8.5535,8.5535,0,0,0-1.4471.2476c-.2789.0634-.5413.1223-.712.15-.4783.0718-1.501.185-2.0279.225-.5075.0393-1.5377.0793-2.0368.0793l-.2681.0038c-.46.0037-1.67-.0551-1.67-.0551l-.0465-.04L7.41,97.2682l.0094-.0552s.8438-.82,1.2165-1.1392l.2053-.1767c.3976-.3435,1.2009-.99,1.5916-1.2813s1.2364-.8789,1.68-1.1613c.1427-.092.3749-.2174.62-.3511a9.06,9.06,0,0,0,1.2646-.7724,1.389,1.389,0,0,0,.3968-.487,1.4784,1.4784,0,0,0,.074-.6961,17.9547,17.9547,0,0,0-.6493-2.3277,1.4257,1.4257,0,0,0-.3885-.5157,1.4435,1.4435,0,0,0-.6312-.2342,9.5941,9.5941,0,0,0-1.4678,0c-.2809.0122-.5452.0243-.7169.02-.5164-.012-1.552-.0785-2.0348-.1253-.5161-.0521-1.5388-.191-2.025-.2755l-.2386-.0416c-.4587-.074-1.6618-.35-1.6618-.35L4.6223,87.26l-.3738-1.9662.019-.0483s.9789-.6674,1.3994-.9151l.2348-.1388c.4433-.2674,1.3452-.7649,1.7868-.9846.4923-.2507,1.3984-.6818,1.8306-.8442.1442-.0573.3526-.1276.5746-.2016a9.9488,9.9488,0,0,0,1.5037-.59,1.2286,1.2286,0,0,0,.4892-.4259,1.2606,1.2606,0,0,0,.1824-.6056,17.5817,17.5817,0,0,0-.2247-2.4478,1.1638,1.1638,0,0,0-.8713-.9105,9.4922,9.4922,0,0,0-1.4459-.259c-.2782-.0355-.5417-.07-.71-.1073-.4953-.1-1.4972-.34-1.9861-.4763-.4723-.1337-1.4519-.4493-1.9408-.6244l-.285-.1c-.4549-.1616-1.52-.6116-1.52-.6116l-.0317-.0641-.0189-1.973.037-.0611s1.0314-.4651,1.4735-.6335l.3163-.12c.46-.1789,1.43-.5059,1.9243-.6569.496-.148,1.4931-.4107,1.9717-.5165.1718-.0369.44-.077.7211-.1193a8.7565,8.7565,0,0,0,1.4368-.2868,1.1513,1.1513,0,0,0,.8449-.93,17.5691,17.5691,0,0,0,.1922-2.4281,1.1608,1.1608,0,0,0-.6879-1.0465,8.7059,8.7059,0,0,0-1.3983-.5165c-.2677-.0838-.5207-.1623-.6784-.2257-.4515-.1781-1.4036-.5882-1.8691-.8117-.0808-.0385-.13-.0626-.2359-.1163.023-.0347.0459-.0686.07-.1049.1305-.19.2638-.39.3937-.5814a15.5765,15.5765,0,0,0,1.4425-2.2183c.0317-.0626.0574-.1321.0864-.1948.2794-.6478.7475-1.58,1.4449-1.8173a17.2373,17.2373,0,0,1,3.0868-.812c.58-.0918,2.5687-.3172,3.5941-.46a1.5178,1.5178,0,0,1-.0449.264A57.46,57.46,0,0,0,15.442,73.388a58.0989,58.0989,0,0,0,12.5535,35.997,6.2162,6.2162,0,0,0-1.5191,1.165c-.7.6871-1.7218,1.356-2.04,2.3112a4.96,4.96,0,0,1-1.2563,2.3527c-1.2614,1.2639-1.98,2.598-3.2139,3.8726a4.2789,4.2789,0,0,1-.316-.4621S20.1542,117.5952,20.3893,117.1739ZM19.11,123.9194c.5108-.7293,2.2017-1.3522,2.4271-2.0258.25-.75.4719-1.5025.795-2.2235.0525-.1186.1043-.2409.1692-.36.1045-.2076.22-.5.345-.8071a3.8422,3.8422,0,0,1,.8585-1.4784c.9476-.7059,1.6917-1.063,1.9367-1.5719.1589-.3678-.3859-1.8861.7954-2.6238,1.0034-.6169,4.8439-2.4652,5.5283-3.3818.17,1.3274-1.062,2.6646-.8931,3.9949.1751,1.3787-1.2857,3.9666-.1526,3.7638,1.7555-1.7509,2.6619-4.7619,2.9246-7.1132.1349-1.1846.0314-1.8559.8608-2.684a3.4065,3.4065,0,0,1,2.5157-1.0488c1.3629-.2144,2.238.0045,2.8574-1.233.4648-.9355,3.1947-1.4829,4.109-1.9435,1.62-.81,3.3982-1.4954,3.063-2.4675-.4022-.2346-1.8916.8344-3.4961,1.156-1.681.3443-1.8282.5414-3.52.1239.5663-.5671,1.98-2.2779,2.7691-2.463.8785-.2031,4.1146-1.1672,5.9625-1.7819,1.4542-.4862,2.6151-2.3451,3.7-3.4308,1.2353-1.239,4.9553-3.7639,3.7141-3.7125-3.3283.145-7.8184,3.2663-10.8438,6.2871-.21-.638-.5675-1.1574-.0616-1.6648.612-.6108,1.2431-1.2012,1.8612-1.812,1.1756-1.1515,2.3043-2.35,3.469-3.5133a14.0373,14.0373,0,0,1,2.105-1.4081c.5908-.4259.96-1.2005,1.6676-1.4429,1.2245-.4175,1.7075-.48,2.4093-1.5267.6889-1.0336.8429-.9626-.0389-1.846-.2764-.2749.6115-.857,1.54-1.4625a19.9506,19.9506,0,0,0,3.88-3.6254c.9272.925,2.48,3.0168,2.9248,2.665.2721-.7323-.5961-1.4655-.9279-2.4629-.2949-.8788-1.2157-1.4693-1.7253-2.2379-1.0034-1.5055-3.087-.8555-4.7371-1.1084.3088-.7241.6044-.9672.3183-1.9087a52.8214,52.8214,0,0,1,5.081,1.5621c.63.373,1.1662,1.0684,1.9015,1.2518.6055.148,1.0714-.2151,1.612.105.7006.4122.4243.8472,1.2383.4235,1.2356-.6424,2.3-.0581,3.6362.28a16.5094,16.5094,0,0,1-3.3063,5.647c-.7128.7753-.58,1.9985-1.3885,2.8093a6.2954,6.2954,0,0,1-2.9307,1.526c.4833.71,1.771,1.21,1.0816,1.8982-1.1185,1.1175-1.0717,1.5712-2.49.8614-.2032.441-.6709,1.1462-.8759,1.5924-.1265.27-2.3213,3.1659-2.7008,3.5366-1.2628,1.2413-2.141,2.5986-1.2941,2.5588a16.7444,16.7444,0,0,0,2.8552-2.15,12.4867,12.4867,0,0,1,3.4244-2.7263,2.5969,2.5969,0,0,1-.6942,1.6422,4.0433,4.0433,0,0,1-1.9212,2.1012,2.5091,2.5091,0,0,0-1.2741,1.0638c-.2635.3881-.632,1.2973-1.0627,1.5124-1.1839.5905-2.133,1.3719-3.31,1.98-.3948.2031-.5628.6712-1,.8169-.6225.2122-1.2808.3768-1.8917.6283-.977.4062-2.6573.9075-2.982,1.9562-.2971.9657-.5855,2.7152-1.6407,3.0707-.2891.0959-1.4312.3874-1.7248.48-.5433.1607-.1877,1.7207-.4486,2.2251-.8557,1.661-3.08,2.7989-4.4,4.1209A15.1086,15.1086,0,0,1,37.3425,116.9c-1.7834.897-3.1855,1.3033-3.8462,1.6339-.9117.4576-1.0234,1.2489-1.8645,1.825-.47.3239-1.9616,1.4746-1.9745,1.5357-.3276,1.4618.69,2.2749-.9871,3.7676a9.096,9.096,0,0,0-1.011,1.4422c-.3971.7927-1.0321,1.3522-1.4074,2.1057a45.7473,45.7473,0,0,1-2.3323,3.9775c-1.0507.4176-1.8018.6667-2.851,1.0881-.6754.268-.8143-1.0564-1.2783-1.5244-1.2715-1.2768-.2178-3.58-1.04-5.2309A4.4369,4.4369,0,0,1,19.11,123.9194Zm-2.3521,2.3093c-.307,2.2253.5786,2.3153.4015,3.8941a8.1167,8.1167,0,0,0,.1069,3.609c.1762.7128,1.3824.965,1.6108,1.65a7.18,7.18,0,0,1-2.4648.5836,8.5661,8.5661,0,0,1-1.8823-3.6883C14.1641,131.1889,15.7861,128.0989,16.7578,126.2287Zm-6.9212,10.22a1.9229,1.9229,0,0,1,.6376-1.1786,6.6824,6.6824,0,0,0,1.3609-1.4716,4.4682,4.4682,0,0,1,1.1114-1.6275,4.0711,4.0711,0,0,0,.2776,1.537,14.4459,14.4459,0,0,1,.8252,1.9539c.2023.8879-.3666.6335-1.2756.6335C12.1467,136.2959,9.8366,137.2593,9.8366,136.4492Zm7.3559,2.9318c-2.3507.2726-6.028-.44-6.0221-1.3719.3607-.8838,1.7366-.5323,3.1345-.2922a7.0536,7.0536,0,0,0,3.4977-.1442c1.97-.4953,3.643-2.01,5.5922-2.4017,1.1189-.2243,2.7479-1.0292,3.6053-.1752a4.1347,4.1347,0,0,1,.73,1.7758c.2262.7135.0148.6108-.6519.96a13.3362,13.3362,0,0,1-2.8492,1.0313c-.7256.18-1.4447.3617-2.17.5429-.6055.15-.79-.41-.24-.8488.5681-.4536,2.4455-.7206,2.3355-.9968-.2615-.6566-1.7351-.3629-2.5-.2874-.7011.0651-1.5508,1.2248-2.267,1.4634A22.3083,22.3083,0,0,1,17.1925,139.381Zm14.3831,2.6774c-.3323.791-.4878.9913-1.8057,1.211a16.6855,16.6855,0,0,1-4.3278-.6085,18.1134,18.1134,0,0,1-2.4611-.6025c-.3213-.1247-.89-.5172-1.2081-.6508-.4492-.1911-1.7887-.1191-1.8585-.6026-.1169-.81,2.67-.2387,4.1837-.7242.154-.0445,2.4707-.6493,2.62-.712.4356-.19,2.1186-.795,2.1186-.795a12.3015,12.3015,0,0,1,1.5769.8752,3.9574,3.9574,0,0,1,1.1617,1.356A2.19,2.19,0,0,1,31.5756,142.0584Zm15.9649-1.7414a2.7734,2.7734,0,0,0,.3487.8451H33.2755a6.4162,6.4162,0,0,0-.3737-1.3945,9.233,9.233,0,0,0-1.404-1.618c-.7241-.7271-1.6577-.9778-2.3912-1.66a13.0346,13.0346,0,0,1-1.7226-2.3919c-.6757-1.008-.7876-1.3569-.2733-2.3648.2883-.5633.5654-1.1236.8728-1.6732l.0236-.04a8.5823,8.5823,0,0,0,.8049.6039,2.431,2.431,0,0,0,.9116.3282,2.3065,2.3065,0,0,0,.9488-.129,11.3386,11.3386,0,0,0,1.8784-.9638l.227-.1343c.48-.2783,1.4024-.86,1.8628-1.1753.4658-.3184,1.3472-.9556,1.7915-1.3247.1577-.1313.3443-.3027.5386-.4844.1611-.1489.3667-.3515.5327-.5185l.6328.4384c-.0986.2139-.2163.4761-.2959.6783-.0981.2461-.1894.4785-.2558.67-.19.5615-.4634,1.6211-.5879,2.1592-.12.5083-.3355,1.584-.4248,2.1572l.0078.001c-.021.0805-.0342.1611-.0454.2324a11.6305,11.6305,0,0,0-.2324,2.0889,2.0383,2.0383,0,0,0,.8671,1.706,17.83,17.83,0,0,0,2.3,1.2969,2.0407,2.0407,0,0,0,1.8754-.126,11.1377,11.1377,0,0,0,1.6353-1.2475l.24-.2037c.3467-.2944,1.1831-1.07,1.49-1.3544l.1259-.1172c.0347-.0347,1.4908-1.5669,1.5108-1.5889l.9145-1.2188.6929.3189c-.0508.1909-.1074.4155-.1455.604-.0649.3247-.126.6338-.1562.8735-.0723.5386-.1739,1.6206-.2046,2.1836-.03.5459-.0406,2.105-.0406,2.17A15.7981,15.7981,0,0,0,47.5405,140.317Zm1.0269.8451h0Zm5.554.0116c.3586-.4326,1.507-1.956,1.8254-2.3977.3242-.4536.94-1.3579,1.2348-1.8623.1031-.18.2232-.4087.3453-.6485.0991-.1894.2192-.4458.3164-.6582l.74.1978c-.019.2-.0381.435-.0435.6313-.0092.3179-.0166.6153-.0068.8545.0264.6089.1216,1.6983.1821,2.19.04.3481.2171,1.211.3,1.7262Zm15.3184.0335-1.9441-.0335c.2475-.5244.8081-1.7418.9989-2.2586.0674-.1884.1426-.4243.2178-.6694.0669-.2129.1455-.499.207-.7314l.76.0556c.0249.2334.0576.52.09.7349l.0635.4057A9.73,9.73,0,0,0,69.44,141.2072Zm10-.0231.0264-.0893c.16-.5815.41-1.6216.5147-2.1372.0083-.04.019-.103.0307-.1743a1.3392,1.3392,0,0,0,.6543-.478,1.6558,1.6558,0,0,1,.418-.3755c.0195.0571.0376.1128.0552.166.0869.2607.1694.5078.2421.6929.2007.5278.6705,1.52.9258,2.0273.0581.114.1321.2549.2113.4037Zm11.3859.046.0445-.3043s.137-.886.1914-1.3436a3.2393,3.2393,0,0,1,1.7041,1.6532Zm.48-4.2613c.0039-.2421-.0083-.541-.0235-.8569-.0093-.1948-.0342-.4243-.0591-.62l.7422-.2139c.0884.189.1978.4146.3037.6094.1436.2637.2788.5112.399.6987.2944.4619.9174,1.36,1.2573,1.8145.3447.46,1.0273,1.3061,1.3779,1.708l.0039-.0034c.044.061.0928.1172.1377.1684.2482.2915.61.6826.8714.9619h-1.39a4.2171,4.2171,0,0,0-2.12-2.96c-.6395-.3806-.9518-.6227-1.5094-.9015Zm8.9148,2.3994-.0393.0513-1.8226.6916-.0888.009s-.8724-.9-1.1766-1.2586l-.1514-.1759c-.3326-.385-.977-1.1831-1.2783-1.5879-.3111-.4122-.8978-1.2608-1.1658-1.6783-.09-.1428-.2155-.3753-.3473-.62a8.5228,8.5228,0,0,0-.7762-1.2678,1.2348,1.2348,0,0,0-.5123-.4061,1.38,1.38,0,0,0-.6391-.0687,17.314,17.314,0,0,0-2.3523.6516,1.4781,1.4781,0,0,0-.5085.3774,1.3037,1.3037,0,0,0-.2446.6478,8.9926,8.9926,0,0,0-.0042,1.4814c.0136.2726.0253.5316.0207.7015-.0146.524-.0774,1.5554-.1234,2.0348-.0408.4108-.1589,1.2035-.2371,1.729l-.0464.3133c-.1223.8714-.3809,1.8748-.3809,1.8748l-.0608.05-1.9477.3542-.0565-.0174s-.6833-1.0079-.917-1.4035l-.1329-.2235c-.256-.4281-.7554-1.3312-.9865-1.7918-.2423-.4832-.67-1.387-.8391-1.8279-.0586-.1487-.1307-.3715-.2066-.5988a9.09,9.09,0,0,0-.5848-1.4858,1.3607,1.3607,0,0,0-.4187-.478,1.4455,1.4455,0,0,0-.6424-.1865,17.6017,17.6017,0,0,0-2.4158.234,1.3638,1.3638,0,0,0-.5821.2938,1.4243,1.4243,0,0,0-.3455.6085,9.4975,9.4975,0,0,0-.2495,1.4c-.0374.2876-.0725.5557-.1072.7279-.0959.48-.3379,1.4828-.48,1.9842-.1257.4507-.4176,1.3311-.5912,1.8573l-.0363.11c-.2684.81-.7081,1.7819-.7081,1.7819l-.0476.0241-1.996.0234-.0528-.0339s-.4505-.9356-.7426-1.7661c-.1386-.3941-.5081-1.4489-.6671-1.9571s-.4235-1.49-.5138-1.9449c-.0306-.1533-.0638-.38-.0992-.6229a10.2088,10.2088,0,0,0-.3137-1.56,1.4268,1.4268,0,0,0-.344-.5528,1.37,1.37,0,0,0-.5916-.2884,11.48,11.48,0,0,0-2.436-.1842,1.2606,1.2606,0,0,0-.609.191,1.321,1.321,0,0,0-.424.4983,9.9052,9.9052,0,0,0-.5586,1.5124c-.07.2234-.136.4333-.1885.576-.1646.447-.5795,1.3832-.8037,1.85-.2152.4462-.6961,1.3567-.9525,1.803-.0042.0045-.1306.228-.1306.228-.2247.4025-.886,1.4263-.886,1.4263l-.0555.02-1.97-.327-.0373-.0339s-.325-1.2708-.4357-1.8824c0-.0038-.2529-1.53-.3114-2.0257-.0574-.4832-.145-1.5146-.168-2.034-.0061-.1662,0-.4244.0086-.6977a8.6687,8.6687,0,0,0-.0358-1.5063,1.3557,1.3557,0,0,0-.2453-.6078,1.476,1.476,0,0,0-.5082-.3738,17.562,17.562,0,0,0-2.3731-.613,1.39,1.39,0,0,0-.6645.0883,1.2317,1.2317,0,0,0-.49.4138,10.1771,10.1771,0,0,0-.7947,1.3651c-.1121.2159-.2174.4206-.2967.5572-.242.416-.8162,1.2632-1.1217,1.6875-.2895.4039-.9181,1.2156-1.2484,1.61-.0042.0038-.1732.2107-.1732.2107-.2889.3526-1.107,1.2367-1.107,1.2367l-.0822.0129-1.8657-.6629-.04-.0475s-.0882-1.2957-.0879-1.9171c0-.0136.01-1.5615.0385-2.0605.0276-.5059.1238-1.5259.1891-2.022.0231-.1782.0774-.4439.1344-.7271a9.5935,9.5935,0,0,0,.2186-1.4436,1.3311,1.3311,0,0,0-.1321-.6478,1.2523,1.2523,0,0,0-.4485-.4643,18.417,18.417,0,0,0-2.2274-1.0148,1.1715,1.1715,0,0,0-1.214.2945,16.2085,16.2085,0,0,0-1.4229,1.7131l-1.407,1.4806c.0238-.0241-1.1069,1.0284-1.4875,1.3538l-.2491.2121c-.3605.3051-1.2673.9921-1.2673.9921l-.07-.0014L38.5,134.6378l-.0291-.049s.1265-1.2194.2039-1.6724l.0407-.2529c.08-.5051.28-1.5139.3952-1.9986.1175-.5172.3749-1.5033.5274-1.9548.0488-.1412.1318-.35.22-.5685a9.8285,9.8285,0,0,0,.5146-1.523,1.2984,1.2984,0,0,0-.0174-.6538,1.4513,1.4513,0,0,0-.3745-.5519,17.6123,17.6123,0,0,0-2.0028-1.3682,1.1766,1.1766,0,0,0-1.2378.068,9.9672,9.9672,0,0,0-1.24,1.03c-.1762.1645-.3427.3148-.4613.4175-.3639.3028-1.1933.9023-1.6251,1.199-.427.29-1.2965.84-1.7234,1.0865l-.2447.1419c-.4186.2477-1.4568.7777-1.4568.7777l-.0774-.0128s-.387-.2922-.7248-.5709c.8778-1.3175,1.7608-2.6282,2.7068-3.9042,1.2416-1.6648,2.8469-2.1941,3.8035-4.1066.3877-.7777,1.15-.8819,1.8234-1.2783a58.8954,58.8954,0,0,0,36.6562,12.7224,59.9253,59.9253,0,0,0,7.63-.5014A58.3579,58.3579,0,0,0,132.66,65.6723v-.0015a58.5417,58.5417,0,0,0-58.254-50.7942A59.2547,59.2547,0,0,0,21.8484,46.8772c-.2072.0955-.4333.2028-.6855.3269A92.8024,92.8024,0,0,0,10.7,52.8971c-.2.1325-.3311.22-.5277.3447-.0487-.0344-.0967-.0679-.1428-.1-.3926-.2787-1.205-.9076-1.609-1.2466l-.2106-.171c-.3787-.3115-1.24-1.113-1.24-1.113l-.0087-.07.66-1.8683.0547-.0411s1.1552-.0843,1.64-.0907l.2911-.0022c.51-.01,1.5372.0109,2.0359.0377.5425.0306,1.5437.1117,2.0133.185.1556.0242.3806.071.6176.1189a9.8676,9.8676,0,0,0,1.569.24,1.3417,1.3417,0,0,0,.6327-.1249,1.3821,1.3821,0,0,0,.4651-.4323A17.2247,17.2247,0,0,0,17.9638,46.32a1.4315,1.4315,0,0,0,.0336-.64,1.4464,1.4464,0,0,0-.3092-.5693,8.4506,8.4506,0,0,0-1.1574-.98c-.2186-.1669-.4281-.3262-.5539-.4376-.38-.3352-1.1223-1.0355-1.4734-1.3983-.3394-.3522-1.0389-1.1182-1.3719-1.5149l-.159-.1866c-.3038-.3518-1.0468-1.3311-1.0468-1.3311l-.0072-.049.9861-1.7487.0559-.03s1.1521.12,1.6308.1981l.2862.0487c.4969.0785,1.51.2771,2.0027.3926.5278.1239,1.498.3761,1.9457.5293.1469.05.36.1329.5829.2216a9.8827,9.8827,0,0,0,1.52.5127,1.42,1.42,0,0,0,.6285-.0117,1.3746,1.3746,0,0,0,.5568-.3643,18.0194,18.0194,0,0,0,1.3844-2.0133,1.37,1.37,0,0,0,.1416-.6739,1.21,1.21,0,0,0-.23-.5935,9.4054,9.4054,0,0,0-.9193-1.1016c-.1967-.2155-.3817-.4186-.4915-.5572-.3077-.385-.917-1.2126-1.2122-1.6441-.2809-.4137-1.0911-1.732-1.0994-1.7433-.3186-.5278-.91-1.6864-.91-1.6864l.0109-.0706,1.2654-1.5312.0624-.0177s1.1091.3133,1.5644.4726l.2828.0993c.482.1646,1.4394.5353,1.8989.7331.479.205,1.4035.6313,1.8253.8645.1317.0733.3212.1895.5224.3134a9.5545,9.5545,0,0,0,1.4153.7731,1.3957,1.3957,0,0,0,.6463.0925,1.3332,1.3332,0,0,0,.5878-.2571,17.0855,17.0855,0,0,0,1.717-1.7482,1.33,1.33,0,0,0,.2526-.6229,1.22,1.22,0,0,0-.122-.6369,10.0908,10.0908,0,0,0-.7788-1.3606c-.1287-.2062-.2529-.3982-.3307-.5346-.2382-.4145-.6716-1.31-.9045-1.8151-.2046-.4432-.5883-1.3942-.7725-1.8872.0024.0057-.0921-.2491-.0921-.2491-.17-.4609-.5138-1.5886-.5138-1.5886l.0174-.0563,1.5154-1.2983.06-.0105s1.0476.5081,1.4707.7482l.2466.1415c.4508.2492,1.3338.78,1.7509,1.0537.4138.27,1.2541.8661,1.6656,1.18.1386.1065.34.2851.5523.4727a9.2493,9.2493,0,0,0,1.1428.9159,1.1725,1.1725,0,0,0,1.2443.0595,11.5229,11.5229,0,0,0,1.9955-1.43,1.3384,1.3384,0,0,0,.3542-.5444,1.3806,1.3806,0,0,0,.0064-.636,9.02,9.02,0,0,0-.5044-1.42c-.1061-.2559-.2076-.4986-.2623-.6621-.1568-.4625-.4531-1.4557-.578-1.9487-.1265-.4852-.4349-2.0028-.438-2.019-.1181-.6029-.2779-1.9019-.2779-1.9019l.0318-.0472,1.712-1.0163.0616.0034s1.06.7656,1.5383,1.1642l1.5664,1.369c-.04-.04,1.1691,1.1869,1.3953,1.416a15.7788,15.7788,0,0,0,1.4519,1.68,1.1788,1.1788,0,0,0,1.2311.2653,17.3473,17.3473,0,0,0,2.1953-1.0506,1.3449,1.3449,0,0,0,.45-.5,1.2418,1.2418,0,0,0,.1072-.61,9.1422,9.1422,0,0,0-.2491-1.4674c-.0623-.276-.12-.5343-.1446-.7037-.0736-.4953-.1955-1.5278-.233-2.0269-.04-.5214-.08-1.5516-.08-2.04l-.0022-.2063c-.0057-.4752.0566-1.7308.0566-1.7308l.0464-.051,1.82-.6882.0937-.0027s.8607.8932,1.1638,1.2466l.1555.1808c.32.3688.968,1.17,1.2837,1.59.2876.3873.8807,1.24,1.1593,1.6766.0939.148.2223.3843.3571.6342a8.6808,8.6808,0,0,0,.763,1.2526,1.3756,1.3756,0,0,0,.5006.4024,1.3954,1.3954,0,0,0,.6651.0721,17.31,17.31,0,0,0,2.3448-.6527,1.4008,1.4008,0,0,0,.5157-.3873,1.2737,1.2737,0,0,0,.2307-.5935,8.8052,8.8052,0,0,0,.0113-1.512c-.0144-.2789-.0257-.5413-.0223-.7112.0136-.5233.0759-1.55.1227-2.0341.0434-.4288.1642-1.2488.2454-1.7916l.0381-.2522c.1231-.8732.3813-1.88.3813-1.88l.0547-.04L62.25,3.2174l.0573.0188s.6551.9634.9027,1.38l.1464.2473c.2508.4179.75,1.3213.9869,1.79.23.4606.6652,1.3822.8408,1.8326.0528.137.1222.3477.1955.5705a9.5294,9.5294,0,0,0,.593,1.5122,1.3594,1.3594,0,0,0,.4455.49,1.3753,1.3753,0,0,0,.618.1725,17.6385,17.6385,0,0,0,2.4185-.2363,1.3544,1.3544,0,0,0,.5877-.3,1.3029,1.3029,0,0,0,.319-.544,9.4945,9.4945,0,0,0,.265-1.46c.0382-.2854.0721-.5542.1069-.7271.1037-.5067.345-1.5052.48-1.9782.131-.4719.4409-1.4048.6082-1.9088.2967-.8924.7274-1.8422.7274-1.8422l.05-.0269,1.99-.0218.0574.034a12.086,12.086,0,0,1,.7411,1.7652c.1895.5414.5221,1.4821.67,1.9589.1548.4961.4175,1.4742.51,1.9443.0294.1472.0608.365.0955.5976a9.8566,9.8566,0,0,0,.3213,1.5859,1.1732,1.1732,0,0,0,.9344.84,11.4413,11.4413,0,0,0,2.4323.1841,1.3236,1.3236,0,0,0,.6172-.1955,1.4081,1.4081,0,0,0,.4179-.4941,9.7764,9.7764,0,0,0,.552-1.486c.0717-.2322.14-.4507.1941-.5976.1652-.4572.58-1.3858.8032-1.8529.2126-.4413.6947-1.3541.9552-1.8056l.1446-.2567c.2378-.4221.8706-1.3972.8706-1.3972l.0615-.0208,1.9653.3269.0426.0453s.3168,1.26.4275,1.8721c0,.0046.2548,1.5313.3122,2.0277.06.5134.1442,1.5414.1684,2.036.0083.1664,0,.43-.0084.709a8.704,8.704,0,0,0,.0341,1.4888,1.4569,1.4569,0,0,0,.2328.5921,1.3954,1.3954,0,0,0,.5316.3967,17.7133,17.7133,0,0,0,2.3659.6082,1.3888,1.3888,0,0,0,.661-.0892,1.3007,1.3007,0,0,0,.4787-.3967,10.0847,10.0847,0,0,0,.8116-1.3912c.1121-.2132.216-.4137.2938-.5489.2453-.422.818-1.2639,1.1192-1.6848.2806-.39.9137-1.21,1.2486-1.6094l.2027-.2473c.3027-.3681,1.0771-1.2,1.0771-1.2l.0709-.0171,1.8812.6656.043.0664s.0846,1.2761.0819,1.8974c0,.0144-.0083,1.5622-.037,2.0587-.0287.505-.1241,1.5281-.1891,2.0271-.0223.1734-.0755.4377-.1329.7182a9.307,9.307,0,0,0-.222,1.4493,1.3676,1.3676,0,0,0,.1313.644,1.2117,1.2117,0,0,0,.4512.4666,17.698,17.698,0,0,0,2.2255,1.014,1.3814,1.3814,0,0,0,.6523.03,1.2649,1.2649,0,0,0,.5542-.3156A11.928,11.928,0,0,0,103.4941,15.4a.631.631,0,0,0,.3553-.0728c.2253-.1079.2177.2049.2743.4092a.5827.5827,0,0,0,.8616.4194c.3725-.1529.661-.1185.93.396.0577.2447.5916.4111.8717.2934.2718-.1476.5073-.29.74-.2206.2733.08.3046.136.3851.3629.0947.2065.2892.2846.69.1495a2.3113,2.3113,0,0,0,.7018-.6591c-.1207.4661-.2571,1.01-.3567,1.2993-.0536.1541-.1385.37-.23.6007a9.6739,9.6739,0,0,0-.5049,1.4934,1.3433,1.3433,0,0,0,.0159.6512,1.4767,1.4767,0,0,0,.3624.5414,17.7877,17.7877,0,0,0,2.0137,1.3813,1.4,1.4,0,0,0,.6513.1409,1.2885,1.2885,0,0,0,.5949-.2119,9.8707,9.8707,0,0,0,1.2416-1.0313c.1733-.16.3372-.3122.4553-.4108.3681-.308,1.196-.9057,1.6267-1.1994.4119-.2827,1.2813-.8319,1.723-1.089l.2488-.1454c.4168-.2462,1.4543-.77,1.4543-.77l.0716.0105,1.53,1.2583.0208.05s-.26,1.0235-.5648,1.8392l-.0366.096c-.1823.4873-.5206,1.393-.7071,1.8271-.1917.4485-.6323,1.38-.874,1.8473-.0777.1513-.2162.3775-.3635.6176a8.9712,8.9712,0,0,0-.71,1.2978,1.18,1.18,0,0,0,.1634,1.2361,17.1277,17.1277,0,0,0,1.751,1.7158,1.3451,1.3451,0,0,0,.5919.2487,1.3694,1.3694,0,0,0,.638-.1012,8.6728,8.6728,0,0,0,1.29-.74c.2389-.1528.4647-.2974.6139-.3793.433-.2352,1.3541-.692,1.8267-.905.45-.2034,1.4093-.5986,1.8857-.7735l.3477-.1279c.4338-.1628,1.4932-.4836,1.4932-.4836l.0716.026,1.2888,1.5059.0064.071s-.4994,1.0276-.7346,1.4447l-.1514.27c-.2352.4209-.7663,1.31-1.0529,1.7442-.27.4118-.8675,1.257-1.18,1.6572-.1072.1393-.2794.3334-.4606.54a9.1382,9.1382,0,0,0-.9324,1.1692,1.3476,1.3476,0,0,0-.2065.593,1.5163,1.5163,0,0,0,.1555.6657,17.7245,17.7245,0,0,0,1.42,1.98,1.3786,1.3786,0,0,0,.5448.3519,1.2988,1.2988,0,0,0,.64.0083,9.7781,9.7781,0,0,0,1.5142-.5422c.2243-.0935.4357-.1835.5833-.2355.4512-.1646,1.4334-.4417,1.9363-.57.499-.1264,1.504-.3453,1.9929-.4317l.28-.0529c.4779-.0891,1.6357-.23,1.6357-.23l.0521.0276,1.02,1.72,0,.0521s-.6889.9551-1,1.3334l-.1768.2148c-.322.3979-1,1.173-1.3394,1.5369-.34.36-1.0751,1.0875-1.4549,1.4368-.1249.1159-.3315.2809-.55.4557a8.809,8.809,0,0,0-1.11.9781,1.2641,1.2641,0,0,0-.3129.57,1.353,1.353,0,0,0,.0366.6342,17.7368,17.7368,0,0,0,1.0581,2.2164,1.3982,1.3982,0,0,0,.4734.4439,1.3643,1.3643,0,0,0,.66.12,9.14,9.14,0,0,0,1.4429-.25c.2763-.0623.5372-.1215.7067-.1479.4953-.0736,1.5183-.1884,2.028-.2262.49-.0373,1.521-.08,2.042-.0812l.302-.0022c.4794-.0038,1.6313.057,1.6313.057l.046.0366.7018,1.8683-.0143.0642s-.8861.855-1.2424,1.1593l-.1714.1488c-.3945.34-1.1978.9869-1.5935,1.2828-.4085.3043-1.2538.89-1.6788,1.159-.1438.0925-.3768.2193-.6222.3522a9.4,9.4,0,0,0-1.2643.772,1.3408,1.3408,0,0,0-.4085.5274,1.2257,1.2257,0,0,0-.0634.6372,18.5228,18.5228,0,0,0,.6471,2.3415,1.4134,1.4134,0,0,0,.4077.533,1.3264,1.3264,0,0,0,.6089.2215,9.0362,9.0362,0,0,0,1.464.0016c.2851-.0124.5531-.0242.7282-.0208.4849.0122,1.5113.0766,2.033.1276.5187.05,1.54.1884,2.0273.273l.2631.0445c.4523.0755,1.632.3473,1.632.3473l.0423.05.3662,1.9479-.0276.0672s-.9548.6471-1.3711.8933l-.2548.151c-.4168.25-1.3206.7482-1.79.9853-.4829.2454-1.3858.6765-1.8294.8464-.1348.0513-.3387.12-.555.1918a10.239,10.239,0,0,0-1.5221.5949,1.2275,1.2275,0,0,0-.5.4447,1.3907,1.3907,0,0,0-.1714.6252,18.3045,18.3045,0,0,0,.2262,2.4139,1.3811,1.3811,0,0,0,.3073.5828,1.2813,1.2813,0,0,0,.5617.3209,9.3979,9.3979,0,0,0,1.4372.26c.2828.037.5508.0724.7222.1057.5176.1079,1.5191.35,1.9828.4794.4941.14,1.4768.4545,1.9453.6237l.2658.0951c.4583.1616,1.536.6192,1.536.6192l.03.05.0223,1.991-.0359.0543s-1.0264.4629-1.4674.6312l-.3236.1254c-.4525.1744-1.4232.5006-1.9238.6524-.4968.15-1.4953.413-1.9728.52-.17.0369-.4358.0762-.7181.1178a9.0084,9.0084,0,0,0-1.4422.2877,1.3534,1.3534,0,0,0-.5545.3366,1.2411,1.2411,0,0,0-.2866.589,17.8446,17.8446,0,0,0-.1913,2.43,1.3248,1.3248,0,0,0,.194.6334,1.35,1.35,0,0,0,.4976.419,8.9719,8.9719,0,0,0,1.3892.5127c.2677.0854.521.1616.68.225.4752.185,1.42.5965,1.8721.8125.4058.194,1.1952.6221,1.666.88l.1566.083c.7876.4228,1.6331,1.0065,1.6331,1.0065l.0219.06-.3269,1.96-.0495.05s-1.1158.2809-1.59.3692l-.2907.0558c-.4784.0922-1.4961.253-2.0167.3156-.5116.0605-1.52.1564-2.0076.1654-.1593.0038-.39-.0045-.6343-.0083a9.6382,9.6382,0,0,0-1.5852.0362,1.2786,1.2786,0,0,0-.5976.23,1.3347,1.3347,0,0,0-.3889.5179,9.5947,9.5947,0,0,0-.6187,2.3867,1.2707,1.2707,0,0,0,.0876.6539,1.3819,1.3819,0,0,0,.427.502,10.0725,10.0725,0,0,0,1.3651.7914c.2144.11.4168.2121.5534.2913.3681.213,1.1292.734,1.68,1.1228.4043.287,1.2163.9144,1.6105,1.2458l.2246.1827c.3753.3073,1.2269,1.1,1.2269,1.1l.01.07-.6625,1.877-.0529.0347s-1.1477.0853-1.63.0913l-.3009.0031c-.4843.0083-1.5195-.0091-2.0352-.0393-.5266-.0264-1.5478-.1117-2.0185-.185-.1484-.0226-.3678-.0672-.6-.1155a9.94,9.94,0,0,0-1.586-.2439,1.3757,1.3757,0,0,0-.6293.1269,1.3974,1.3974,0,0,0-.4817.4591,17.2638,17.2638,0,0,0-1.0068,2.22,1.3418,1.3418,0,0,0-.0155.6908,1.3639,1.3639,0,0,0,.2944.5157,8.4964,8.4964,0,0,0,1.15.9763c.2224.1691.4323.3261.5562.4364.3805.3382,1.1246,1.0374,1.4764,1.4043.35.3617,1.0521,1.1311,1.37,1.51l.1854.2182c.3167.3693,1.0212,1.3016,1.0212,1.3016v.0726l-.98,1.7312-.0529.0234s-1.1469-.117-1.6252-.1954l-.2937-.0469c-.5055-.083-1.5176-.2824-2.0035-.3972-.5135-.1208-1.4871-.37-1.9442-.5254-.1443-.05-.3522-.1322-.5719-.22a9.822,9.822,0,0,0-1.5317-.5179,1.3894,1.3894,0,0,0-.6391.0181,1.3465,1.3465,0,0,0-.5632.3775,17.4463,17.4463,0,0,0-1.3693,2.0084,1.3784,1.3784,0,0,0-.1434.6207,1.3934,1.3934,0,0,0,.2363.6356,9.2121,9.2121,0,0,0,.9249,1.1054c.1948.2137.379.4146.4885.552.3084.39.9181,1.2209,1.21,1.6467.2809.4107,1.0918,1.7275,1.1,1.7434.3149.5232.9125,1.6852.9125,1.6852l-.0076.0521-1.2737,1.5479-.0664.018s-1.1183-.3208-1.58-.4816l-.2609-.0906c-.468-.1608-1.4277-.5316-1.9034-.737-.4957-.2136-1.4044-.63-1.8185-.8592-.14-.0793-.3337-.1971-.5409-.3254a9.5063,9.5063,0,0,0-1.4026-.7626,1.3544,1.3544,0,0,0-.6493-.0944,1.4733,1.4733,0,0,0-.6024.2726,17.7983,17.7983,0,0,0-1.6917,1.723,1.4155,1.4155,0,0,0-.2579.6153,1.258,1.258,0,0,0,.117.6449,9.77,9.77,0,0,0,.7755,1.3605c.1329.2084.2585.4054.3371.5444.2412.4175.6837,1.3363.9064,1.8173.2144.4651.601,1.4256.769,1.88l.0823.2235c.1643.4386.5267,1.6218.5267,1.6218l-.02.0574-1.5131,1.2933-.0687.0091s-1.0234-.4976-1.4413-.7362l-.27-.151c-.4514-.2514-1.3356-.7829-1.7486-1.0562-.4133-.2674-1.2548-.8661-1.6687-1.1794-.13-.1-.3269-.2764-.5349-.4614a9.6327,9.6327,0,0,0-1.1559-.9256,1.3454,1.3454,0,0,0-.6278-.2069,1.2883,1.2883,0,0,0-.617.1458,11.7191,11.7191,0,0,0-1.9951,1.4262,1.3832,1.3832,0,0,0-.3545.55,1.3267,1.3267,0,0,0-.0026.6576,9.0755,9.0755,0,0,0,.4995,1.396c.1068.2576.208.5014.2608.6607.1552.4591.4527,1.4527.5825,1.9533.1231.4825.4323,2.0031.4353,2.0175.1174.6025.2778,1.9012.2778,1.9012l-.0365.0513-1.7049,1.01-.068-.003s-1.0537-.7618-1.5327-1.16c.0128.0091-1.5678-1.37-1.5678-1.37.0411.0378-1.1484-1.1665-1.39-1.41a16.15,16.15,0,0,0-1.46-1.6867,1.3963,1.3963,0,0,0-.5492-.3051,1.3476,1.3476,0,0,0-.66.0324,17.8372,17.8372,0,0,0-2.2148,1.0571,1.17,1.17,0,0,0-.5576,1.1122,9.0488,9.0488,0,0,0,.2518,1.4806c.0611.27.1185.5248.1438.6916.0713.4863.1925,1.5177.2306,2.0258.0375.4832.0774,1.5138.0808,2.0423l.0008.2719C100.284,138.1971,100.221,139.3682,100.221,139.3682Z"></path><path class="fill" d="M129.707,132.1476a2.8785,2.8785,0,1,1,2.8828-2.8946A2.8664,2.8664,0,0,1,129.707,132.1476Zm0-5.0723a2.1914,2.1914,0,0,0,0,4.38,2.05,2.05,0,0,0,1.3057-.4541h-.5615l-.8692-1.3677h-.3066v1.3677h-.7822v-3.479h1.3779c.8359,0,1.26.3564,1.26,1.059a.9214.9214,0,0,1-.7442.9727l.8223,1.2651a2.2574,2.2574,0,0,0,.5947-1.5664A2.1155,2.1155,0,0,0,129.707,127.0753Zm-.0547,1.8647c.5147,0,.6973-.0576.6973-.3808,0-.209-.0947-.3482-.5557-.3482h-.5185v.729Z"></path></svg>
