<?xml version="1.0" encoding="UTF-8" standalone="no"?>
<svg
   viewBox="0 0 350 200"
   aria-hidden="true"
   version="1.1"
   id="svg16"
   width="350"
   height="200"
   xmlns:xlink="http://www.w3.org/1999/xlink"
   xmlns="http://www.w3.org/2000/svg"
   xmlns:svg="http://www.w3.org/2000/svg">
  <style
     id="style1">
    .st1{fill-rule:evenodd;clip-rule:evenodd;fill:#1f36c7}
  </style>
  <defs
     id="defs1">
    <path
       id="path-1"
       fill="#1f36c7"
       d="m 114.9,10.3 c 2.1,0 3.5,1.2 3.6,2.7 0,1.1 -0.9,2 -2,2 -2.4,0 -1.8,-1.8 -2.8,-1.8 -2.24,0 -3.999,3.443 -5.675,7.129 l -0.258,0.568 -0.384,0.855 L 107,22.6 c -0.9,1.8 -1.3,2.1 -2,2.1 -1.7,0 -2,-4.5 -2.7,-6.5 -1.4,3 -4.2,6.5 -8.6,6.5 -2.6,-0.1 -5.1,-1.4 -5.1,-5.4 0,-4.5 3,-7.7 6,-7.7 2.3,0 3.8,2.4 3.8,4 -0.1,4.4 -6,4.5 -6,5.4 0,0.9 1.5,1.2 2.4,1.2 3.8,0 6.3,-4.9 7.2,-8.3 0.2,-0.6 0.7,-1.8 1.8,-1.8 1.2,0 0.6,7.4 2.3,7.4 1.1,0 2.5,-9.2 8.8,-9.2 z M 55.7,0.2 c 2,-0.1 3.6,1.8 3.8,4.8 0.4,8 -2.3,11.2 -3.7,14.1 0.3,1.1 2.2,3 4,3 0.7,0 1.5,-0.3 1.7,-0.6 -0.2,-0.5 -0.3,-1 -0.3,-1.9 0,-4.6 3.1,-8.4 5.7,-8.4 2.1,0 3.3,2.7 3.3,4.5 0,2.1 -1.8,3.8 -4.5,5.4 0.5,0.5 1.4,0.8 2.1,0.8 3.8,0.1 5.9,-4.5 7.4,-8.6 0.3,-0.8 0.8,-1.9 1.7,-1.9 1.6,0 2.2,10.4 4.9,10.4 1.1,0 2.1,-2.3 2.1,-4.1 0.1,-1.4 -0.4,-1.5 -0.4,-3.4 0,-2.1 1.1,-3.9 2.7,-3.9 1,0 1.3,0.9 1.3,2 -0.1,4.2 -3.2,12 -7.8,12 -3.4,0 -3.1,-5.8 -4.3,-5.8 -1.3,0 -3.2,5.8 -9.9,5.8 -1.1,0 -2.3,-0.5 -3.2,-1.6 -1.6,1.1 -3,1.5 -4.5,1.5 -2.5,0 -3.6,-2.5 -4.6,-2.5 -1.2,0 -2.6,2.5 -6.6,2.5 -3.2,0 -3.8,-4.2 -4.9,-4.2 -1,0 -2.6,4.2 -4.3,4.2 -1.366,0 -2.208,-1.737 -3.003,-3.516 L 34.16,20.25 C 33.409,18.568 32.659,17 31.5,17 c -0.909,0 -2.8,1.693 -4.714,3.437 l -0.522,0.476 c -1.909,1.74 -3.751,3.383 -4.564,3.287 -0.7,-0.1 -1,-0.5 -0.9,-1.2 0.1,-0.9 1,-3.4 1.3,-4.5 0.6,-2 1.1,-4.2 1.4,-4.9 0.2,-0.7 1,-1.2 1.6,-1.1 0.3,0 0.4,0.5 0.5,1 0.3,1.6 0.8,3.3 1.3,3.3 0.9,0 4.1,-5.8 5.9,-5.8 2.3,0 2.5,9.2 5.5,9.2 1,0 1.7,-1.2 2.4,-2.6 0.1,-2.4 0.8,-5.9 2.8,-5.9 1.4,0 2,3.1 1,5.8 -0.1,3.2 2.1,4 3.5,4 1,0 2.7,-0.3 4.1,-2.4 -0.8,-1.7 -1.3,-5.2 -1.4,-6.4 -0.3,-6.4 2.2,-12.4 5,-12.5 z m -38.5,2 C 18.4,1.8 18.9,2.4 19.4,3.8 20,5.9 20,8.7 19.8,12.6 19.5,18 16.7,24.5 9.8,24.3 3.8,24.2 1.2,20.4 1,14.7 0.9,12 1.1,9.3 2.3,5.5 3,3.5 3.5,2.8 5.4,2.4 c 1.5,-0.3 1.3,1.2 1,3 -0.8,3.9 -1.1,5.8 -0.9,10.3 0.3,4.7 2.5,6.6 4.9,6.6 3.7,0.1 5.3,-2.8 6,-7.1 0.5,-3.4 0.1,-5 -0.2,-6.1 C 16,8.5 15.4,7.2 15.3,6.2 14.9,4 16.1,2.5 17.2,2.2 Z m 48.7,12.1 c -0.6,-0.1 -2,0.6 -2,2.7 0,1.7 0.6,2.5 0.9,2.8 2,-0.6 2.5,-2.2 2.4,-3.5 0,-1.1 -0.6,-2 -1.3,-2 z m 27.8,-0.1 c -2.6,0 -2.4,4.1 -2,5 1.9,-0.3 3.2,-1.4 3.5,-2.4 0.3,-1 -0.1,-2.6 -1.5,-2.6 z M 55.922,4.093 55.8,4.1 c -1.3,0.1 -1.9,4.2 -1.7,8.5 0.2,2.8 0.6,3.2 1,3.2 0.7,0 2.5,-5.1 2.3,-9.1 C 57.3,4.9 56.8,4 55.8,4.1 Z M 44.3,1 c 1.2,0 2,0.7 2.1,1.8 C 46.6,4.3 45.5,5.9 44,5.9 42.7,5.9 42.1,5 41.9,3.9 41.8,2.3 43,1 44.3,1 Z" />
  </defs>
  <g
     id="logo-sketch"
     fill="none"
     fill-rule="evenodd"
     stroke="none"
     stroke-width="1"
     transform="matrix(1.5467904,0,0,1.5467904,6.8039059,-70.224284)">
    <g
       id="text"
       transform="translate(49,150)">
      <use
         xlink:href="#path-1"
         id="Mask" />
    </g>
    <path
       id="fish"
       d="m 118.7,129.2 c -0.4,-0.7 -0.1,-1.9 -1.2,-1.9 -0.7,0 -0.8,0.6 -0.9,1.1 -1.5,-0.5 -2.8,-0.7 -4,-0.7 -0.8,0 -1.5,0.1 -2.2,0.3 -0.4,-0.7 -2.2,-2.1 -3.7,-2.6 -0.6,3.3 -3.5,5.8 -7.8,6.2 -0.2,2.1 -1.9,2.7 -3.2,2.7 -0.9,0 -2.4,-0.3 -2.5,-0.7 -0.5,-3.1 -2.8,-4.8 -3.9,-5.2 0,0.3 0.1,0.7 0.1,1 0,2.6 -1.8,4.2 -5.1,4.2 -0.5,0 -1.2,0 -1.7,-0.1 3.8,4.2 6.5,2.7 8.2,3.5 2.3,1 4.2,4.3 11.6,4.3 2.7,0 5.4,-1.1 7.2,-2.2 0.3,1.1 1.4,2.1 3.3,2.1 3.1,0 4.9,-1 4.9,-1.8 0,-0.2 0,-0.5 -0.6,-0.5 -0.5,0 -0.5,0.1 -2.2,0.1 -2,0 -5.2,-0.8 -6.7,-4.3 -0.3,-0.6 -0.7,-0.6 -0.8,-0.6 -1,0 -2.6,3.6 -8.9,3.6 -2.7,0 -3.9,-1 -3.9,-1.2 0,0 0,-0.1 0.1,-0.1 0.3,0 1.2,0.1 2.4,0.1 4,0 7.2,-1.9 9.2,-4 0.7,-0.8 1,-0.9 1.6,-0.9 0.5,0 1,0.4 1.3,1.1 0.9,2.3 3,4.2 5.2,4.2 3,0 3.1,-5.2 3.8,-5.5 0.1,0 0.3,0.1 0.4,0.1 0.4,0 0.9,-0.3 0.9,-0.9 0.1,-0.8 -0.8,-1 -0.9,-1.4 z m -5,3.9 c -0.8,0 -1.4,-0.6 -1.4,-1.4 0,-0.8 0.6,-1.5 1.4,-1.5 0.8,0 1.4,0.7 1.4,1.4 0.1,0.9 -0.6,1.5 -1.4,1.5 z"
       class="st1" />
    <path
       id="chilli_pepper"
       d="m 103.3,119.2 c 0.7,0 1,0.6 1.1,1.2 0.2,-0.2 0.5,-0.3 0.8,-0.3 0.7,0 1.1,0.5 1.1,1.1 0,0.4 -0.2,0.7 -0.5,0.9 0.4,0.2 0.7,0.5 0.7,0.9 0,0.5 -0.4,0.9 -1,0.9 -0.5,0 -0.9,-0.6 -1.4,-0.6 -0.3,0 -0.7,0.1 -0.8,0.3 0.2,0.5 0.3,0.9 0.3,1.4 0,2.6 -3.5,4.7 -7.2,4.7 -3.6,0 -5,-2.1 -5,-3 0,-0.2 0.1,-0.3 0.4,-0.3 0.6,0 0.7,0.2 2.4,0.2 3.9,0 2.5,-5 6.2,-5 0.5,0 1.6,0.3 2,1 0.3,-0.3 0.4,-0.7 0.4,-1 0,-0.6 -0.4,-1 -0.4,-1.5 0,-0.5 0.4,-0.8 0.9,-0.9 z"
       class="st1" />
    <path
       id="swirl"
       d="m 80.1,116.6 c 4.4,0 7.8,3.7 7.8,9 0,2.4 -1.3,5.9 -6.6,5.9 -6.3,0 -10.1,-5.3 -10.1,-8.7 0,-2.9 1.9,-4.7 3.1,-5 -1.3,5.2 1.6,10.2 7.4,10.2 2.9,0 4.3,-1.4 4.3,-3.9 0,-2.8 -1.9,-5.5 -5.2,-5.5 -1.6,0 -2.8,0.9 -2.8,2.2 0,2.1 1.8,3.4 3.7,3.4 1.2,0 2,-0.5 2,-1.3 0,-0.1 0,-0.3 -0.1,-0.4 -0.1,0.1 -0.4,0.1 -0.8,0.1 -1.5,0 -2.7,-0.8 -2.7,-1.7 0,-0.7 0.5,-1.1 1.1,-1.1 2.2,0 3.7,2.2 3.7,3.8 0,1.6 -1.2,3 -3.2,3 -4.3,0 -6.2,-3.5 -6.2,-5.8 0.1,-2.5 2.2,-4.2 4.6,-4.2 z"
       class="st1" />
    <g
       id="packaging"
       class="st1">
      <path
         d="m 132.8,128.4 c -0.9,0.7 -3.1,2.3 -6.8,2.3 -2,0 -2.8,-0.6 -3.1,-0.6 -0.4,0 -0.8,0.4 -1.2,0.8 -0.9,1 -2,2.8 -2,4.9 0,1.4 1.1,2.8 3.2,2.8 6.8,0 11.8,-4.2 11.8,-7.5 0.1,-1.9 -1.1,-2.7 -1.9,-2.7 z m -3.5,6.5 -3.9,1.1 c 0.3,-0.8 0.5,-1.7 0.5,-2.6 0,-0.3 0,-0.5 -0.1,-0.8 h 0.5 c 2.9,0 4.1,-1.1 4.3,-1.1 0.2,0 0.4,0.1 0.4,0.7 0,0.8 -0.4,1.9 -1.7,2.7 z"
         id="path1" />
      <path
         d="m 127,129.2 c 1.6,0 3,-0.4 3.9,-1.2 0.3,-0.2 0.4,-0.6 0.4,-1 v -0.8 c 0,-1 -1.6,-1.6 -3.8,-1.6 -2.6,0 -4,1.2 -4,1.7 v 1.6 c 0,0.6 1.5,1.3 3.5,1.3 z"
         id="path2" />
    </g>
    <path
       id="clothes"
       d="m 139.2,112.2 c -5.3,0 -3.9,4.5 -10.1,5.9 -1.1,0.2 -1.5,0.6 -1.5,1.1 0,0.9 0.5,2.1 1.2,2.1 2.7,0 6.8,-5.5 7.6,-5.5 0.3,0 0.6,0 0.6,0.8 0,2 -5.8,4.6 -5.8,6 0,0.8 2,2.6 4.1,2.6 2.9,0 5.5,-5.8 6.1,-5.8 0.5,0 0.6,0.3 0.6,0.7 0,1.6 -2,4.7 -5.4,6 -0.7,0.3 -0.8,0.6 -0.8,0.8 0,0.8 0.9,1.9 1.7,1.9 1,0 7.7,-5.8 7.7,-10.4 0.2,-4.3 -3.1,-6.2 -6,-6.2 z m 2.4,5 c -0.4,0 -0.8,-0.1 -1,-0.3 -0.5,-0.2 -1.3,-0.9 -1.3,-1.9 0,-1 0.5,-1.3 1,-1.3 1.5,0 3.2,1.3 3.2,2.4 0,0.9 -0.8,1.1 -1.9,1.1 z"
       class="st1" />
    <path
       id="spoon"
       d="m 91.6,119.6 h -0.9 c -0.3,0 -0.8,-0.1 -1.1,-0.3 -0.6,-0.5 -0.8,-3.2 -1.8,-4.8 -1.2,-1.8 -2.5,-2.3 -4.2,-2.3 -1.2,0 -2.6,0.7 -2.6,1.7 0,0.6 0.3,1 2.6,1.6 2.9,0.7 4.3,2.3 4.6,4.1 0.3,1.8 0.6,3.2 1.3,3.9 0.9,1 2.6,1.9 4.2,1.9 1.3,0 2.3,-0.4 2.3,-1.6 -0.1,-1.3 -1.9,-4.2 -4.4,-4.2 z m 1.9,3.9 c -1.1,0 -2.7,-1.1 -2.7,-1.8 0,-0.5 0.5,-0.8 0.9,-0.8 0.9,0 2.5,1.1 2.5,2 0,0.3 -0.2,0.6 -0.7,0.6 z"
       class="st1" />
    <g
       id="wave"
       class="st1">
      <path
         d="m 113.4,115.9 c -0.7,0 -0.7,1.1 -0.7,1.5 0,0.4 0,0.5 -0.3,0.5 -0.3,0 -0.5,-0.1 -0.8,-0.1 -0.2,0 -0.4,0.2 -0.4,0.5 0,1.5 1.9,2.7 3.8,2.7 2.5,0 3.7,-1.1 4.4,-1.1 0.3,0 0.4,0.3 0.4,0.5 0,0.4 -0.4,0.9 -0.4,1.1 0,0.6 1.2,0.1 1.2,0.8 0,0.9 -1.5,1.6 -3.8,1.6 -4.5,0 -7.4,-3.1 -7.4,-6 0,-5.4 5.8,-3.7 5.8,-5.8 0,-0.7 -0.7,-1.1 -1.2,-1.1 0.6,-0.8 1.4,-0.9 2.2,-0.9 0.6,0 1.2,0.1 1.7,0.1 0.7,0 1.4,-0.3 1.4,-1.1 0,-0.5 -0.4,-1.1 -2.1,-1.3 0.2,-1.1 2.5,-0.5 2.5,-1.5 0,-0.7 -1.3,-1.2 -2.9,-1.2 -6.2,0 -10.6,5.1 -10.6,10.6 0,5 3.6,10.5 10.3,10.5 6.5,0 9.6,-5.3 9.6,-9.3 -1.2,1.1 -4.4,1.4 -6,1.4 -4.7,0.1 -6,-2.4 -6.7,-2.4 z"
         id="path3" />
      <path
         d="m 118.5,116.6 c 1,0 1.7,-0.8 1.7,-1.7 0,-1.4 -1.4,-2.7 -3.5,-2.7 0.4,0.4 0.5,0.7 0.5,1.1 0,0.5 -0.3,1.1 -0.3,1.7 0,0.9 0.6,1.6 1.6,1.6 z m 10.1,-6.8 c 0.3,0.4 0.4,0.8 0.4,1.2 0,1 -0.7,2 -0.7,3 0,1.2 0.9,2.2 2.3,2.2 1.5,0 2.5,-1.2 2.5,-2.6 -0.1,-2 -1.8,-3.6 -4.5,-3.8 z m -7.2,-3.8 c 0.5,0.6 0.7,1.2 0.7,1.9 0,1.6 -1.2,3.2 -1.2,4.7 0,2 1.3,3.3 3.2,3.3 2,0 3.2,-1.7 3.2,-3.6 0,-2.7 -2.1,-5.6 -5.9,-6.3 z m 2.8,5.7 c -0.5,0 -0.9,-0.4 -0.9,-0.9 0,-0.3 0.2,-0.7 0.2,-1.1 0.1,-0.5 0,-0.9 0.3,-0.9 0.6,0 1.3,1.1 1.3,1.8 0,0.6 -0.3,1.1 -0.9,1.1 z"
         id="path4" />
    </g>
    <g
       id="bowl"
       class="st1">
      <path
         d="m 101.1,107.4 c -1.6,-0.6 -2.3,-1.5 -2.7,-3.4 -0.8,1.1 -1.2,2.1 -1.2,2.7 0,2.4 3.3,2.4 3.3,4 0,0.9 -1.7,1.9 -3.9,1.9 -2.5,0 -4.3,-0.4 -5.9,-2 -0.4,-0.4 -0.6,-0.8 -1.1,-0.8 -0.6,0 -0.9,1 -0.9,2 0,3.4 3.3,7.5 7.9,7.5 5.7,0 8,-3.9 8,-7.1 0.1,-1.9 -0.3,-3.6 -3.5,-4.8 z m -1.6,9.6 c -0.5,0 -0.6,-0.2 -0.6,-0.7 0,-0.3 0.1,-0.9 0.1,-1.4 0,-1.2 0.5,-1.1 1.7,-1.7 0.9,-0.4 1.2,-0.9 1.5,-0.9 0.3,0 0.6,0.2 0.6,0.7 0,1.8 -2,4 -3.3,4 z"
         id="path5" />
      <path
         d="m 93.8,101.6 c -0.6,0 -1.6,-0.6 -2.6,-1.4 -1.1,1.1 -1.9,2.6 -1.9,4.3 0,3.5 3.7,6.4 7.3,6.4 0.6,0 1.2,-0.1 1.8,-0.2 -2,-0.2 -3.2,-1.7 -3.2,-3.5 0,-2.3 2.6,-4.4 2.6,-6.2 0,-2.2 -2.7,-2.4 -2.7,-4.2 0,-1.5 2.6,-2.6 2.5,-5 0,-1.4 -1.4,-3.1 -3.3,-4.1 0.3,0.6 0.5,1.4 0.5,1.9 0,2.8 -5.4,4 -5.4,6.2 0,2.8 5.2,3.9 5.2,5.2 0,0.3 -0.2,0.6 -0.8,0.6 z"
         id="path6" />
    </g>
    <path
       id="heart"
       d="m 148.3,103.4 c 1.8,0 3.2,2.3 3.2,5 0,2.9 -1.4,6 -3.8,8.2 0,-4.8 -5.9,-3.3 -5.9,-6.8 0,-1.5 1.1,-2.5 2.4,-2.5 1.1,0 2,0.3 2.7,1 -0.6,-0.6 -1,-1.5 -1,-2.3 0,-1.3 0.8,-2.6 2.4,-2.6 z"
       class="st1" />
    <path
       id="flower"
       d="m 77.5,108.3 c -0.5,0.1 -0.9,0.2 -1.2,0.5 -0.3,-1.1 -1.3,-2.1 -2.7,-1.8 -1.2,0.2 -2.1,1.3 -1.9,2.7 0,0.2 0.1,0.5 0.2,0.7 0,0 -0.2,0 -0.4,0.1 -1,0.2 -2.2,1.2 -2,2.7 0.2,1.3 1.3,2.2 2.6,2.1 0.5,-0.1 0.9,-0.2 1.2,-0.4 0.3,1.2 1.3,1.9 2.6,1.8 1.3,-0.2 2.2,-1.3 2.1,-2.6 0,-0.4 -0.1,-0.6 -0.2,-0.8 h 0.3 c 1.3,-0.3 2.2,-1.3 2.1,-2.6 -0.4,-1.6 -1.5,-2.6 -2.7,-2.4 z m -2.6,4.9 c -0.8,0.1 -1.4,-0.5 -1.5,-1.2 -0.1,-0.8 0.4,-1.5 1.2,-1.6 0.8,-0.1 1.4,0.5 1.5,1.2 0.1,0.8 -0.4,1.5 -1.2,1.6 z"
       class="st1" />
    <g
       id="transformation"
       class="st1">
      <path
         d="m 142.3,102.3 c 0,-0.5 1.2,-1.7 1.2,-2.1 0,-0.1 -0.1,-0.2 -0.2,-0.2 -0.5,0 -2.2,1.3 -4.7,1.3 -1,0 -1.7,-0.1 -1.7,-0.9 0,-0.7 0.6,-1.3 1.6,-1.7 1.1,-0.5 3.3,-0.5 3.3,-1 0,-0.4 -2.1,-0.4 -2.1,-0.8 0,-0.5 0.8,-1.7 0.8,-2.2 0,0 0,-0.2 -0.1,-0.2 -0.4,0 -1.4,1.2 -2,1.2 -0.6,0 -1.1,-1.5 -1.6,-1.5 -0.1,0 -0.3,0.1 -0.3,0.4 0,0.6 0.3,1.7 0.3,3.2 0,1.3 -0.7,2.4 -1.4,2.4 -0.9,0 -1.2,-1.1 -1.2,-2 0,-1.3 0.7,-2.8 0.7,-4.2 0,-0.3 -0.1,-0.4 -0.3,-0.4 -0.5,0 -1.3,1.5 -1.9,1.5 -0.4,0 -1.1,-1.8 -1.7,-1.8 -0.1,0 -0.2,0.3 -0.2,0.7 0,0.5 0.1,1.2 0.1,1.5 0,0.4 -0.5,0.5 -1.1,0.5 -0.4,0 -1.2,0 -1.2,0.3 0,0.3 0.8,0.6 1.5,1.1 1.3,0.9 3.4,1.8 3.4,3.9 0,1.9 -2.7,3.2 -4.6,3.6 -0.9,0.1 -1.8,0.3 -1.8,0.6 0,0.4 2.4,0.5 2.4,1 0,0.3 -1.1,1.7 -1.1,2.1 0,0.1 0.1,0.1 0.1,0.1 0.4,0 1.6,-1 2.1,-1 0.7,0 0.6,2.1 1.1,2.1 0.6,0 0.4,-3.1 0.6,-3.9 0.4,-1.4 1.4,-2.8 2.3,-2.8 1.1,0 1.2,1.9 1.2,2.8 0,1.8 -1.3,3.7 -1.3,4.6 0,0.1 0.1,0.2 0.2,0.2 0.4,0 1.3,-1.2 1.8,-1.2 0.5,0 1.6,2 2,2 0.2,0 0.3,-0.2 0.3,-0.4 0,-0.6 -0.3,-1.6 -0.3,-2.2 0,-0.7 2.3,-0.3 2.3,-0.8 0,-0.2 -1,-0.6 -1.6,-1 -1.3,-0.8 -2.8,-2.5 -2.8,-3.9 0,-0.5 0.3,-0.9 0.7,-0.9 2.8,0 4,4.3 4.5,4.3 0.5,0 0.2,-1.9 0.4,-2.2 0.1,-0.1 0.4,-0.2 0.7,-0.2 0.5,0 1.1,0.1 1.5,0.1 0.3,0 0.4,0 0.4,-0.1 -0.1,-0.6 -2.3,-1.3 -2.3,-1.9 z"
         id="path7" />
      <path
         d="m 131.2,101.1 c 0,-0.9 -3.9,-3.9 -4.7,-3.9 -0.2,0 -0.3,0.1 -0.3,0.3 0,0.3 0.1,0.7 0.1,1 0,0.7 -0.3,0.8 -1,0.8 -0.8,0 -2.1,-0.3 -2.1,-1.6 0,-2.5 4.8,-1.9 5.3,-4.2 -2.1,0 -3.1,-1.4 -4.5,-1.4 -0.5,0 -1.5,0.3 -1.5,1.6 0,0.4 0.1,1.1 0.1,1.7 0,0.6 -0.1,1 -0.8,1 -0.6,0 -0.7,-0.7 -0.7,-1.5 0,-0.7 0.1,-1.5 0.1,-2 0,-3.7 -4.1,-2.2 -4.5,-5.2 -1,1.8 -1.3,3.1 -1.3,4.2 0,3.9 5.3,3.5 5.3,6.2 0,0.7 -0.5,1.1 -1,1.1 -0.9,0 -1.5,-1.9 -2.9,-1.9 -0.7,0 -1.2,0.5 -1.2,1.6 0,0.8 0.2,1.4 0.2,2.2 0,1.6 -0.7,2.3 -1.4,3 4.8,-0.4 5.1,-4 6.5,-4 0.4,0 0.6,0.3 0.6,0.5 0,0.6 -1,1.6 -1,2.6 0,1.3 1.5,2 2.5,2 1.2,0 1.6,-0.4 1.6,-1.2 0,-0.9 -1.6,-2.1 -1.6,-3.1 0,-0.5 0.5,-0.6 1.2,-0.6 1.5,0 2,0.2 2,0.5 0,0.4 -0.6,1.2 -0.6,1.4 0,0.1 0.1,0.4 0.4,0.4 1.1,0.2 5.2,-0.7 5.2,-1.5 z"
         id="path8" />
    </g>
    <path
       id="hair"
       d="m 80.7,87.6 c -0.7,1.3 -0.9,3 -0.9,4 0,6.1 7.3,11.8 7.3,15.6 0,1.5 -1.1,3.3 -3.1,3.3 -1.8,0 -2.8,-1.4 -2.8,-2.6 0,-0.9 0.6,-1.7 0.9,-1.7 0.1,0 0.1,0.1 0.1,0.3 0,0.5 0.4,1.2 1.2,1.1 0.8,0 1.2,-0.5 1.2,-1.2 0,-3 -6,-8.2 -6,-15.3 -0.3,0.8 -0.7,1.8 -0.7,3.3 0,3.4 2.5,7 2.5,10.3 0,1.3 -1,2.5 -2.3,2.5 -1.5,0 -2,-1.2 -2,-1.9 0,-0.5 0.2,-1 0.4,-1 0.2,0 0.1,0.8 0.9,0.8 0.9,0 1.2,-0.6 1.2,-1.7 0,-3 -1.7,-5.1 -1.7,-8.2 0,-0.5 0,-1 0.1,-1.4 -0.9,1.1 -1,2.7 -1,4.1 v 3.7 c 0,2.5 -1.2,3.6 -2.7,3.6 -1,0 -1.9,-0.8 -1.9,-2.1 0,-0.2 0.1,-0.8 0.3,-0.8 0.3,0 0.5,0.8 1.3,0.8 1.6,0 1.7,-1.5 1.7,-4.6 -0.2,-3.8 1.2,-7.9 6,-10.9 z"
       class="st1" />
    <path
       id="hand"
       d="m 70.8,85.8 c 0.5,0 0.7,0.5 0.7,0.9 0,1.7 -2.2,6.7 -2.2,8.1 0,0.2 0.1,0.4 0.3,0.4 0.9,0 2.7,-3.9 3.3,-5.8 0.3,-1 0.8,-1.5 1.2,-1.5 0.4,0 0.7,0.4 0.7,1.2 0,1.9 -1.8,6.5 -3.4,9.5 -1.2,2.4 -3.2,5.8 -3.2,7.7 0,1 0.2,2 1.6,3.2 -2.3,-0.1 -3.3,-0.4 -4.2,-2.1 -3.9,7.6 7.2,6.9 3.4,13.7 -0.7,-1.2 -6.2,-2.5 -6.2,-9.6 0,-6.1 5.5,-9.7 5.5,-12.3 0,-0.5 -0.2,-0.9 -0.7,-1.3 -1.2,-1 -1.2,-1.8 -2.2,-1.8 -0.7,0 -1.5,1.6 -0.7,3 0.3,0.5 0.5,0.8 0.5,1.2 0,1 -1.6,3.7 -2.7,3.7 -1.1,0 -2,-2.8 -2,-7.2 0,-3.9 0.9,-7.9 2,-7.9 0.3,0 0.4,0.2 0.4,0.5 0,0.5 -0.1,1.4 -0.1,3 0,1.7 0.4,1.8 0.7,1.8 1.2,0 1,-7.5 3,-7.5 0.5,0 0.6,0.5 0.6,1 0,1.7 -0.8,4.2 -0.8,5.5 0,0.7 0.2,0.9 0.5,0.9 1,-0.1 2.5,-8.3 4,-8.3 z"
       class="st1" />
    <path
       id="plant"
       d="m 152.1,95.6 c -1.7,0 -2.6,3 -4.3,3.1 1,-4.3 5.3,-6.6 5.3,-10.6 0,-4.6 -3.8,-6.2 -5.4,-7.2 -2.6,-3.8 -4.5,-6.8 -8.8,-6.8 -1.8,0 -3,0.3 -4.2,0.3 -2.4,0 -3.2,-0.9 -3.3,-0.9 0,0 -0.1,0 -0.1,0.2 0,3.4 1.8,11 9.4,11 4.1,0 5.8,-1.6 6.8,-1.6 1,0 4.3,1.1 4.3,5 0,2.1 -1.7,4.3 -2.3,4.3 -0.6,0 -1.2,-1 -1.2,-2 0,-1.1 0.6,-3.2 0.6,-4.5 0,-0.5 -0.1,-0.7 -0.4,-0.7 -0.6,0 -3.7,2 -3.7,4.4 0,2.1 3.1,3.4 4.3,4 -1.2,1.9 -1.9,3.2 -2.4,5 0,-1.4 -1.3,-4.1 -1.7,-5.3 -1.9,-5.4 -2.6,-6.4 -6.7,-6.9 0.6,2.2 7.6,7.4 7.6,12.7 0,0.3 0,0.8 -0.1,1 -2.1,-6.2 -5.7,-7.7 -7,-9.2 -2.1,-2.4 -0.9,-4.7 -4.3,-6 0.2,0.3 0.3,0.7 0.3,1 0,1.2 -0.6,2.6 -0.6,3.6 0,3.8 4.3,2.6 6.9,4.7 2.5,2 3.9,5.3 4.9,9 1,-1.6 1.6,-3.6 3.3,-3.6 1.1,0 1.5,1.4 1.5,2.5 v 0.5 c 1.7,-1.5 2.6,-3.9 2.6,-5.5 -0.1,-0.8 -0.5,-1.5 -1.3,-1.5 z m -6.8,-14.1 c -0.4,0 -1,-0.2 -1.5,-0.2 -1.2,0 -2.1,1.7 -2.7,1.7 -0.2,0 -0.3,-0.2 -0.3,-0.4 0,-0.7 1.2,-1.5 1.2,-2 0,-0.3 -0.5,-0.4 -0.7,-0.4 -1.2,0 -2.9,1.7 -3.9,1.7 -0.2,0 -0.4,-0.1 -0.4,-0.3 0,-0.5 1.3,-1.1 1.3,-1.6 0,-0.5 -0.5,-0.5 -0.9,-0.5 -0.6,0 -1.8,0.3 -2.5,0.3 -0.4,0 -0.7,-0.1 -0.7,-0.4 0,-0.7 2.3,-0.3 2.3,-1.1 0,-0.4 -0.7,-1.2 -0.7,-1.6 0,-0.2 0.2,-0.3 0.4,-0.3 0.8,0 1.7,2.3 2.6,2.3 0.4,0 0.5,-0.3 0.5,-0.8 0,-0.5 -0.1,-0.7 -0.1,-1.1 0,-0.4 0.2,-0.5 0.3,-0.5 0.6,0 1.1,3.2 2.8,3.2 0.7,0 0.2,-2 0.9,-2 0.4,0 0.5,0.6 0.5,0.9 0.2,2.1 2.1,2.2 2.1,3 -0.1,-0.1 -0.2,0.1 -0.5,0.1 z"
       class="st1" />
    <g
       id="particles"
       class="st1">
      <path
         d="m 121.4,76.8 c 0.8,0 1.4,0.6 1.4,1.3 0,0.7 -0.6,1.3 -1.4,1.3 -0.7,0 -1.4,-0.6 -1.4,-1.3 0,-0.7 0.7,-1.3 1.4,-1.3 z m 9.2,12.6 c -0.7,0 -1.4,0.6 -1.4,1.3 0,0.8 0.7,1.3 1.4,1.3 0.8,0 1.4,-0.6 1.4,-1.4 0,-0.7 -0.6,-1.2 -1.4,-1.2 z M 126,86.9 c -1.4,0 -2.5,1.1 -2.5,2.4 0,1.3 1.1,2.4 2.5,2.4 1.4,0 2.5,-1.1 2.5,-2.4 0,-1.3 -1.1,-2.4 -2.5,-2.4 z m -4.4,-1.1 c -0.8,0 -1.4,0.6 -1.4,1.4 0,0.8 0.7,1.4 1.4,1.4 0.8,0 1.4,-0.6 1.4,-1.4 0,-0.8 -0.6,-1.4 -1.4,-1.4 z m 8.8,2.2 c 0.9,0 1.7,-0.7 1.7,-1.6 0,-0.9 -0.8,-1.6 -1.7,-1.6 -0.9,0 -1.7,0.7 -1.7,1.6 0,0.8 0.8,1.6 1.7,1.6 z m -13,-5.1 c -1.1,0 -2.1,0.9 -2.1,2 0,1.1 0.9,2 2.1,2 1.1,0 2.1,-0.9 2.1,-2 -0.1,-1.1 -1,-2 -2.1,-2 z m 7.5,1.5 c 0,0.8 0.6,1.4 1.4,1.4 0.8,0 1.4,-0.6 1.4,-1.4 0,-0.8 -0.6,-1.4 -1.4,-1.4 -0.8,0 -1.4,0.7 -1.4,1.4 z m -2.8,0.4 c 1.2,0 2.2,-0.9 2.2,-2.1 0,-1.2 -1,-2.1 -2.2,-2.1 -1.2,0 -2.2,0.9 -2.2,2.1 0,1.1 0.9,2.1 2.2,2.1 z m 8,-1.4 c 0.8,0 1.5,-0.7 1.5,-1.5 0,-0.8 -0.7,-1.5 -1.5,-1.4 -0.8,0 -1.5,0.7 -1.5,1.5 0,0.8 0.7,1.4 1.5,1.4 z m -12.1,-2 c 0.8,0 1.4,-0.6 1.4,-1.4 0,-0.8 -0.6,-1.4 -1.4,-1.4 -0.8,0 -1.4,0.6 -1.4,1.4 -0.1,0.8 0.6,1.4 1.4,1.4 z m 8.2,-0.1 c 1.3,0 2.3,-1 2.3,-2.2 0,-1.2 -1,-2.2 -2.3,-2.2 -1.3,0 -2.3,1 -2.3,2.2 0,1.2 1,2.2 2.3,2.2 z m 1.7,-5.2 c 0.8,0 1.4,-0.6 1.4,-1.3 0,-0.7 -0.6,-1.3 -1.4,-1.3 -0.8,0 -1.4,0.6 -1.4,1.3 0.1,0.8 0.7,1.3 1.4,1.3 z"
         id="path9" />
    </g>
    <path
       id="tree"
       d="m 87.5,77.9 c 0.9,0 2.5,1.5 2.9,3.1 -0.2,0 -0.4,-0.1 -0.5,-0.1 -1.2,0 -1.8,1.1 -2.7,3 2.1,-1.4 4,-2.5 6.2,-2.5 1.9,0 3.4,1.1 3.4,2.8 0,0.7 -0.4,1.5 -0.8,2.3 -0.3,-1.6 -1.6,-2.3 -3.9,-2.3 -1.3,0 -2.9,0.2 -4.2,0.7 4.1,0.6 4.7,2 4.7,3.3 0,2.2 -2.3,3.3 -3.8,4 0.1,-0.6 0.3,-1.3 0.3,-2 0,-1.3 -0.5,-2.9 -2.6,-4.3 -0.3,1.4 -1.5,2.3 -1.5,3.4 0,0.4 0.3,0.6 0.5,0.6 0,0.6 -0.3,2.4 -0.3,2.9 0,0.9 0.2,1.1 0.7,1.2 0.3,0.8 0.3,2.2 0.5,2.9 0.1,0.4 0.4,0.5 0.7,0.5 0.3,0.7 0.7,1.8 1.3,2.2 0.1,0.1 0.3,0.4 0.3,0.6 0,0.6 -1,1.3 -1.6,1.3 -0.2,0 -0.5,-0.1 -0.8,-0.8 -0.2,-0.5 -2,-1.6 -2.1,-2.2 0.1,-0.1 0.2,-0.3 0.2,-0.6 0,-1 -1.6,-2.1 -1.6,-3.7 0.2,-0.1 0.4,-0.4 0.4,-0.7 0,-0.9 -0.9,-2.6 -0.9,-3.8 0.4,0 0.6,0 0.6,-0.6 0.1,-1.2 0.3,-2.9 1.4,-3.9 -0.3,0 -0.6,-0.1 -1,-0.1 -2.2,0 -5.5,1.2 -6.8,4 -0.1,-0.4 -0.1,-0.8 -0.1,-1.2 0,-2.3 1.4,-3.8 2.5,-4.3 0.5,-0.2 1.2,-0.3 1.9,-0.3 1.2,0 2.5,0.2 3.9,0.5 -1.2,-1.6 -3.1,-2.7 -4.7,-2.7 -0.7,0 -1.3,0.2 -1.5,0.8 -0.1,-0.3 -0.1,-0.8 -0.1,-1.2 0,-1.7 0.6,-2.7 2.1,-2.7 2.2,0 4.2,2.6 5.3,5 v -0.3 c 0,-3.4 0.1,-5.1 1.5,-5.2 z"
       class="st1" />
    <g
       id="bee"
       class="st1">
      <path
         d="m 59.7,83.6 c 0,2.7 0.9,4 2.4,4 1.2,0 2.8,-0.8 4.7,-2.4 -1.5,0.3 -2.6,0.5 -3.6,0.5 -1.3,0 -2.4,-0.5 -3.5,-2.1 z m 10.4,-3.7 c -0.9,0.2 -2.6,1.2 -2.6,3 0,1.3 1,2.1 2.3,2.1 0.7,0 1.2,-0.1 1.5,-0.4 -1,-1 -1.4,-2 -1.4,-3.1 0,-0.7 0.1,-1.2 0.2,-1.6 z M 73.2,77 c -0.8,0.9 -1.7,2.5 -1.7,4.1 0,1.9 1.2,3.5 3.1,3.5 1.8,0 2.7,-1.5 2.7,-3 0.1,-2.4 -2.2,-4.1 -4.1,-4.6 z M 61,80.4 v 0.5 c 0,1.7 0.9,2.6 2.2,2.6 0.9,0 2,-0.5 3,-1.7 -0.4,0.1 -0.9,0.1 -1.3,0.1 -1.5,0.1 -3,-0.3 -3.9,-1.5 z m 7.4,-9.2 c -1.2,0 -2.7,0.1 -4.3,1.1 -3.2,2 -2.8,5.2 -3.3,6.1 -0.1,0.1 -0.1,0.2 -0.1,0.4 0,0.3 0.4,0.7 0.7,0.7 0.3,0 0.5,-0.1 0.6,-0.1 0.9,0 1.9,0.6 3.4,0.6 0.9,0 1.9,-0.3 3.1,-0.9 2.7,-1.3 3.7,-4.5 3.7,-5 0,-0.7 -0.6,-0.6 -1,-1.2 -0.5,-0.6 -0.3,-1.2 -0.6,-1.5 -0.2,-0.2 -0.7,-0.2 -1.4,-0.2 z m -2.2,7.1 c -1.2,0 -2.6,-1.5 -2.6,-2.8 0,-0.7 0.6,-1.6 1,-1.6 0.1,0 0.2,0.1 0.3,0.4 0.2,1.7 1.4,2.7 2.5,3.2 0.1,0.1 0.2,0.1 0.2,0.2 -0.1,0.3 -0.8,0.6 -1.4,0.6 z M 70.6,75 c 0,0.5 -0.3,1.1 -0.9,1.1 -1.3,0 -2.3,-1.9 -2.4,-3 0,-0.7 0.4,-0.7 1,-0.7 0.3,0 0.4,0 0.6,0.1 0.3,0.2 0.3,0.9 0.7,1.4 0.3,0.4 1,0.8 1,1.1 z m 2.8,-1.6 c 0,0.8 0.7,1.4 1.5,1.4 0.8,0 1.5,-0.6 1.5,-1.4 0,-0.8 -0.7,-1.4 -1.5,-1.4 -0.8,-0.1 -1.5,0.6 -1.5,1.4 z m -0.5,-1.8 c 0.8,0 1.5,-0.6 1.5,-1.4 0,-0.8 -0.7,-1.4 -1.5,-1.4 -0.8,0 -1.5,0.6 -1.5,1.4 0.1,0.7 0.7,1.4 1.5,1.4 z M 62.8,70.9 c 1.3,0 2.4,-0.8 2.4,-0.8 C 63,69.5 61.8,68 61.8,65.9 v -0.6 c -1.4,0.6 -2,1.7 -2,2.8 0.1,1.7 1.4,2.8 3,2.8 z m 6.5,-1.6 c 0.2,-0.6 0.3,-1.3 0.3,-2.1 0,-1.7 -0.8,-4.3 -3.4,-4.3 -1.5,0 -2.5,1.1 -2.5,2.4 0.1,2.9 3.1,4 5.6,4 z"
         id="path10" />
    </g>
    <g
       id="ice_cream"
       class="st1">
      <path
         d="m 151.5,68.4 c -1.6,3.2 -5.6,3.9 -6.9,3.7 0.4,3.3 5.3,7.7 6.6,7.6 0.9,-0.1 1.2,-4.3 1.2,-7.6 0,-1.9 0.1,-3.4 -0.9,-3.7 z m 0.1,-3.1 c 0,-1.2 -0.5,-2.1 -1.9,-2.3 0.2,0.3 0.3,0.6 0.3,1.1 0,1.9 -2.8,4 -5.9,4 -1.1,0 -1.5,0.8 -1.4,1.2 0,1 0.9,1.4 2.2,1.4 3.5,-0.1 6.7,-2.9 6.7,-5.4 z"
         id="path11" />
      <path
         d="m 144.1,66.8 c 1.4,0 4.4,-1.2 4.4,-2.8 0,-0.5 -0.2,-1 -1,-1 -1.1,0 -2.6,1.1 -4.1,1.1 -0.5,0 -1.1,0 -1.7,-0.2 0.6,0.4 0.5,1.4 0.8,2.1 0.5,0.8 1.1,0.8 1.6,0.8 z"
         id="path12" />
    </g>
    <g
       id="cycle"
       class="st1">
      <path
         d="m 125.3,67.6 c 0,3.2 -2.2,4.5 -4.2,4.5 -0.5,0 -0.9,-0.1 -1.3,-0.3 0.4,-0.4 0.8,-1 0.8,-1.4 0,-0.3 -0.2,-0.4 -0.5,-0.4 -0.2,0 -0.7,0.1 -1.1,0.1 -1,0 -1.8,-0.4 -2.7,-1.3 -0.6,0.9 -0.9,2.1 -0.9,3.3 0,1.9 0.7,3.8 1.5,3.9 0.4,0 0.4,-1.3 1.1,-1.3 0.2,0 1,0.6 2.7,0.6 2.5,0 5.3,-1.5 5.3,-5.4 -0.1,-0.5 -0.3,-1.7 -0.7,-2.3 z"
         id="path13" />
      <path
         d="m 119.6,65.6 c 0.5,0 1.5,0.2 1.8,0.7 -0.4,0.2 -0.8,0.7 -0.8,1.1 0,0.2 0.1,0.4 0.3,0.5 0.9,0.4 1.4,1.1 1.7,1.7 1.6,-0.9 2.2,-3.4 2.2,-4.8 0,-0.4 0,-1 -0.4,-1 -0.3,0 -0.6,0.4 -1,0.4 -0.3,0 -1.2,-1.2 -3.4,-1.2 -2.5,0 -3.6,1.9 -3.6,3.5 0,0.4 0.1,0.9 0.2,1.2 0.5,-1 1.5,-2.1 3,-2.1 z"
         id="path14" />
    </g>
    <path
       id="DNA"
       d="m 94.3,67.7 c -1.8,0 -3.4,1.5 -4.6,3.5 0.1,-0.4 0.1,-0.8 0.1,-1.2 0,-2.8 -1.5,-5.2 -4.2,-5.2 -2.2,0 -4.3,1.3 -5.1,3.9 0.2,-0.2 1,-0.7 1.6,-0.7 0.7,0 0.9,0.6 0.9,1.6 0,0.6 -0.1,1.4 -0.4,2.1 -0.4,1.2 -1.2,1.5 -1.6,1.5 -1.7,0 -0.9,-2.9 -1.8,-2.9 -0.7,0 -0.9,1.6 -0.9,2.2 0,2 1.3,4.1 4.2,4.1 3.1,0 4.8,-1.5 6.6,-3.4 0.4,2.1 1.5,5.8 4.6,5.8 1.7,0 2.9,-1.4 3,-3.1 -0.2,0.2 -0.5,0.4 -0.9,0.4 -0.6,0 -0.8,-0.9 -0.8,-1.7 0,-1.3 0.4,-2.7 1,-2.7 0.3,0 0.5,0.2 0.6,1.2 0.1,0.7 0,1.6 0.5,1.6 0.5,0 0.7,-1.5 0.7,-2.4 -0.1,-2.6 -1.2,-4.7 -3.5,-4.6 z M 84,74.5 c -0.3,0 -0.4,-0.3 -0.4,-0.5 0,-1.4 1.5,-7.6 2.6,-7.6 0.2,0 0.3,0.2 0.3,0.5 0,1.1 -1.3,7.6 -2.5,7.6 z m 4.6,-2.7 c -0.9,1 -1.4,1.5 -1.8,1.5 -0.2,0 -0.4,-0.4 -0.4,-0.8 0,-0.7 0.5,-3.6 1.6,-3.6 0.4,0 0.7,0.8 0.7,1.5 0,0.6 0,1 -0.1,1.4 z m 2.1,2.5 c -0.3,0 -0.6,-0.6 -0.6,-1.8 0.6,-1 0.9,-1.4 1.3,-1.4 0.1,0 0.3,0.1 0.3,0.7 -0.1,1.3 -0.6,2.5 -1,2.5 z m 1.8,2.1 c -0.2,0 -0.4,-0.3 -0.4,-1.1 0,-1.9 1.2,-5.4 1.9,-5.4 0.2,0 0.3,0.5 0.3,1 0.1,2.1 -0.9,5.5 -1.8,5.5 z"
       class="st1" />
    <path
       id="lips"
       d="m 138.4,63.6 c -0.7,0 -1.8,0.8 -2.6,0.8 -1.1,0 -0.8,-1.5 -2,-1.5 -0.3,0 -0.6,0.1 -0.9,0.3 -2.5,1.3 -4.5,0.8 -4.9,1.1 -0.1,0.1 -0.2,0.1 -0.2,0.4 0,2.8 2.8,7 7.4,7 3.2,0 5.8,-1.1 5.8,-3 -0.1,-1.6 -1.6,-5.1 -2.6,-5.1 z m -2.9,5.4 c -2.6,0 -4.2,-1.5 -4.2,-2.4 0,-0.1 0.1,-0.2 0.2,-0.2 0.4,0 1.5,0.6 3,0.8 1.7,0.3 2.6,0.3 3.1,0.3 0.5,0 0.7,0.1 0.7,0.3 -0.1,0.5 -1.3,1.2 -2.8,1.2 z"
       class="st1" />
    <path
       id="dove"
       d="m 152.4,46.8 c -1.8,0 -2,-0.5 -3.2,-0.5 -1.4,0 -2.4,1 -2.4,2.5 0,0.5 0.2,1.3 0.2,2.3 0,1.2 -0.2,2.4 -1.3,2.4 -1,0 -1.4,-0.7 -1.4,-1.5 0,-1.4 0.7,-2.4 0.7,-3.3 0,-1.7 -2,-2.2 -4.2,-2.2 -2.6,0 -5.4,0.7 -5.4,1.1 0,0.6 3.7,0.2 6.4,3.7 -1.7,0 -5,0.8 -5,1.3 0,0.6 6,1.2 6,3.7 0,1.6 -1.3,1.8 -1.8,1.8 -2,0 -3,-2.1 -3.5,-2.1 -0.1,0 -0.3,0.1 -0.3,0.3 0,0.3 0.3,1.2 0.3,2.1 0,2.3 -2.5,2.5 -2.5,3 0,0.2 0.1,0.2 0.4,0.3 1.8,0.3 3.7,0.4 5.4,0.4 6.4,0 11.5,-2 11.5,-7.6 0,-3.1 -1,-4.1 -1,-5.6 -0.2,-0.5 0.2,-1.6 1.1,-2.1 z M 143.5,59 h -1.3 c 4.1,-0.7 6.4,-3.1 6.4,-6.3 0.9,0.3 1.5,1.2 1.5,2.2 -0.1,1.9 -1.8,4.1 -6.6,4.1 z m 5.7,-9.7 c -0.5,0 -0.9,-0.4 -0.9,-0.9 0,-0.5 0.4,-0.9 0.9,-0.9 0.5,0 0.9,0.4 0.9,0.9 0,0.5 -0.4,0.9 -0.9,0.9 z"
       class="st1" />
    <path
       id="spark"
       d="m 127.5,45.6 c -2.4,0 -4.2,1.2 -5.2,1.2 -0.6,0 -1.4,-1.4 -1.9,-1.4 -0.2,0 -0.4,0.4 -0.4,1 v 0.2 c 0,0.5 -0.1,1.4 -0.4,1.4 -0.9,0 -4.3,-2.4 -4.3,-1.6 0,0.8 2.3,3.3 2.3,3.9 0,0.6 -2.2,1.2 -2.2,1.7 0,0.8 2.4,0.9 2.4,1.9 0,1 -2.5,1.8 -2.5,2.5 0,0.6 2.5,0.2 2.5,0.9 0,0.7 -1.8,3.2 -1.8,3.9 0,0.2 0,0.2 0.2,0.2 0.7,0 2.8,-2.3 3.3,-2.3 0.6,0 0.7,1.4 0.8,2.2 0.1,0.4 0.1,0.5 0.3,0.5 0.4,0 1.1,-1.6 1.6,-1.6 0.7,0 2.5,1.9 5.6,1.9 4.4,0 8.5,-3 8.5,-8.3 0.1,-5.2 -3.7,-8.2 -8.8,-8.2 z M 121.4,57 c -0.1,0 -0.2,-0.1 -0.2,-0.3 l -0.1,-1.4 c 0,-0.1 -0.1,-0.3 -0.3,-0.3 h -1.5 c -0.2,0 -0.3,0 -0.3,-0.1 0,-0.3 1.5,-1.3 1.5,-1.5 0,-0.4 -1.4,-1.1 -1.4,-1.6 0,-0.1 0.1,-0.1 0.2,-0.1 0.4,0 1.1,0.1 1.6,0.1 0.5,0 0.5,-2 0.9,-2 0.3,0 0.7,1.9 1.1,1.9 0.5,0 1.3,-0.5 1.7,-0.5 0.1,0 0.1,0 0.1,0.1 0,0.2 -0.9,1.2 -0.9,1.5 0,0.3 2,0.7 2,1 0,0.4 -2.1,0.3 -2.1,0.6 0,0.2 0.8,1.2 0.8,1.6 0,0.1 0,0.1 -0.1,0.1 -0.3,0 -1.4,-0.5 -1.7,-0.5 -0.4,0 -1,1.4 -1.3,1.4 z m 6.2,3.1 c -2.5,0 -4.2,-1.2 -4.2,-1.9 0,-0.3 0.2,-0.5 0.5,-0.5 0.8,0 2.5,1.2 3.1,1.2 0.1,0 0.3,-0.1 0.3,-0.3 0,-0.6 -0.6,-1.7 -0.6,-2.2 0,-0.1 0.1,-0.2 0.3,-0.2 1,0 2.4,0.4 3.2,0.4 0.3,0 0.3,-0.1 0.3,-0.3 0,-0.8 -2.4,-2.3 -2.4,-2.8 0,-0.4 2.9,-1.1 2.9,-1.7 0,-0.7 -4,-0.2 -4,-0.9 0,-0.5 0.8,-1.3 0.8,-1.7 0,-0.2 -0.1,-0.2 -0.4,-0.2 -0.3,0 -2.1,0.7 -2.8,0.7 -0.4,0 -0.8,-0.1 -0.8,-0.6 0,-0.8 1.4,-1.7 3.6,-1.7 3.6,0 5.7,2.4 5.7,6.4 0.1,5 -3.5,6.3 -5.5,6.3 z"
       class="st1" />
    <g
       id="sun"
       class="st1">
      <path
         d="m 89.6,55.8 c 1.4,0 5.6,1.9 7.5,1.9 0.7,0 1.1,-0.4 1.1,-0.8 0,-2.2 -5.9,-6.1 -6,-7.7 0,-0.2 0.1,-0.3 0.2,-0.4 1,-1.1 5.2,-1.8 5.2,-2.7 0,-0.5 -0.9,-0.5 -1.3,-0.5 -3.4,0 -8.3,1.2 -8.3,2.4 0,1.2 4.4,4.2 4.4,5.7 0,0.4 -0.3,0.5 -0.7,0.5 -1.2,0 -3.9,-1.5 -5.2,-1.5 -0.6,0 -0.8,0.4 -0.8,1 0,1.7 2.1,5 2.1,6 0,0.1 0,0.3 -0.2,0.3 -0.7,0 -3.7,-3.6 -4.8,-3.6 -0.4,0 -0.4,0.5 -0.4,1.3 v 1.2 c 0,0.8 0,1.3 -0.4,1.3 -0.9,0 -1.4,-2.6 -2.3,-2.6 -0.9,0 -1.1,4.7 -2,4.7 -1.1,0 -0.2,-5.1 -1.2,-5.1 -1.1,0 -2.4,3.4 -3.2,3.4 -0.3,0 -0.4,-0.3 -0.4,-0.5 0,-1 0.6,-2.7 0.6,-3.7 0,-0.5 -0.1,-0.8 -0.6,-0.8 -1.1,0 -3.6,1.8 -4.5,1.8 -0.1,0 -0.3,-0.1 -0.3,-0.2 0,-0.9 4,-3.6 4,-4.8 0,-1.2 -5.5,-0.4 -5.5,-1.8 0,-1.1 3.9,-2.3 3.9,-3.5 0,-1 -4.6,-1.5 -6.4,-1.5 -2.1,0 -3.3,0.3 -3.3,0.9 0,0.9 4.9,1.2 4.9,2 0,0.8 -5.1,2.9 -5.1,4.1 0,1.1 7.1,0.1 7.1,1.2 0,1.2 -6.2,6.5 -6.2,8.3 0,0.4 0.3,0.6 0.7,0.6 1.9,0 6.8,-3.6 8.1,-3.6 0.5,0 0.5,0.6 0.5,1.1 0,0.9 -0.3,2.4 -0.3,3.4 0,0.8 0.2,1.4 0.9,1.4 1.3,0 2.6,-2.3 3.5,-2.3 1.2,0 0.5,6.6 2.2,6.6 1.5,0 2.1,-7.2 3,-7.2 0.9,0 1.7,2.1 2.6,2.1 1.1,0 0.6,-3.6 1.7,-3.6 1.3,0 4.9,4.3 6.6,4.3 0.5,0 0.7,-0.4 0.7,-0.9 0,-1.9 -2.7,-6.2 -2.7,-7.6 0.1,-0.5 0.2,-0.6 0.6,-0.6 z"
         id="path15" />
      <path
         d="m 91.9,58.3 c -0.1,0 -0.2,0.1 -0.2,0.2 0,1.3 4.6,7.4 5.4,7.4 0.7,0 1.3,-1.3 1.3,-2.3 0,-0.3 -0.1,-0.6 -0.2,-0.8 -0.7,-1 -5.3,-4.5 -6.3,-4.5 z M 65,54.8 c 0,-0.3 -0.6,-0.4 -1.1,-0.4 -0.8,0 -1.9,0.2 -2.4,0.6 -0.4,0.3 -0.7,1.3 -0.7,2 0,0.4 0.1,0.8 0.5,0.8 0.9,0.1 3.7,-2.3 3.7,-3 z m 6.5,-4.5 c 0.8,0 2.1,-0.4 3,-0.4 0.5,0 1,0.1 1,0.6 0,0.9 -2,2.5 -2,3.2 0,0.2 0.2,0.3 0.4,0.3 0.7,0 2,-1.8 3.1,-1.8 1.9,0 0.7,4.1 1.7,4.1 1.1,0 0.6,-4 2.2,-4 1.3,0 2.2,2.8 3.1,2.8 0.2,0 0.4,-0.2 0.4,-0.4 0,-0.8 -1.1,-2.3 -1.1,-3.3 0,-0.6 0.4,-0.9 1,-0.9 0.8,0 2,0.5 2.6,0.5 0.2,0 0.4,-0.1 0.4,-0.3 0,-0.9 -3.2,-1.8 -3.2,-2.9 0,-1.1 1.8,-1.1 1.8,-1.6 0,-0.2 -1.1,-0.4 -2.6,-0.4 -2.4,0 -2,1.9 -3.9,1.9 -1.9,0 -1.4,-2 -3.8,-2 -1.5,0 -2.8,0.3 -2.8,0.6 0,0.4 1.7,0.2 1.7,1.4 0,1.3 -3.7,1.6 -3.7,2.4 0,0.1 0.3,0.2 0.7,0.2 z m 22.9,-0.5 c 0,0.6 2.3,2 3.3,2 0.6,0 0.8,-0.8 0.8,-1.7 C 98.5,49 98,49 97.1,49 c -1.2,0 -2.7,0.3 -2.7,0.8 z"
         id="path16" />
    </g>
  </g>
</svg>
