<?xml version="1.0" encoding="UTF-8"?>
<svg version="1.1" viewBox="0 0 48 48" xmlns="http://www.w3.org/2000/svg" xmlns:xlink="http://www.w3.org/1999/xlink"><defs><filter id="c" x="-.15377" y="-.13944" width="1.2844" height="1.278" color-interpolation-filters="sRGB"><feGaussianBlur stdDeviation="1.6550031"/></filter><filter id="d" x="-.089608" y="-.22625" width="1.1792" height="1.4525" color-interpolation-filters="sRGB"><feGaussianBlur stdDeviation="0.46346148"/></filter><clipPath id="e"><path d="m19.854 4.0684a1.5 1.5 0 0 0-0.41797 0.00586l-7.543 1.1484a1.5 1.5 0 0 0-1.0137 0.64062l-3.3418 4.9219a1.5 1.5 0 0 0-0.25195 0.99609l0.11523 1.1152-2.9844-0.08203a1.5 1.5 0 0 0-1.2812 2.3438l2.0352 2.9961a1.5 1.5 0 0 0 0.49414 0.45703l2.957 1.6973 1.8164 1.8398-2.7637 0.70312a1.5 1.5 0 0 0-0.85156 0.58398l-3.3867 4.7598a1.5 1.5 0 0 0-0.27734 0.86914v5.1621a1.5 1.5 0 0 0 0.34961 0.96289l4.1191 4.9199a1.5 1.5 0 0 0 0.53516 0.40625l4.4648 2.0059a1.5 1.5 0 0 0 0.375 0.11133l7.9512 1.2871a1.5 1.5 0 0 0 0.24023 0.01953h13.455a1.5 1.5 0 0 0 0.80859-0.23633l8.4141-5.3789a1.5 1.5 0 0 0 0.68945-1.1777l0.5625-9.7344a1.5 1.5 0 0 0-0.16602-0.77734l-1.5957-3.0742 0.17578-3.0137a1.5 1.5 0 0 0-0.56445-1.2617l-2.5879-2.0547a1.5 1.5 0 0 0-1.123-0.31445l-4.332 0.55078a1.5 1.5 0 0 0-0.86133 0.41797l-3.6816 3.6152h-3.9531l0.69531-0.75a1.5 1.5 0 0 0 0.33008-0.57031l1.6836-5.375a1.5 1.5 0 0 0-0.07227-1.082l-3.1016-6.6602a1.5 1.5 0 0 0-0.76367-0.74414l-4.9473-2.1387a1.5 1.5 0 0 0-0.4043-0.11133z" vector-effect="non-scaling-stroke" style="-inkscape-stroke:hairline"/></clipPath></defs><g transform="matrix(1.035 0 0 1.035 -1.5778 -1.0325)" display="none"><g id="a" transform="matrix(.042376 0 0 .042376 4.0882 3.4467)"><path d="m399.64 726.02c0 11.295-2.594 19.306-7.782 24.034-5.187 4.728-13.757 7.092-25.708 7.092h-39.4v-137.9h37.036c11.689 0 20.258 2.364 25.709 7.092 5.45 4.728 8.175 12.608 8.175 23.64v11.229c0 10.113-3.612 17.73-10.835 22.852 8.537 4.728 12.805 12.805 12.805 24.231zm-19.109-77.815c0-4.991-1.149-8.602-3.447-10.835-2.299-2.233-5.943-3.349-10.934-3.349h-22.261v43.537h22.261c4.071 0 7.486-1.313 10.244-3.94s4.137-6.107 4.137-10.441zm1.97 58.312c0-4.334-1.313-7.781-3.94-10.343-2.627-2.561-6.107-3.841-10.441-3.841h-24.231v50.038h24.034c4.991 0 8.668-1.149 11.032-3.448 2.364-2.298 3.546-5.942 3.546-10.933z"/><path d="m459.75 757.14c-11.426 0-20.193-2.791-26.3-8.373-6.107-5.581-9.16-13.954-9.16-25.117v-70.92c0-11.163 3.053-19.536 9.16-25.118 6.107-5.581 14.874-8.372 26.3-8.372h27.974v14.972h-29.944c-4.859 0-8.799 1.445-11.82 4.334s-4.531 6.37-4.531 10.441v78.406c0 4.071 1.51 7.552 4.531 10.441s6.961 4.334 11.82 4.334h29.944v14.972z"/><path d="m582.12 723.66c0 11.163-3.054 19.536-9.161 25.117-6.107 5.582-14.873 8.373-26.299 8.373h-27.974v-14.972h29.944c4.859 0 8.799-1.445 11.82-4.334s4.531-6.37 4.531-10.441v-20.488c0-3.94-1.018-7.125-3.054-9.555-2.035-2.429-5.089-3.644-9.16-3.644h-5.91c-9.719 0-17.402-2.856-23.049-8.57-5.647-5.713-8.471-14.019-8.471-24.92v-7.486c0-11.163 3.053-19.536 9.16-25.118 6.107-5.581 14.874-8.372 26.3-8.372h28.171v14.972h-30.141c-4.859 0-8.799 1.445-11.82 4.334s-4.531 6.37-4.531 10.441v14.972c0 4.071 1.313 7.453 3.94 10.145 2.627 2.693 6.041 4.039 10.244 4.039h5.91c9.325 0 16.581 2.692 21.768 8.077 5.188 5.385 7.782 13.527 7.782 24.428z"/><path d="m674.93 723.66c0 11.163-3.054 19.536-9.161 25.117-6.107 5.582-14.873 8.373-26.299 8.373h-27.974v-14.972h29.944c4.859 0 8.799-1.445 11.82-4.334s4.531-6.37 4.531-10.441v-20.488c0-3.94-1.018-7.125-3.054-9.555-2.035-2.429-5.089-3.644-9.16-3.644h-5.91c-9.719 0-17.402-2.856-23.049-8.57-5.647-5.713-8.471-14.019-8.471-24.92v-7.486c0-11.163 3.053-19.536 9.16-25.118 6.107-5.581 14.874-8.372 26.3-8.372h28.171v14.972h-30.141c-4.859 0-8.799 1.445-11.82 4.334s-4.531 6.37-4.531 10.441v14.972c0 4.071 1.313 7.453 3.94 10.145 2.627 2.693 6.041 4.039 10.244 4.039h5.91c9.325 0 16.581 2.692 21.768 8.077 5.188 5.385 7.782 13.527 7.782 24.428z"/></g><g id="b"><path d="m10.751 19.463 3.6648 3.7129-5.1184 1.3035-3.2726 4.5987v4.9869l3.9792 4.7544 4.3152 1.938 7.6808 1.2425h13l8.13-5.1959 0.54266-9.4055-1.7242-3.3251 0.19139-3.3085-2.5004-1.9865-4.1837 0.5325-3.9806 3.9082h-7.7292l2.9245-3.1588 1.6279-5.1937-2.9974-6.434-4.7803-2.0671-7.2867 1.1111-3.2299 4.7544 0.28101 2.7208"/><path d="m35 42 8.6726-14.601"/><path d="m43.13 36.804-11.655-13.585"/><path d="m35 42 0.45574-22.689" display="none"/><path d="m43.13 36.804-7.6742-17.493" display="none"/><path d="m43.673 27.399-12.197-4.1795"/><path d="m41.948 24.073-6.4927-4.7625"/><path d="m35.288 27.663 0.16777-8.3524"/><path d="m40.987 31.92-5.5315-12.609"/><path transform="translate(517.28 643.96)" d="m-502.96-603.21-5.0218-16.278"/><path transform="translate(517.28 643.96)" d="m-502.87-620.79-8.391 10.889"/><path transform="translate(517.28 643.96)" d="m-495.28-601.96-15.975-7.9349"/><path transform="translate(517.28 643.96)" d="m-495.49-602.17-15.762-12.713" display="none"/><path transform="translate(517.28 643.96)" d="m-505.01-609.85-6.2453-5.0372"/><path d="m10.004 12.231 10.517-5.8655"/><path d="m13.234 7.4765 15.064 7.39"/><path d="m26.67 20.06-6.1498-13.695"/><path d="m23.746 23.219 1.555-14.787" display="none"/><path d="m24.57 15.383-0.82406 7.8362"/><path d="m10.285 14.952 0.46594 4.5113-3.0338-1.7413m2.5679-2.77-4.5336-0.12343 1.9657 2.8934"/><path d="m7.7172 17.722 2.5679-2.77"/></g></g><g><g clip-path="url(#e)"><g><rect transform="translate(517.28 643.96)" x="-517.28" y="-643.96" width="48" height="48" fill="#082e42"/><use transform="matrix(1.035 0 0 1.035 -1.5778 -1.0325)" fill="#000000" filter="url(#d)" stroke="#000000" stroke-width="9.9031" xlink:href="#a"/><use transform="matrix(1.035 0 0 1.035 -1.5778 -1.0325)" fill="#fefefe" stroke="#ffffff" stroke-width="8.6954" xlink:href="#a"/></g><use transform="matrix(1.035 0 0 1.035 -1.5778 -1.0325)" fill="none" filter="url(#c)" stroke="#000000" stroke-width="1.9323" xlink:href="#b"/><use transform="matrix(1.035 0 0 1.035 -1.5778 -1.0325)" fill="none" stroke="#ffffff" stroke-linecap="round" stroke-linejoin="round" stroke-width=".72462" xlink:href="#b"/></g></g></svg>
