<?xml version="1.0" encoding="UTF-8" standalone="no"?>
<svg
   width="1000"
   height="875.15948"
   viewBox="0 0 1000 875.15948"
   version="1.1"
   xml:space="preserve"
   style="clip-rule:evenodd;fill-rule:evenodd;stroke-linecap:round;stroke-miterlimit:1.5"
   id="svg48"
   sodipodi:docname="bathhack25.svg"
   inkscape:version="1.4 (e7c3feb100, 2024-10-09)"
   xmlns:inkscape="http://www.inkscape.org/namespaces/inkscape"
   xmlns:sodipodi="http://sodipodi.sourceforge.net/DTD/sodipodi-0.dtd"
   xmlns="http://www.w3.org/2000/svg"
   xmlns:svg="http://www.w3.org/2000/svg"><defs
   id="defs48" /><sodipodi:namedview
   id="namedview48"
   pagecolor="#ffffff"
   bordercolor="#000000"
   borderopacity="0.25"
   inkscape:showpageshadow="2"
   inkscape:pageopacity="0.0"
   inkscape:pagecheckerboard="false"
   inkscape:deskcolor="#d1d1d1"
   inkscape:zoom="0.49184483"
   inkscape:cx="468.64374"
   inkscape:cy="382.23438"
   inkscape:window-width="1916"
   inkscape:window-height="1017"
   inkscape:window-x="0"
   inkscape:window-y="0"
   inkscape:window-maximized="0"
   inkscape:current-layer="svg48" />
    <g
   transform="matrix(0,-0.89598763,0.86993103,0,39.552029,921.41128)"
   id="g1">
        <path
   d="m 540,-21.415 467.65,275.354 V 804.646 L 540,1080 72.346,804.646 V 253.939 Z"
   style="fill:#ffbc33;stroke:#2c3d96;stroke-width:41.45px"
   id="path1" />
    </g>
    <g
   transform="matrix(0.83488827,0,0,0.83488827,56.143313,-29.908413)"
   id="g37">
        <g
   transform="rotate(-18.667573,183.38594,519.19247)"
   id="g2">
            <path
   d="m 217.863,501.65 7.991,23.406 h 25.859 l -20.92,14.467 7.99,23.406 -20.92,-14.466 -20.92,14.466 7.991,-23.406 -20.92,-14.467 h 25.859 z"
   style="fill:#fff3bf;stroke:#000000;stroke-width:10.96px;stroke-linejoin:round"
   id="path2" />
        </g>
        <g
   transform="matrix(0.851047,0.058166,-0.0550257,0.805101,132.248,57.6675)"
   id="g3">
            <path
   d="m 328.85,380.771 c 0,0 68.118,-149.432 231.447,-152.043 98.61,-1.576 159.144,-4.712 200.436,-14.683 15.772,-3.809 -70.638,101.418 -106.157,109.284 -35.519,7.867 -87.86,31.091 -75.233,61.884"
   style="fill:#2c3d96;stroke:#000000;stroke-width:17.1px;stroke-linejoin:round"
   id="path3" />
        </g>
        <g
   transform="matrix(0.873359,0.0430138,-0.0479091,0.972753,114.359,82.1083)"
   id="g4">
            <path
   d="M 540,494.187 C 523.785,456.215 387.383,443.365 354.641,511.206 323,576.768 254.052,676.282 324.259,748.808 c 64.874,67.018 383.641,68.035 471.999,-137.306 14.877,-34.572 33.496,-98.088 21.264,-94.101 -4.953,1.614 -30.099,32.449 -43.909,39.38 -21.142,10.61 31.249,-58.187 19.772,-54.507 -12.862,4.123 -49.961,40.989 -54.666,37.726 -4.705,-3.263 27.82,-47.322 23.822,-51.413 -3.998,-4.091 -19.352,13.673 -52.608,19.656 -40.6,7.305 -93.032,6.771 -113.726,9.659 -54.748,7.64 -47.322,-2.909 -56.207,-23.715 z"
   style="fill:#fff3bf;stroke:#000000;stroke-width:15.34px;stroke-linejoin:round"
   id="path4" />
        </g>
        <g
   transform="matrix(-0.94905,-0.315127,-0.315127,0.94905,1077.57,258.21)"
   id="g5">
            <path
   d="m 644.651,639.769 c 1.28,-45.141 -65.408,-42.255 -89.334,-30.271 -28.107,14.078 -52.087,50.646 -24.559,68.144 38.211,24.289 113.067,-8.697 113.893,-37.873 z"
   style="fill:#2c3d96;stroke:#000000;stroke-width:14.2px;stroke-linejoin:round"
   id="path5" />
        </g>
        <g
   transform="matrix(0.979244,0,0,1,62.7,84.7899)"
   id="g6">
            <path
   d="m 422.802,600.467 c 0,0 23.875,163.353 84.626,187.764 78.67,31.611 263.396,-33.132 263.396,-33.132 0,0 -97.294,-25.941 -114.385,-51.631 -17.091,-25.69 -82.243,-158.884 -95.575,-154.805 -13.331,4.079 -138.062,51.804 -138.062,51.804 z"
   style="fill:#2c3d96;stroke:#000000;stroke-width:14.34px;stroke-linejoin:round"
   id="path6" />
        </g>
        <g
   transform="matrix(1.10438,0,0,1.07437,5.34003,42.3473)"
   id="g7">
            <path
   d="m 314.719,570.732 c 0,0 -42.864,94.124 -19.851,146.195 23.013,52.07 -18.322,32.483 -29.563,42.358 -17.776,15.616 108.6,8.013 108.6,8.013 0,0 -36.013,-137.124 11.257,-161.503 47.27,-24.379 -70.443,-35.063 -70.443,-35.063 z"
   style="fill:#2c3d96;stroke:#000000;stroke-width:13.03px;stroke-linejoin:round"
   id="path7" />
        </g>
        <g
   transform="translate(46.7005,84.7899)"
   id="g8">
            <path
   d="m 338.075,515.014 c -26.698,-20.742 -35.987,-71.104 -30.984,-104.978 4.477,-30.307 27.879,-63.075 45.223,-76.446 25.976,-20.025 70.79,-23.023 106.287,-22.678 72.616,0.705 98.754,72.444 99.128,94.778 0.774,46.218 6.407,93.961 -90.355,124.545 -64.79,20.478 -102.6,5.521 -129.299,-15.221 z"
   style="fill:#fff3bf;stroke:#000000;stroke-width:14.2px;stroke-linejoin:round"
   id="path8" />
        </g>
        <g
   transform="matrix(0.642788,-0.00348136,0.0040623,0.750051,266.855,127.766)"
   id="g9">
            <ellipse
   cx="321.09201"
   cy="488.00101"
   rx="20.843"
   ry="17.664"
   style="stroke:#000000;stroke-width:20.32px;stroke-linejoin:round"
   id="ellipse8" />
        </g>
        <g
   transform="matrix(0.593622,-0.00321507,0.00375719,0.693717,199.824,145.911)"
   id="g10">
            <ellipse
   cx="321.09201"
   cy="488.00101"
   rx="20.843"
   ry="17.664"
   style="stroke:#000000;stroke-width:21.99px;stroke-linejoin:round"
   id="ellipse9" />
        </g>
        <g
   transform="matrix(0.765081,-0.0041437,0.00438425,0.809495,148.753,90.3008)"
   id="g11">
            <path
   d="m 225.339,603.225 c 0,0 19.105,15.62 79.781,25.471 32.538,5.283 73.031,2.144 99.856,-17.8 23.219,-17.264 33.312,-41.652 33.312,-41.652"
   style="fill:#ffbc33;stroke:#000000;stroke-width:18.02px;stroke-linejoin:round"
   id="path10" />
        </g>
        <g
   transform="matrix(0.771288,-0.00417732,0.00438425,0.809495,146.032,90.3156)"
   id="g12">
            <path
   d="m 438.284,569.244 c 0.478,-1.265 -29.122,-7.829 -54.456,-20.322 -12.353,-6.092 -24.134,-23.053 -30.065,-23.259 -10.797,-0.374 -22.726,10.216 -37.818,17.042 -17.869,8.082 -35.639,12.171 -62.582,14.438 -54.171,4.559 -49.603,61.15 -21.237,42.964 8.761,-5.617 38.757,-16.752 83.416,0 55.659,20.878 120.998,-26.256 122.742,-30.863 z"
   style="fill:#ffbc33;stroke:#000000;stroke-width:17.95px;stroke-linejoin:round"
   id="path11" />
        </g>
        <g
   transform="matrix(0.823349,-0.00445928,0.00438425,0.809495,123.214,90.4392)"
   id="g13">
            <path
   d="m 331.814,414.594 c -41.52,8.316 -158.492,-28.24 -34.75,-51.79 19.913,-3.789 228.066,-18.225 315.168,38.807 87.103,57.033 -23.586,64.825 -40.958,51.343 -43.169,-33.501 -189.756,-48.316 -239.46,-38.36 z"
   style="fill:#2c3d96;stroke:#000000;stroke-width:17.39px;stroke-linejoin:round"
   id="path12" />
        </g>
        <g
   transform="translate(46.7005,84.7899)"
   id="g14">
            <path
   d="m 401.712,592.612 c -35.4,11.784 -87.798,12.58 -94.707,-30.067 -7.422,-45.819 39.543,-38.846 39.543,-38.846 0,0 -21.881,39.723 33.846,60.021 55.726,20.297 133.415,-59.206 150.364,-80.097 20.935,-25.804 79.613,-8.379 42.467,36.377 -9.624,11.595 -73.866,51.904 -104.33,57.755 -34.852,6.693 -52.069,-10.173 -67.183,-5.143 z"
   style="fill:#2c3d96;stroke:#000000;stroke-width:14.2px;stroke-linejoin:round"
   id="path13" />
        </g>
        <g
   transform="translate(37.2513,72.4978)"
   id="g15">
            <ellipse
   cx="413.26501"
   cy="612.802"
   rx="18.653999"
   ry="18.500999"
   style="fill:#ffbc33;stroke:#000000;stroke-width:14.2px;stroke-linejoin:round"
   id="ellipse14" />
        </g>
        <g
   transform="matrix(0.221404,-0.00119913,0.00141867,0.261939,312.723,349.583)"
   id="g16">
            <ellipse
   cx="321.09201"
   cy="488.00101"
   rx="20.843"
   ry="17.664"
   style="fill:#fff3bf"
   id="ellipse15" />
        </g>
        <g
   transform="matrix(0.221404,-0.00119913,0.00141867,0.261939,395.628,358.079)"
   id="g17">
            <ellipse
   cx="321.09201"
   cy="488.00101"
   rx="20.843"
   ry="17.664"
   style="fill:#fff3bf"
   id="ellipse16" />
        </g>
        <g
   transform="rotate(-16.159552,852.83257,497.50969)"
   id="g18">
            <path
   d="m 644.651,639.769 c 1.28,-45.141 -65.408,-42.255 -89.334,-30.271 -28.107,14.078 -52.087,50.646 -24.559,68.144 38.211,24.289 113.067,-8.697 113.893,-37.873 z"
   style="fill:#2c3d96;stroke:#000000;stroke-width:14.2px;stroke-linejoin:round"
   id="path17" />
        </g>
        <g
   transform="matrix(0.398687,-0.78303,-0.873077,-0.444535,960.359,1452.84)"
   id="g19">
            <path
   d="m 605.955,652.167 c -18.237,10.363 -71.531,20.171 -63.488,-12.469 4.526,-18.366 32.758,-60.495 42.256,-50.452 2.554,2.701 -2.623,24.223 2.791,23.535 2.756,-0.35 5.588,-33.084 20.738,-37.809 25.981,-8.104 6.563,12.496 7.429,26.451 0.13,2.095 11.418,-22.635 27.954,-28.353 35.896,-12.412 -9.917,63.322 -37.68,79.097 z"
   style="fill:#fff3bf;stroke:#000000;stroke-width:15.25px;stroke-linejoin:round"
   id="path18" />
        </g>
        <g
   transform="matrix(1.0398,0.108798,0.108798,1.29738,-85.5949,-233.962)"
   id="g20">
            <path
   d="M 279.859,684.346 240.367,576.399"
   style="fill:none;stroke:#000000;stroke-width:11.06px;stroke-linejoin:round"
   id="path19" />
        </g>
        <g
   transform="matrix(-0.402192,-0.871444,0.791719,-0.365397,37.922,1418.61)"
   id="g21">
            <path
   d="m 605.955,652.167 c -31.65,17.985 -47.241,2.81 -57.696,-5.956 -1.195,-1.002 -11.589,-9.717 -9.886,-16.798 4.612,-19.178 39.11,-49.515 46.35,-40.167 1.09,1.408 -0.73,27.83 2.791,23.535 2.186,-2.668 7.375,-32.899 20.738,-37.809 1.02,-0.375 12.494,-4.591 13.539,1.128 0.375,2.05 -0.441,1.827 -6.11,25.323 6.308,-6.399 10.32,-14.818 16.628,-21.216 14.57,-14.777 29.134,-11.378 22.498,8.276 -6.555,19.415 -32.779,54.551 -48.852,63.684 z"
   style="fill:#fff3bf;stroke:#000000;stroke-width:15.48px;stroke-linejoin:round"
   id="path20" />
        </g>
        <g
   transform="rotate(-13.791126,161.22755,455.38494)"
   id="g22">
            <path
   d="m 161.228,435.951 4.76,14.186 12.863,5.249 -12.863,5.25 -4.76,14.186 -4.76,-14.186 -12.863,-5.25 12.863,-5.249 z"
   style="fill:#fff3bf;stroke:#000000;stroke-width:5.55px;stroke-linejoin:round"
   id="path21" />
        </g>
        <g
   transform="matrix(1.13481,-0.131252,0.13333,1.15277,-57.821,-120.005)"
   id="g23">
            <path
   d="m 161.228,435.951 4.76,14.186 12.863,5.249 -12.863,5.25 -4.76,14.186 -4.76,-14.186 -12.863,-5.25 12.863,-5.249 z"
   style="fill:#fff3bf;stroke:#000000;stroke-width:4.82px;stroke-linejoin:round"
   id="path22" />
        </g>
        <g
   transform="matrix(0.939739,0.011624,-0.0068121,0.804565,72.2307,64.0517)"
   id="g24">
            <path
   d="m 161.228,435.951 4.76,14.186 12.863,5.249 -12.863,5.25 -4.76,14.186 -4.76,-14.186 -12.863,-5.25 12.863,-5.249 z"
   style="fill:#fff3bf;stroke:#000000;stroke-width:6.33px;stroke-linejoin:round"
   id="path23" />
        </g>
        <g
   transform="matrix(1.4777,0.210883,-0.202793,1.54764,110.811,-377.393)"
   id="g25">
            <path
   d="m 161.228,435.951 4.76,14.186 12.863,5.249 -12.863,5.25 -4.76,14.186 -4.76,-14.186 -12.863,-5.25 12.863,-5.249 z"
   style="fill:#fff3bf;stroke:#000000;stroke-width:3.61px;stroke-linejoin:round"
   id="path24" />
        </g>
        <g
   transform="matrix(0.97032,0.454516,-0.424659,0.934312,507.7,-155.014)"
   id="g26">
            <path
   d="m 161.228,435.951 4.76,14.186 12.863,5.249 -12.863,5.25 -4.76,14.186 -4.76,-14.186 -12.863,-5.25 12.863,-5.249 z"
   style="fill:#ffbc33"
   id="path25" />
        </g>
        <g
   transform="matrix(0.907657,-0.412477,0.403081,0.860651,195.111,388.387)"
   id="g27">
            <path
   d="m 161.228,435.951 4.76,14.186 12.863,5.249 -12.863,5.25 -4.76,14.186 -4.76,-14.186 -12.863,-5.25 12.863,-5.249 z"
   style="fill:#ffbc33"
   id="path26" />
        </g>
        <g
   transform="matrix(0.875571,0.476815,-0.444923,0.839784,717.368,323.251)"
   id="g28">
            <path
   d="m 161.228,435.951 4.76,14.186 12.863,5.249 -12.863,5.25 -4.76,14.186 -4.76,-14.186 -12.863,-5.25 12.863,-5.249 z"
   style="fill:#ffbc33"
   id="path27" />
        </g>
        <g
   transform="matrix(-0.799692,0.827027,-0.919003,-0.868469,1116.59,1078.07)"
   id="g29">
            <path
   d="m 161.228,435.951 4.76,14.186 12.863,5.249 -12.863,5.25 -4.76,14.186 -4.76,-14.186 -12.863,-5.25 12.863,-5.249 z"
   style="fill:#ffbc33"
   id="path28" />
        </g>
        <g
   transform="matrix(0.860698,0.238614,-0.196604,0.742101,314.023,358.366)"
   id="g30">
            <path
   d="m 161.228,435.951 4.76,14.186 12.863,5.249 -12.863,5.25 -4.76,14.186 -4.76,-14.186 -12.863,-5.25 12.863,-5.249 z"
   style="fill:#ffbc33"
   id="path29" />
        </g>
        <g
   transform="matrix(0.595412,0.197899,-0.208225,0.651328,362.94,481.27)"
   id="g31">
            <path
   d="m 161.228,435.951 4.76,14.186 12.863,5.249 -12.863,5.25 -4.76,14.186 -4.76,-14.186 -12.863,-5.25 12.863,-5.249 z"
   style="fill:#ffbc33"
   id="path30" />
        </g>
        <g
   transform="matrix(0.257478,-0.888566,0.85152,0.231872,389.881,935.278)"
   id="g32">
            <path
   d="m 161.228,435.951 4.76,14.186 12.863,5.249 -12.863,5.25 -4.76,14.186 -4.76,-14.186 -12.863,-5.25 12.863,-5.249 z"
   style="fill:#ffbc33"
   id="path31" />
        </g>
        <g
   transform="matrix(0.780838,-0.126012,0.135336,0.781551,466.072,-25.2011)"
   id="g33">
            <path
   d="m 161.228,435.951 4.76,14.186 12.863,5.249 -12.863,5.25 -4.76,14.186 -4.76,-14.186 -12.863,-5.25 12.863,-5.249 z"
   style="fill:#ffbc33"
   id="path32" />
        </g>
        <g
   transform="matrix(0.610558,-0.0985322,0.105583,0.609729,397.41,47.1376)"
   id="g34">
            <path
   d="m 161.228,435.951 4.76,14.186 12.863,5.249 -12.863,5.25 -4.76,14.186 -4.76,-14.186 -12.863,-5.25 12.863,-5.249 z"
   style="fill:#ffbc33"
   id="path33" />
        </g>
        <g
   transform="matrix(0.913934,0.0413522,-0.0645131,0.841623,462.333,-28.0325)"
   id="g35">
            <path
   d="m 161.228,435.951 4.76,14.186 12.863,5.249 -12.863,5.25 -4.76,14.186 -4.76,-14.186 -12.863,-5.25 12.863,-5.249 z"
   style="fill:#ffbc33"
   id="path34" />
        </g>
        <g
   transform="matrix(1.19975,0.172264,-0.142126,0.989849,13.2415,-5.54437)"
   id="g36">
            <path
   d="m 262.448,412.265 3.668,15.738 9.913,5.823 -9.913,5.823 -3.668,15.737 -3.668,-15.737 -9.913,-5.823 9.913,-5.823 z"
   style="fill:#fff3bf;stroke:#000000;stroke-width:4.99px;stroke-linejoin:round"
   id="path35" />
        </g>
    </g>
    <g
   transform="matrix(0.92593037,0,0,0.92593037,-167.06536,21.127758)"
   id="g44">
        <path
   d="m 516.567,90.583 c -0.059,-1.976 -0.778,-3.638 -2.156,-4.986 -1.377,-1.348 -2.935,-2.081 -4.672,-2.201 h -5.031 c -2.096,-0.06 -3.234,0.719 -3.414,2.336 v 14.195 h 8.445 c 1.737,-0.12 3.295,-0.853 4.672,-2.201 1.378,-1.348 2.097,-3.01 2.156,-4.986 z M 483.325,79.982 c 0.06,-3.175 1.558,-5.765 4.492,-7.772 2.935,-2.006 6.529,-2.949 10.782,-2.83 h 13.746 c 3.773,0.06 7.337,0.989 10.691,2.785 3.354,1.797 6.095,4.328 8.221,7.592 2.126,3.265 3.279,6.334 3.459,9.209 v 5.571 c -0.18,2.875 -0.988,5.42 -2.426,7.636 -1.437,2.216 -2.635,3.834 -3.594,4.852 0.959,1.018 2.157,2.635 3.594,4.851 1.438,2.217 2.246,4.762 2.426,7.637 v 5.57 c -0.18,2.875 -1.333,5.945 -3.459,9.209 -2.126,3.265 -4.867,5.795 -8.221,7.592 -3.354,1.797 -6.918,2.725 -10.691,2.785 h -13.746 c -4.253,0.12 -7.847,-0.823 -10.782,-2.83 -2.934,-2.006 -4.432,-4.597 -4.492,-7.771 z m 33.242,43.484 v -2.156 c -0.059,-1.977 -0.778,-3.639 -2.156,-4.986 -1.377,-1.348 -2.935,-2.082 -4.672,-2.201 h -8.445 v 14.195 c 0.18,1.617 1.318,2.396 3.414,2.336 h 5.031 c 1.737,-0.12 3.295,-0.854 4.672,-2.201 1.378,-1.348 2.097,-3.01 2.156,-4.987 z"
   style="fill-rule:nonzero"
   id="path37" />
        <path
   d="m 562.567,69.38 h 8.266 c 3.414,-0.06 6.753,0.764 10.018,2.471 3.264,1.707 5.136,3.699 5.615,5.975 l 5.93,59.656 c -0.06,1.976 -0.779,3.639 -2.157,4.986 -1.377,1.348 -2.935,2.082 -4.672,2.201 h -4.132 c -2.995,-0.239 -5.091,-1.737 -6.289,-4.492 l -2.516,-26.054 h -11.859 l -2.516,26.054 c -1.198,2.755 -3.294,4.253 -6.289,4.492 h -4.133 c -1.737,-0.119 -3.294,-0.853 -4.672,-2.201 -1.377,-1.347 -2.096,-3.01 -2.156,-4.986 l 5.93,-59.656 c 0.479,-2.276 2.351,-4.268 5.615,-5.975 3.264,-1.707 6.603,-2.531 10.017,-2.471 z m 7.188,14.914 c -0.419,-0.539 -1.018,-0.838 -1.797,-0.898 h -2.516 c -0.778,0.06 -1.377,0.359 -1.796,0.898 l -1.528,15.633 h 9.164 z"
   style="fill-rule:nonzero"
   id="path38" />
        <path
   d="m 637.677,69.38 c 4.312,-0.06 6.948,1.857 7.906,5.75 v 2.516 c -0.958,3.893 -3.594,5.81 -7.906,5.75 h -8.985 v 54.086 c -0.059,1.976 -0.778,3.639 -2.156,4.986 -1.377,1.348 -2.935,2.082 -4.672,2.201 h -4.222 c -1.677,-0.119 -3.205,-0.853 -4.582,-2.201 -1.378,-1.347 -2.097,-3.01 -2.157,-4.986 V 83.396 h -8.804 c -4.313,0.06 -6.948,-1.857 -7.907,-5.75 V 75.13 c 0.959,-3.893 3.594,-5.81 7.907,-5.75 z"
   style="fill-rule:nonzero"
   id="path39" />
        <path
   d="m 659.15,144.669 c -1.678,-0.119 -3.205,-0.853 -4.583,-2.201 -1.377,-1.347 -2.096,-3.01 -2.156,-4.986 V 76.568 c 0.06,-1.977 0.779,-3.639 2.156,-4.987 1.378,-1.347 2.935,-2.081 4.672,-2.201 h 4.133 c 1.737,0.12 3.294,0.854 4.672,2.201 1.378,1.348 2.096,3.01 2.156,4.987 v 23.359 h 15.633 V 76.568 c 0.06,-1.977 0.779,-3.639 2.156,-4.987 1.378,-1.347 2.935,-2.081 4.672,-2.201 h 4.133 c 1.737,0.12 3.294,0.854 4.672,2.201 1.378,1.348 2.096,3.01 2.156,4.987 v 60.914 c -0.06,1.976 -0.778,3.639 -2.156,4.986 -1.378,1.348 -2.905,2.082 -4.582,2.201 h -4.223 c -1.737,-0.119 -3.294,-0.853 -4.672,-2.201 -1.377,-1.347 -2.096,-3.01 -2.156,-4.986 V 114.123 H 670.2 v 23.359 c -0.06,1.976 -0.778,3.639 -2.156,4.986 -1.378,1.348 -2.935,2.082 -4.672,2.201 z"
   style="fill-rule:nonzero"
   id="path40" />
        <path
   d="m 739.829,144.669 c -1.677,-0.119 -3.204,-0.853 -4.582,-2.201 -1.377,-1.347 -2.096,-3.01 -2.156,-4.986 V 76.568 c 0.06,-1.977 0.779,-3.639 2.156,-4.987 1.378,-1.347 2.935,-2.081 4.672,-2.201 h 4.133 c 1.737,0.12 3.294,0.854 4.672,2.201 1.377,1.348 2.096,3.01 2.156,4.987 v 23.359 h 15.633 V 76.568 c 0.06,-1.977 0.778,-3.639 2.156,-4.987 1.378,-1.347 2.935,-2.081 4.672,-2.201 h 4.133 c 1.737,0.12 3.294,0.854 4.672,2.201 1.377,1.348 2.096,3.01 2.156,4.987 v 60.914 c -0.06,1.976 -0.779,3.639 -2.156,4.986 -1.378,1.348 -2.905,2.082 -4.582,2.201 h -4.223 c -1.737,-0.119 -3.294,-0.853 -4.672,-2.201 -1.378,-1.347 -2.096,-3.01 -2.156,-4.986 V 114.123 H 750.88 v 23.359 c -0.06,1.976 -0.779,3.639 -2.156,4.986 -1.378,1.348 -2.935,2.082 -4.672,2.201 z"
   style="fill-rule:nonzero"
   id="path41" />
        <path
   d="m 812.153,69.38 h 8.266 c 3.414,-0.06 6.753,0.764 10.018,2.471 3.264,1.707 5.136,3.699 5.615,5.975 l 5.93,59.656 c -0.06,1.976 -0.779,3.639 -2.157,4.986 -1.377,1.348 -2.935,2.082 -4.672,2.201 h -4.132 c -2.995,-0.239 -5.092,-1.737 -6.289,-4.492 l -2.516,-26.054 h -11.859 l -2.516,26.054 c -1.198,2.755 -3.294,4.253 -6.289,4.492 h -4.133 c -1.737,-0.119 -3.294,-0.853 -4.672,-2.201 -1.377,-1.347 -2.096,-3.01 -2.156,-4.986 l 5.93,-59.656 c 0.479,-2.276 2.351,-4.268 5.615,-5.975 3.264,-1.707 6.603,-2.531 10.017,-2.471 z m 7.188,14.914 c -0.419,-0.539 -1.018,-0.838 -1.797,-0.898 h -2.516 c -0.778,0.06 -1.377,0.359 -1.796,0.898 l -1.528,15.633 h 9.164 z"
   style="fill-rule:nonzero"
   id="path42" />
        <path
   d="m 848.271,88.966 c 0.179,-2.875 1.332,-5.944 3.459,-9.209 2.126,-3.264 4.866,-5.795 8.22,-7.592 3.354,-1.796 6.589,-2.725 9.703,-2.785 h 7.727 c 3.714,0.06 7.247,0.989 10.602,2.785 3.354,1.797 6.094,4.328 8.22,7.592 2.127,3.265 3.28,6.334 3.459,9.209 v 3.235 c -0.06,1.976 -0.778,3.638 -2.156,4.986 -1.378,1.348 -2.935,2.081 -4.672,2.201 H 888.7 c -1.737,-0.12 -3.294,-0.853 -4.672,-2.201 -1.377,-1.348 -2.096,-3.01 -2.156,-4.986 -0.299,-3.055 -1.138,-5.256 -2.515,-6.604 -1.378,-1.348 -2.935,-2.081 -4.672,-2.201 h -1.438 c -1.737,0.12 -3.294,0.853 -4.672,2.201 -1.377,1.348 -2.096,3.01 -2.156,4.986 v 32.883 c 0.06,1.977 0.779,3.639 2.156,4.987 1.378,1.347 2.935,2.081 4.672,2.201 h 1.438 c 1.737,-0.12 3.294,-0.854 4.672,-2.201 1.377,-1.348 2.216,-3.549 2.515,-6.604 0.06,-1.976 0.779,-3.639 2.156,-4.986 1.378,-1.348 2.935,-2.082 4.672,-2.201 h 4.133 c 1.737,0.119 3.294,0.853 4.672,2.201 1.378,1.347 2.096,3.01 2.156,4.986 v 3.234 c -0.179,2.875 -1.332,5.945 -3.459,9.209 -2.126,3.265 -4.866,5.795 -8.22,7.592 -3.355,1.797 -6.888,2.725 -10.602,2.785 h -7.727 c -3.114,-0.06 -6.349,-0.988 -9.703,-2.785 -3.354,-1.797 -6.094,-4.327 -8.22,-7.592 -2.127,-3.264 -3.28,-6.334 -3.459,-9.209 z"
   style="fill-rule:nonzero"
   id="path43" />
        <path
   d="m 913.587,144.669 c -1.677,-0.119 -3.204,-0.853 -4.582,-2.201 -1.378,-1.347 -2.096,-3.01 -2.156,-4.986 V 76.568 c 0.06,-1.977 0.778,-3.639 2.156,-4.987 1.378,-1.347 2.935,-2.081 4.672,-2.201 h 4.133 c 1.737,0.12 3.294,0.854 4.672,2.201 1.377,1.348 2.096,3.01 2.156,4.987 v 18.418 l 17.429,-23.629 c 1.378,-1.378 3.055,-2.096 5.032,-2.156 h 4.133 c 1.796,0.119 3.249,0.733 4.357,1.841 1.108,1.108 1.737,2.366 1.887,3.774 0.149,1.407 -0.015,2.59 -0.494,3.549 l -17.61,23.539 17.789,35.758 c 0.659,1.856 0.33,3.518 -0.988,4.986 -1.318,1.467 -3.025,2.141 -5.121,2.021 h -3.774 c -2.815,-0.06 -4.791,-1.138 -5.929,-3.234 l -12.758,-25.336 -3.953,4.941 v 16.442 c -0.06,1.976 -0.779,3.639 -2.156,4.986 -1.378,1.348 -2.935,2.082 -4.672,2.201 z"
   style="fill-rule:nonzero"
   id="path44" />
    </g>
    <g
   transform="matrix(0.92593037,0,0,0.92593037,-52.84286,672.79432)"
   id="g48">
        <path
   d="m 494.646,144.669 c -3.235,-0.119 -5.87,-1.512 -7.907,-4.177 -2.036,-2.666 -3.114,-6.604 -3.234,-11.815 0.18,-4.372 2.126,-8.176 5.84,-11.41 L 515.489,92.74 c 0.899,-0.599 1.318,-1.378 1.258,-2.336 -0.18,-1.857 -0.958,-3.459 -2.336,-4.807 -1.377,-1.348 -2.935,-2.081 -4.672,-2.201 h -1.437 c -1.737,0.12 -3.294,0.853 -4.672,2.201 -1.378,1.348 -2.216,3.549 -2.516,6.604 -0.06,1.976 -0.778,3.638 -2.156,4.986 -1.377,1.348 -2.935,2.081 -4.672,2.201 h -4.133 c -1.737,-0.12 -3.294,-0.853 -4.671,-2.201 -1.378,-1.348 -2.097,-3.01 -2.157,-4.986 v -3.235 c 0.18,-2.875 1.333,-5.944 3.459,-9.209 2.127,-3.264 4.867,-5.795 8.221,-7.592 3.354,-1.796 6.888,-2.725 10.602,-2.785 h 7.726 c 3.115,0.06 6.349,0.989 9.703,2.785 3.354,1.797 6.095,4.328 8.221,7.592 2.126,3.265 3.279,6.334 3.459,9.209 0.12,4.852 -1.198,8.565 -3.953,11.141 l -30.727,29.109 c -0.539,1.138 -0.06,1.617 1.438,1.438 h 25.336 c 4.312,-0.06 6.948,1.857 7.906,5.75 v 2.515 c -0.958,3.894 -3.594,5.81 -7.906,5.75 z"
   style="fill-rule:nonzero"
   id="path45" />
        <path
   d="m 575.325,90.583 c -0.06,-1.976 -0.778,-3.638 -2.156,-4.986 -1.378,-1.348 -2.935,-2.081 -4.672,-2.201 h -1.437 c -1.737,0.12 -3.295,0.853 -4.672,2.201 -1.378,1.348 -2.097,3.01 -2.156,4.986 v 32.883 c 0.059,1.977 0.778,3.639 2.156,4.987 1.377,1.347 2.935,2.081 4.672,2.201 h 1.437 c 1.737,-0.12 3.294,-0.854 4.672,-2.201 1.378,-1.348 2.096,-3.01 2.156,-4.987 z m -33.242,-1.617 c 0.18,-2.875 1.333,-5.944 3.459,-9.209 2.126,-3.264 4.867,-5.795 8.221,-7.592 3.354,-1.796 6.588,-2.725 9.703,-2.785 h 7.637 c 3.773,0.06 7.337,0.989 10.691,2.785 3.354,1.797 6.094,4.328 8.221,7.592 2.126,3.265 3.279,6.334 3.459,9.209 v 36.117 c -0.18,2.875 -1.333,5.945 -3.459,9.209 -2.127,3.265 -4.867,5.795 -8.221,7.592 -3.354,1.797 -6.918,2.725 -10.691,2.785 h -7.637 c -3.115,-0.06 -6.349,-0.988 -9.703,-2.785 -3.354,-1.797 -6.095,-4.327 -8.221,-7.592 -2.126,-3.264 -3.279,-6.334 -3.459,-9.209 z"
   style="fill-rule:nonzero"
   id="path46" />
        <path
   d="m 611.982,144.669 c -3.235,-0.119 -5.87,-1.512 -7.907,-4.177 -2.036,-2.666 -3.114,-6.604 -3.234,-11.815 0.18,-4.372 2.126,-8.176 5.84,-11.41 L 632.825,92.74 c 0.899,-0.599 1.318,-1.378 1.258,-2.336 -0.18,-1.857 -0.958,-3.459 -2.336,-4.807 -1.377,-1.348 -2.935,-2.081 -4.672,-2.201 h -1.437 c -1.737,0.12 -3.294,0.853 -4.672,2.201 -1.378,1.348 -2.216,3.549 -2.516,6.604 -0.06,1.976 -0.778,3.638 -2.156,4.986 -1.378,1.348 -2.935,2.081 -4.672,2.201 h -4.133 c -1.737,-0.12 -3.294,-0.853 -4.672,-2.201 -1.377,-1.348 -2.096,-3.01 -2.156,-4.986 v -3.235 c 0.18,-2.875 1.333,-5.944 3.459,-9.209 2.127,-3.264 4.867,-5.795 8.221,-7.592 3.354,-1.796 6.888,-2.725 10.601,-2.785 h 7.727 c 3.115,0.06 6.349,0.989 9.703,2.785 3.354,1.797 6.095,4.328 8.221,7.592 2.126,3.265 3.279,6.334 3.459,9.209 0.12,4.852 -1.198,8.565 -3.953,11.141 l -30.727,29.109 c -0.539,1.138 -0.06,1.617 1.438,1.438 h 25.336 c 4.312,-0.06 6.948,1.857 7.906,5.75 v 2.515 c -0.958,3.894 -3.594,5.81 -7.906,5.75 z"
   style="fill-rule:nonzero"
   id="path47" />
        <path
   d="m 689.966,99.927 c 3.174,0.18 6.334,1.108 9.478,2.785 3.145,1.677 5.78,4.148 7.907,7.412 2.126,3.265 3.279,6.334 3.459,9.209 v 5.571 c -0.18,2.995 -1.333,6.124 -3.459,9.388 -2.127,3.265 -4.867,5.795 -8.221,7.592 -3.354,1.797 -6.888,2.725 -10.602,2.785 H 681.7 c -3.713,-0.06 -7.247,-0.988 -10.601,-2.785 -3.354,-1.797 -6.095,-4.327 -8.221,-7.592 -2.126,-3.264 -3.459,-9.209 -3.459,-9.209 v -3.234 c 0.06,-1.976 0.779,-3.639 2.156,-4.986 1.378,-1.348 2.935,-2.082 4.672,-2.201 h 4.133 c 1.737,0.119 3.294,0.853 4.672,2.201 1.377,1.347 2.096,3.01 2.156,4.986 0.3,3.055 1.138,5.256 2.516,6.604 1.377,1.347 2.935,2.081 4.672,2.201 h 1.437 c 1.737,-0.12 3.249,-0.809 4.537,-2.067 1.288,-1.257 2.052,-3.024 2.291,-5.3 v -2.336 c -0.06,-1.977 -0.464,-3.609 -1.213,-4.897 -0.748,-1.288 -1.452,-1.931 -2.111,-1.931 h -8.535 c -3.115,-0.06 -6.349,-0.989 -9.703,-2.786 -3.354,-1.797 -6.095,-4.327 -8.221,-7.591 -2.126,-3.265 -3.279,-6.334 -3.459,-9.209 V 79.083 c 0.18,-2.994 1.512,-5.345 3.998,-7.052 2.486,-1.707 5.645,-2.591 9.479,-2.651 h 30.007 c 4.313,-0.06 6.948,1.857 7.907,5.75 v 2.516 c -0.959,3.893 -3.594,5.81 -7.907,5.75 h -22.461 c -1.796,0.18 -2.815,0.898 -3.054,2.156 v 7.367 c 0.179,1.977 0.943,3.639 2.291,4.987 1.347,1.347 2.92,2.021 4.717,2.021 z"
   style="fill-rule:nonzero"
   id="path48" />
    </g>
</svg>
